# Blender v2.76 (sub 0) OBJ File: 'builder.blend'
# www.blender.org
o Cube
v -0.056740 -0.007554 0.651857
v -0.056740 0.098953 0.651857
v -0.056740 -0.007554 -0.313940
v -0.056740 0.098953 -0.313940
v 0.063561 -0.007554 0.651857
v 0.063561 0.098953 0.651857
v 0.063561 -0.007554 -0.313940
v 0.063561 0.098953 -0.313940
v -0.078810 0.098953 -0.160195
v -0.078810 -0.007554 -0.160195
v 0.085631 0.098953 -0.160195
v 0.085631 -0.007554 -0.160195
v 0.146538 0.098953 -0.295568
v 0.146538 -0.007554 -0.295568
v 0.123246 -0.007554 -0.185335
v 0.123246 0.098953 -0.185335
v 0.312359 0.098953 -0.180550
v 0.312359 -0.007554 -0.180550
v 0.271316 -0.007554 -0.129282
v 0.271316 0.098953 -0.129282
v 0.427281 0.098953 -0.066797
v 0.427281 -0.007554 -0.066797
v 0.390369 -0.007554 -0.034648
v 0.390369 0.098953 -0.034648
v -0.050062 -0.007554 -0.091767
v -0.049506 -0.007554 -0.018285
v -0.056740 -0.007554 0.050143
v 0.056883 0.098953 -0.091767
v 0.056328 0.098953 -0.018285
v 0.063561 0.098953 0.050143
v -0.056740 0.098953 0.050143
v -0.049506 0.098953 -0.018285
v -0.050062 0.098953 -0.091767
v 0.063561 -0.007554 0.050143
v 0.056328 -0.007554 -0.018285
v 0.056883 -0.007554 -0.091767
v -0.315418 0.098953 -0.160195
v -0.315418 0.098953 -0.313940
v -0.315418 -0.007554 -0.313940
v -0.315418 -0.007554 -0.160195
v -0.128989 -0.007554 -0.279408
v -0.174966 -0.007554 -0.279408
v -0.247216 -0.007554 -0.313940
v -0.247216 0.098953 -0.313940
v -0.174966 0.098953 -0.279408
v -0.128989 0.098953 -0.279408
v -0.128989 -0.007554 -0.194728
v -0.174966 -0.007554 -0.194728
v -0.247216 -0.007554 -0.160195
v -0.247216 0.098953 -0.160195
v -0.174966 0.098953 -0.194728
v -0.128989 0.098953 -0.194728
vt 0.129459 0.953906
vt 0.046094 0.953906
vt 0.362280 0.953906
vt 0.509326 0.953906
vt 0.509326 0.611682
vt 0.509326 0.046094
vt 0.362280 0.046094
vt 0.335304 0.809392
vt 0.536302 0.809392
vt 0.501163 0.745072
vt 0.370443 0.745072
vt 0.610749 0.936637
vt 0.582280 0.833022
vt 0.763268 0.780334
vt 0.813435 0.828525
vt 0.953906 0.721601
vt 0.908789 0.691382
vt 0.362280 0.611682
vt 0.371122 0.676002
vt 0.500485 0.676002
vt 0.046094 0.809392
vt 0.129459 0.809392
vt 0.273969 0.841851
vt 0.217770 0.841851
vt 0.273969 0.921447
vt 0.217770 0.921447
vn 0.166000 0.660500 -0.732200
vn 0.166000 -0.660500 -0.732200
vn -0.577300 -0.577300 -0.577300
vn -0.577300 0.577300 -0.577300
vn -0.166000 0.660500 -0.732200
vn 0.079300 0.683400 -0.725700
vn 0.079300 -0.683400 -0.725700
vn -0.166000 -0.660500 -0.732200
vn 0.717600 0.695400 -0.037800
vn 0.577300 0.577300 0.577300
vn 0.577300 -0.577300 0.577300
vn 0.717600 -0.695400 -0.037800
vn -0.577300 0.577300 0.577300
vn -0.577300 -0.577300 0.577300
vn -0.489100 -0.776200 0.397800
vn 0.484700 -0.778000 0.399800
vn 0.484700 0.778000 0.399800
vn -0.489100 0.776200 0.397800
vn 0.644000 0.753400 0.132300
vn -0.644000 0.753400 0.132300
vn -0.644000 -0.753400 0.132300
vn 0.644000 -0.753400 0.132300
vn 0.298800 -0.666100 -0.683400
vn 0.063900 -0.826000 0.560000
vn 0.298800 0.666100 -0.683400
vn 0.063900 0.826000 0.560000
vn -0.330400 0.743500 0.581400
vn 0.463800 0.688100 -0.558100
vn 0.463800 -0.688100 -0.558100
vn 0.818700 0.573500 0.026100
vn 0.818700 -0.573500 0.026100
vn -0.330400 -0.743500 0.581400
vn 0.018200 0.587500 0.809000
vn 0.018200 -0.587500 0.809000
vn -0.717600 0.695400 -0.037800
vn -0.717600 -0.695400 -0.037800
vn -0.693100 0.720000 -0.033900
vn -0.693100 -0.720000 -0.033900
vn 0.693100 -0.720000 -0.033900
vn 0.693100 0.720000 -0.033900
vn 0.166000 -0.660500 0.732200
vn 0.166000 0.660500 0.732200
vn -0.185600 0.780400 0.597100
vn -0.185600 -0.780400 0.597100
vn 0.143600 0.760400 0.633400
vn 0.143600 -0.760400 0.633400
vn -0.143600 0.760400 -0.633400
vn 0.143600 0.760400 -0.633400
vn -0.143600 -0.760400 -0.633400
vn 0.143600 -0.760400 -0.633400
s 1
f 44/1/1 43/1/2 39/2/3 38/2/4
f 4/3/5 8/4/6 7/4/7 3/3/8
f 30/5/9 6/6/10 5/6/11 34/5/12
f 6/6/10 2/7/13 1/7/14 5/6/11
f 10/8/15 3/3/8 7/4/7 12/9/16
f 11/9/17 8/4/6 4/3/5 9/8/18
f 28/10/19 11/9/17 9/8/18 33/11/20
f 25/11/21 10/8/15 12/9/16 36/10/22
f 12/9/16 7/4/7 14/12/23 15/13/24
f 33/11/20 9/8/18 10/8/15 25/11/21
f 13/12/25 16/13/26 20/14/27 17/15/28
f 11/9/17 12/9/16 15/13/24 16/13/26
f 7/4/7 8/4/6 13/12/25 14/12/23
f 8/4/6 11/9/17 16/13/26 13/12/25
f 18/15/29 17/15/28 21/16/30 22/16/31
f 14/12/23 13/12/25 17/15/28 18/15/29
f 16/13/26 15/13/24 19/14/32 20/14/27
f 15/13/24 14/12/23 18/15/29 19/14/32
f 21/16/30 24/17/33 23/17/34 22/16/31
f 20/14/27 19/14/32 23/17/34 24/17/33
f 19/14/32 18/15/29 22/16/31 23/17/34
f 17/15/28 20/14/27 24/17/33 21/16/30
f 2/7/13 31/18/35 27/18/36 1/7/14
f 31/18/35 32/19/37 26/19/38 27/18/36
f 32/19/37 33/11/20 25/11/21 26/19/38
f 1/7/14 27/18/36 34/5/12 5/6/11
f 27/18/36 26/19/38 35/20/39 34/5/12
f 26/19/38 25/11/21 36/10/22 35/20/39
f 6/6/10 30/5/9 31/18/35 2/7/13
f 30/5/9 29/20/40 32/19/37 31/18/35
f 29/20/40 28/10/19 33/11/20 32/19/37
f 11/9/17 28/10/19 36/10/22 12/9/16
f 28/10/19 29/20/40 35/20/39 36/10/22
f 29/20/40 30/5/9 34/5/12 35/20/39
f 37/21/13 38/2/4 39/2/3 40/21/14
f 43/1/2 49/22/41 40/21/14 39/2/3
f 50/22/42 44/1/1 38/2/4 37/21/13
f 49/22/41 50/22/42 37/21/13 40/21/14
f 10/8/15 9/8/18 52/23/43 47/23/44
f 47/23/44 52/23/43 51/24/45 48/24/46
f 48/24/46 51/24/45 50/22/42 49/22/41
f 9/8/18 4/3/5 46/25/47 52/23/43
f 52/23/43 46/25/47 45/26/48 51/24/45
f 51/24/45 45/26/48 44/1/1 50/22/42
f 3/3/8 10/8/15 47/23/44 41/25/49
f 41/25/49 47/23/44 48/24/46 42/26/50
f 42/26/50 48/24/46 49/22/41 43/1/2
f 4/3/5 3/3/8 41/25/49 46/25/47
f 46/25/47 41/25/49 42/26/50 45/26/48
f 45/26/48 42/26/50 43/1/2 44/1/1
