# Blender v2.73 (sub 0) OBJ File: 'Map.blend'
# www.blender.org
mtllib SidePlatform.mtl
o SidePlatform
v -1.344641 0.104190 2.883584
v 1.344641 0.104190 2.883584
v -1.344641 0.104190 -2.883584
v 1.344641 0.104190 -2.883584
v -1.344641 -0.104190 2.883584
v 1.344641 -0.104190 2.883584
v -1.344641 -0.104190 -2.883584
v 1.344641 -0.104190 -2.883584
v -1.227854 0.169459 -2.766797
v -1.227854 0.169459 2.766797
v 1.227854 0.169459 2.766797
v 1.227854 0.169459 -2.766797
v -1.227854 -0.169459 -2.766797
v -1.227854 -0.169459 2.766797
v 1.227854 -0.169459 2.766797
v 1.227854 -0.169459 -2.766797
vt 0.043734 0.085204
vt 0.865424 0.085204
vt 0.865424 0.449855
vt 0.597970 0.537385
vt 0.597970 0.797145
vt 0.012639 0.797145
vt 0.939341 0.601972
vt 0.939341 0.968106
vt 0.910971 0.968106
vt 0.033316 0.919729
vt 0.785452 0.919729
vt 0.785452 0.946905
vt 0.910845 0.968106
vt 0.910971 0.601972
vt 0.033316 0.946905
vt 0.770221 0.902281
vt 0.939215 0.968116
vt 0.957550 0.617888
vt 0.048547 0.964354
vt 0.892756 0.952206
vt 0.892636 0.952200
vt 0.043734 0.449855
vt 0.012639 0.537385
vt 0.048547 0.902281
vt 0.957435 0.952222
vt 0.770222 0.964353
vt 0.892756 0.617872
vt 0.957556 0.952206
vn 0.000000 1.000000 0.000000
vn 0.000000 -1.000000 0.000000
vn 0.000000 0.000000 -1.000000
vn 1.000000 0.000000 0.000000
vn 0.000000 0.000000 1.000000
vn -1.000000 0.000000 0.000000
vn -0.487900 0.872900 0.000000
vn 0.000000 0.872900 0.487900
vn 0.487900 0.872900 0.000000
vn 0.000000 0.872900 -0.487900
vn -0.487900 -0.872900 0.000000
vn 0.000000 -0.872900 0.487900
vn 0.487900 -0.872900 0.000000
vn 0.000000 -0.872900 -0.487900
usemtl Platform
s off
f 11/1/1 12/2/1 9/3/1
f 13/4/2 16/5/2 15/6/2
f 8/7/3 7/8/3 3/9/3
f 6/10/4 8/11/4 4/12/4
f 5/13/5 6/14/5 2/7/5
f 7/12/6 5/15/6 1/10/6
f 9/16/7 3/11/7 1/10/7
f 1/17/8 2/7/8 11/18/8
f 11/19/9 2/15/9 4/12/9
f 4/14/10 3/9/10 9/20/10
f 14/19/11 5/15/11 7/12/11
f 6/14/12 5/13/12 14/21/12
f 16/16/13 8/11/13 6/10/13
f 7/8/14 8/7/14 16/18/14
f 10/22/1 11/1/1 9/3/1
f 14/23/2 13/4/2 15/6/2
f 4/14/3 8/7/3 3/9/3
f 2/15/4 6/10/4 4/12/4
f 1/17/5 5/13/5 2/7/5
f 3/11/6 7/12/6 1/10/6
f 10/24/7 9/16/7 1/10/7
f 10/25/8 1/17/8 11/18/8
f 12/26/9 11/19/9 4/12/9
f 12/27/10 4/14/10 9/20/10
f 13/26/11 14/19/11 7/12/11
f 15/27/12 6/14/12 14/21/12
f 15/24/13 16/16/13 6/10/13
f 13/28/14 7/8/14 16/18/14
