# mesh exported by Cage
v 0 0 1
v 0 0 -1
v 0 1 0
v 0 -1 0
v 0 0.52573115 0.85065085
v 0 0.52573115 -0.85065085
v 0 -0.52573115 0.85065085
v 0 -0.52573115 -0.85065085
v 0.5 0.309017 0.809017
v 0.5 0.309017 -0.809017
v 0.5 -0.309017 0.809017
v 0.5 -0.309017 -0.809017
v -0.5 0.309017 0.809017
v -0.5 0.309017 -0.809017
v -0.5 -0.309017 0.809017
v -0.5 -0.309017 -0.809017
v 1 0 0
v -1 0 0
v 0.85065085 0 0.52573115
v 0.85065085 0 -0.52573115
v -0.85065085 0 0.52573115
v -0.85065085 0 -0.52573115
v 0.52573115 0.85065085 0
v 0.52573115 -0.85065085 0
v -0.52573115 0.85065085 0
v -0.52573115 -0.85065085 0
v 0.309017 0.809017 0.5
v 0.309017 0.809017 -0.5
v 0.309017 -0.809017 0.5
v 0.309017 -0.809017 -0.5
v -0.309017 0.809017 0.5
v -0.309017 0.809017 -0.5
v -0.309017 -0.809017 0.5
v -0.309017 -0.809017 -0.5
v 0.809017 0.5 0.309017
v 0.809017 0.5 -0.309017
v 0.809017 -0.5 0.309017
v 0.809017 -0.5 -0.309017
v -0.809017 0.5 0.309017
v -0.809017 0.5 -0.309017
v -0.809017 -0.5 0.309017
v -0.809017 -0.5 -0.309017
vn 0 0 1
vn 0 0 -1
vn 0 1 0
vn 0 -1 0
vn 0 0.52573115 0.85065085
vn 0 0.52573115 -0.85065085
vn 0 -0.52573115 0.85065085
vn 0 -0.52573115 -0.85065085
vn 0.5 0.309017 0.809017
vn 0.5 0.309017 -0.809017
vn 0.5 -0.309017 0.809017
vn 0.5 -0.309017 -0.809017
vn -0.5 0.309017 0.809017
vn -0.5 0.309017 -0.809017
vn -0.5 -0.309017 0.809017
vn -0.5 -0.309017 -0.809017
vn 1 0 0
vn -1 0 0
vn 0.85065085 0 0.52573115
vn 0.85065085 0 -0.52573115
vn -0.85065085 0 0.52573115
vn -0.85065085 0 -0.52573115
vn 0.52573115 0.85065085 0
vn 0.52573115 -0.85065085 0
vn -0.52573115 0.85065085 0
vn -0.52573115 -0.85065085 0
vn 0.309017 0.809017 0.5
vn 0.309017 0.809017 -0.5
vn 0.309017 -0.809017 0.5
vn 0.309017 -0.809017 -0.5
vn -0.309017 0.809017 0.5
vn -0.309017 0.809017 -0.5
vn -0.309017 -0.809017 0.5
vn -0.309017 -0.809017 -0.5
vn 0.809017 0.5 0.309017
vn 0.809017 0.5 -0.309017
vn 0.809017 -0.5 0.309017
vn 0.809017 -0.5 -0.309017
vn -0.809017 0.5 0.309017
vn -0.809017 0.5 -0.309017
vn -0.809017 -0.5 0.309017
vn -0.809017 -0.5 -0.309017
vt 0.31761938 0.10968721
vt 0.6216894 0.03631115
vt 0.54200816 0.7300176
vt 0.76974577 0.5016619
vt 0.70648295 0.8596294
vt 0.76794547 0.6536017
vt 0.73668027 0.040982366
vt 0.73668027 0.2752807
vt 0.112962894 0.8813754
vt 0.6904312 0.14921594
vt 0.88601893 0.20444918
vt 0.87602454 0.9819915
vt 0.87602454 0.73513395
vt 0.018478464 0.33156782
vt 0.17426357 0.7877769
vt 0.5995661 0.36334747
vt 0.059699215 0.44183326
vt 0.96373236 0.41099495
vt 0.27292773 0.21941
vt 0.35569927 0.33156782
vt 0.38627046 0.34555405
vt 0.017418033 0.19259506
vt 0.76884884 0.77039564
vt 0.051502507 0.78081626
vt 0.12358723 0.67075187
vt 0.14062616 0.65995765
vt 0.7809651 0.28303683
vt 0.5071159 0.054867923
vt 0.7038934 0.56774086
vt 0.7038934 0.43275708
vt 0.23313664 0.56581885
vt 0.13178395 0.33176887
vt 0.40061474 0.19259506
vt 0.20901638 0.31634474
vt 0.2090164 0.10999626
vt 0.14510506 0.21940994
vt 0.7572697 0.9806795
vt 0.27247953 0.0010592937
vt 0.56557375 0.15088189
vt 0.6406013 0.95389366
vt 0.4252049 0.7783159
vt 0.24376097 0.35519534
vt 0.88870984 0.5243644
vt 0.48942176 0.4357496
vt 0.33824536 0.90500295
vt 0.39909753 0.51271373
vt 0.1211596 0.5423923
vt 0.62403154 0.24689579
vt 0.59764916 0.5001347
vt 0.0010245901 0.90500295
vt 0.6606223 0.73672426
vt 0.83316875 0.8668891
vt 0.4969067 0.5651773
vt 0.39108709 0.63406056
vt 0.10041345 0.10968721
vt 0.4407164 0.15254778
vt 0.13242947 0.9989407
vt 0.3944672 0.026483059
vt 0.3944672 0.2607814
vt 0.29702467 0.79473746
vt 0.05892622 0.3209746
vt 0.22493993 0.90480185
vt 0.5965676 0.61527795
vt 0.7059426 0.3964063
vt 0.019243106 0.026739538
vt 0.23556425 0.69417834
vt 0.6778688 0.70233047
vt 0.8973817 0.30878627
vt 0.3591065 0.3209746
vt 0.0102817565 0.6705508
vt 0.4334016 0.43933284
vt 0.51289093 0.29766947
vt 0.5094581 0.26545256
vt 0.99897534 0.28353155
vt 0.99897534 0.5021821
vt 0.34750256 0.6705508
vt 0.3464421 0.5660199
vt 0.1824603 0.44879383
vt 0.5967085 0.38536328
vt 0.14555326 0.0010592937
vt 0.5799702 0.84692895
vt 0.30522138 0.4557544
vt 0.009221311 0.5660199
vt 0.5076292 0.6952983
vt 0.82899463 0.41068923
f 25/3/25 3/51/3 32/81/32
f 3/51/3 28/5/28 32/81/32
f 23/23/23 28/5/28 3/51/3
f 6/40/6 32/81/32 28/5/28
f 23/23/23 3/51/3 27/6/27
f 3/27/3 31/85/31 27/64/27
f 25/68/25 31/85/31 3/27/3
f 5/4/5 27/64/27 31/85/31
f 21/14/21 15/17/15 13/32/13
f 15/17/15 1/78/1 13/32/13
f 7/47/7 1/78/1 15/17/15
f 5/42/5 13/32/13 1/78/1
f 7/47/7 11/31/11 1/78/1
f 11/31/11 9/82/9 1/78/1
f 19/77/19 9/82/9 11/31/11
f 5/42/5 1/78/1 9/82/9
f 20/70/20 12/24/12 10/25/10
f 12/24/12 2/15/2 10/25/10
f 8/9/8 2/15/2 12/24/12
f 6/66/6 10/25/10 2/15/2
f 8/9/8 16/62/16 2/15/2
f 16/62/16 14/60/14 2/15/2
f 22/45/22 14/60/14 16/62/16
f 6/66/6 2/15/2 14/60/14
f 26/28/26 4/39/4 33/56/33
f 4/39/4 29/73/29 33/56/33
f 24/48/24 29/73/29 4/39/4
f 7/59/7 33/56/33 29/73/29
f 24/48/24 4/39/4 30/10/30
f 4/39/4 34/2/34 30/10/30
f 26/28/26 34/2/34 4/39/4
f 8/7/8 30/10/30 34/2/34
f 22/63/22 18/49/18 40/29/40
f 18/49/18 39/30/39 40/29/40
f 21/79/21 39/30/39 18/49/18
f 25/68/25 40/74/40 39/18/39
f 21/79/21 18/49/18 41/44/41
f 18/49/18 42/53/42 41/44/41
f 22/63/22 42/53/42 18/49/18
f 26/46/26 41/44/41 42/53/42
f 19/55/19 17/35/17 35/80/35
f 17/35/17 36/38/36 35/80/35
f 20/1/20 36/38/36 17/35/17
f 23/23/23 35/13/35 36/52/36
f 20/1/20 17/35/17 38/19/38
f 17/35/17 37/36/37 38/19/38
f 19/55/19 37/36/37 17/35/17
f 24/34/24 38/19/38 37/36/37
f 25/68/25 39/18/39 31/85/31
f 39/18/39 13/43/13 31/85/31
f 21/75/21 13/43/13 39/18/39
f 5/4/5 31/85/31 13/43/13
f 19/55/19 35/80/35 9/65/9
f 35/71/35 27/20/27 9/82/9
f 23/23/23 27/6/27 35/13/35
f 5/42/5 9/82/9 27/20/27
f 22/63/22 40/29/40 14/67/14
f 40/41/40 32/76/32 14/60/14
f 25/68/25 32/11/32 40/74/40
f 6/66/6 14/60/14 32/76/32
f 23/23/23 36/52/36 28/5/28
f 36/52/36 10/37/10 28/5/28
f 20/12/20 10/37/10 36/52/36
f 6/40/6 28/5/28 10/37/10
f 26/46/26 42/53/42 34/54/34
f 42/53/42 16/84/16 34/54/34
f 22/63/22 16/84/16 42/53/42
f 8/9/8 34/57/34 16/62/16
f 20/1/20 38/19/38 12/33/12
f 38/19/38 30/69/30 12/33/12
f 24/48/24 30/10/30 38/8/38
f 8/9/8 12/24/12 30/50/30
f 21/79/21 41/44/41 15/72/15
f 41/44/41 33/21/33 15/72/15
f 26/28/26 33/56/33 41/58/41
f 7/47/7 15/17/15 33/83/33
f 24/48/24 37/16/37 29/73/29
f 37/36/37 11/22/11 29/61/29
f 19/55/19 11/22/11 37/36/37
f 7/47/7 29/26/29 11/31/11
