# Blender v2.73 (sub 0) OBJ File: 'Map.blend'
# www.blender.org
mtllib Platform.mtl
o Platform
v 2.937046 1.972600 5.444018
v 2.937047 2.240900 5.444017
v 2.658653 2.316228 5.165623
v 2.832115 2.316228 5.339085
v -2.937046 1.972600 5.444018
v -2.937047 2.240900 5.444017
v -2.658654 2.316228 5.165623
v -2.832115 2.316228 5.339085
v 2.937046 1.972600 -5.444017
v 2.937047 2.240900 -5.444017
v 2.658653 2.316228 -5.165623
v 2.832115 2.316228 -5.339085
v -2.937047 2.240900 -5.444017
v -2.937047 1.972600 -5.444017
v -2.658654 2.316228 -5.165623
v -2.832115 2.316228 -5.339085
vt 0.910536 0.560230
vt 0.910536 0.984860
vt 0.899062 0.977275
vt 0.781137 0.958130
vt 0.006095 0.958130
vt 0.006095 0.927938
vt 0.886523 0.964735
vt 0.886523 0.580355
vt 0.899062 0.567816
vt 0.941197 0.984860
vt 0.013515 0.914564
vt 0.025817 0.901547
vt 0.759250 0.901512
vt 0.025917 0.901542
vt 0.772278 0.914547
vt 0.006159 0.927944
vt 0.013580 0.914571
vt 0.941197 0.560230
vt 0.781137 0.927938
vt 0.843504 0.444456
vt 0.067117 0.444467
vt 0.067112 0.064888
vt 0.602301 0.531071
vt 0.602301 0.821881
vt 0.020681 0.821881
vt 0.006159 0.958133
vt 0.843499 0.064878
vt 0.020681 0.531071
vn 0.000000 0.812400 0.583200
vn -1.000000 -0.000000 0.000000
vn 0.000000 1.000000 -0.000000
vn 0.000000 0.000000 -1.000000
vn 0.583200 0.812400 0.000000
vn 0.000000 0.000000 1.000000
vn -0.583200 0.812400 0.000000
vn 0.000000 0.812400 -0.583200
vn -0.000000 -1.000000 0.000000
vn 1.000000 -0.000000 0.000000
usemtl Platform
s off
f 6/1/1 2/2/1 4/3/1
f 14/4/2 5/5/2 6/6/2
f 3/7/3 7/8/3 8/9/3
f 16/3/3 15/7/3 11/8/3
f 14/10/4 13/2/4 10/1/4
f 8/11/3 7/12/3 15/13/3
f 11/14/3 3/13/3 4/15/3
f 10/16/5 12/17/5 4/15/5
f 6/1/6 5/18/6 1/10/6
f 16/15/7 13/19/7 6/6/7
f 12/9/8 10/1/8 13/2/8
f 15/20/3 7/21/3 3/22/3
f 14/23/9 9/24/9 1/25/9
f 2/19/10 1/4/10 9/26/10
f 8/9/1 6/1/1 4/3/1
f 13/19/2 14/4/2 6/6/2
f 4/3/3 3/7/3 8/9/3
f 12/9/3 16/3/3 11/8/3
f 9/18/4 14/10/4 10/1/4
f 16/15/3 8/11/3 15/13/3
f 12/17/3 11/14/3 4/15/3
f 2/19/5 10/16/5 4/15/5
f 2/2/6 6/1/6 1/10/6
f 8/11/7 16/15/7 6/6/7
f 16/3/8 12/9/8 13/2/8
f 11/27/3 15/20/3 3/22/3
f 5/28/9 14/23/9 1/25/9
f 10/16/10 2/19/10 9/26/10
