# Blender v2.73 (sub 0) OBJ File: 'Map.blend'
# www.blender.org
mtllib SideLab.mtl
o Side_Lab_SideLab
v -4.558704 0.619272 5.500302
v -4.558704 0.619272 2.498653
v -4.558704 -4.199378 2.498653
v -4.558704 -4.199378 5.500302
v -3.992042 0.619272 6.066965
v -3.992042 -4.199378 6.066965
v -4.558704 3.061843 2.498653
v -4.558704 3.061843 5.500302
v -5.725297 0.619272 2.498653
v -5.725297 -4.199378 2.498653
v 3.992042 0.619272 6.066965
v 3.992042 -4.199378 6.066965
v -3.992042 3.061843 6.066965
v 4.558709 3.061843 2.498653
v 3.992042 3.061843 6.066965
v 4.558709 3.061843 5.500302
v -5.725297 4.199378 2.498653
v -6.209375 0.619272 2.014577
v -6.209375 -4.199378 2.014577
v 4.558709 0.619272 5.500302
v 4.558709 -4.199378 5.500302
v -3.431087 1.926305 6.066965
v -3.431087 2.560606 6.066965
v -3.179875 2.666127 6.066965
v 3.125082 2.666127 6.066965
v 3.376293 2.560606 6.066965
v 3.376293 1.926305 6.066965
v 3.125082 1.820784 6.066965
v -3.179875 1.820784 6.066965
v 4.558709 0.619272 2.498653
v 5.725297 4.199378 2.498653
v -6.209375 4.199378 2.014577
v -6.209375 0.619272 -5.582888
v -6.209375 -4.199378 -5.582888
v 4.558709 -4.199378 2.498653
v 5.725297 0.619272 2.498653
v 6.209375 4.199378 2.014577
v 6.209375 4.199378 -5.582888
v 5.725297 4.199378 -6.066965
v -5.725297 4.199378 -6.066965
v -6.209375 4.199378 -5.582888
v -5.725297 0.619272 -6.066965
v -5.725297 -4.199378 -6.066965
v 5.725297 -4.199378 2.498653
v 6.209375 0.619272 2.014577
v 6.209375 0.619272 -5.582888
v 5.725297 0.619272 -6.066965
v -2.360966 2.709356 -6.066965
v -3.199869 2.709356 -6.066965
v -3.199869 3.128628 -6.066965
v -3.451080 3.234149 -6.066965
v -4.449227 3.234149 -6.066965
v -4.700438 3.128628 -6.066965
v -4.700438 2.709356 -6.066965
v -0.860396 3.128628 -6.066965
v -1.111608 3.234149 -6.066965
v -2.109754 3.234149 -6.066965
v -2.360966 3.128628 -6.066965
v 5.725297 -4.199378 -6.066965
v 6.209375 -4.199378 2.014577
v 6.209375 -4.199378 -5.582888
v -2.109754 2.603834 -6.066965
v -1.111608 2.603834 -6.066965
v -0.860396 2.709356 -6.066965
v -0.021493 2.709356 -6.066965
v 0.229719 2.603834 -6.066965
v 1.227865 2.603834 -6.066965
v 1.479077 2.709356 -6.066965
v 1.479077 3.128628 -6.066965
v -2.360966 3.128628 -5.448152
v -2.360966 2.709356 -5.448152
v -3.199869 2.709356 -5.448152
v -3.199869 3.128628 -5.448152
v -3.451080 3.234149 -5.448152
v -4.449227 3.234149 -5.448152
v -4.700438 3.128628 -5.448152
v -4.700438 2.709356 -5.448152
v -4.449227 2.603834 -6.066965
v -3.451080 2.603834 -6.066965
v 1.227865 3.234149 -6.066965
v 0.229719 3.234149 -6.066965
v -0.021493 3.128628 -6.066965
v -0.860396 3.128628 -5.448153
v -1.111608 3.234149 -5.448152
v -2.109754 3.234149 -5.448152
v 6.209375 -4.199378 -2.751410
v 5.795209 3.932134 -2.751410
v 5.795209 3.932134 -4.495509
v 6.209375 -4.199378 -4.495510
v -2.109754 2.603834 -5.448152
v -1.111608 2.603834 -5.448152
v -0.860396 2.709356 -5.448153
v -0.021493 2.709356 -5.448152
v 0.229719 2.603834 -5.448152
v 1.227865 2.603834 -5.448152
v 1.479077 2.709356 -5.448152
v 1.479077 3.128628 -5.448152
v -5.301667 3.429276 -5.448152
v -5.301667 0.619272 -5.448152
v 5.336114 0.619272 -5.448152
v 5.336114 3.429276 -5.448152
v -3.451080 2.603834 -5.448152
v -4.449227 2.603834 -5.448152
v 1.227865 3.234149 -5.448152
v 0.229719 3.234149 -5.448152
v -0.021493 3.128628 -5.448152
v 5.795209 0.619272 1.649355
v 5.795209 2.814339 1.649355
v 5.795209 3.429276 -4.989059
v 5.795209 3.932134 -4.989059
v 5.795209 3.932134 1.649355
v -5.760762 3.932134 -2.751410
v -5.760762 3.932134 -4.495509
v 5.795209 0.619272 -4.989059
v -5.760762 3.429276 -4.989059
v -5.760762 0.619272 -4.989059
v 5.336114 3.932134 -5.448152
v -5.301667 3.932134 -5.448152
v -5.760762 0.619272 -4.495510
v -5.760762 0.619272 -2.751410
v 4.178041 0.619272 2.108448
v 5.336114 0.619272 2.108448
v 5.336114 2.814339 2.108448
v -5.760762 3.932134 -4.989059
v 5.336114 3.932134 2.108448
v -5.301667 3.932134 2.108448
v -5.760762 3.932134 1.649355
v -5.760762 3.429276 -2.751410
v -5.760762 3.429276 -4.495509
v -4.254015 0.619272 2.108448
v 4.178041 2.814339 2.108448
v -4.254015 2.814339 2.108448
v -5.301667 2.814339 2.108448
v -5.760762 2.814339 1.649355
v -5.760762 0.619272 1.649355
v -4.254015 0.619272 5.236702
v -3.723768 0.619272 5.766950
v 3.647793 0.619272 5.766950
v 4.178041 0.619272 5.236702
v 4.178041 2.814339 5.236702
v 3.647793 2.814339 5.766950
v -3.723768 2.814339 5.766950
v -4.254015 2.814339 5.236702
v -5.301667 0.619272 2.108448
v -3.431087 1.926305 5.766950
v -3.179875 1.820784 5.766950
v 3.125082 1.820784 5.766950
v 3.376293 1.926305 5.766950
v 3.376293 2.560606 5.766950
v 3.125082 2.666127 5.766950
v -3.179875 2.666127 5.766950
v -3.431087 2.560606 5.766950
v 6.209375 3.441670 -2.597992
v 6.055957 3.441670 -2.751410
v 6.209375 3.441670 -2.906818
v 6.164441 3.441670 -2.706475
v 6.055957 3.441670 -4.495509
v 6.209375 3.441670 -4.648927
v 6.209375 3.441670 -4.342091
v 6.164441 3.441670 -4.540444
v 6.055957 0.619272 -2.751410
v 6.209375 0.619272 -2.597992
v 6.209375 0.619272 -2.904829
v 6.164441 0.619272 -2.706475
v 5.948627 3.441670 -2.751410
v 5.795209 3.441670 -2.597992
v 5.795209 3.441670 -2.904829
v 5.840145 3.441670 -2.706475
v 5.948627 3.441670 -4.495509
v 5.795209 3.441670 -4.342091
v 5.795209 3.441670 -4.648927
v 5.840145 3.441670 -4.540444
v 6.209375 0.619272 -4.648928
v 6.055957 0.619272 -4.495510
v 6.209375 0.619272 -4.342092
v 6.164441 0.619272 -4.540445
v 5.795209 0.619272 -2.597992
v 5.948627 0.619272 -2.751410
v 5.718500 0.619272 -2.828120
v 5.840145 0.619272 -2.706475
v 5.948627 0.619272 -4.495510
v 5.795209 0.619272 -4.648928
v 5.718500 0.619272 -4.418800
v 5.840145 0.619272 -4.540445
vt 0.317688 0.710037
vt 0.317688 0.528723
vt 0.389133 0.528723
vt 0.389132 0.710037
vt 0.408207 0.528723
vt 0.389132 0.801944
vt 0.019755 0.716699
vt 0.019755 0.535386
vt 0.047522 0.535386
vt 0.408207 0.710037
vt 0.598242 0.528724
vt 0.408207 0.801944
vt 0.438077 0.972460
vt 0.641600 0.887528
vt 0.628113 0.972460
vt 0.047522 0.808606
vt 0.019755 0.851408
vt 0.703387 0.345701
vt 0.703387 0.164388
vt 0.719682 0.164388
vt 0.598242 0.710037
vt 0.617317 0.528724
vt 0.427538 0.787054
vt 0.577607 0.787054
vt 0.577607 0.755246
vt 0.427538 0.755246
vt 0.688761 0.801944
vt 0.617317 0.801944
vt 0.617317 0.710037
vt 0.264533 0.808606
vt 0.292299 0.851408
vt 0.719681 0.480411
vt 0.703387 0.480411
vt 0.522554 0.345701
vt 0.522554 0.164388
vt 0.688761 0.528723
vt 0.264533 0.716698
vt 0.292300 0.716698
vt 0.964166 0.463476
vt 0.771811 0.474998
vt 0.760289 0.463476
vt 0.522553 0.480411
vt 0.506259 0.345701
vt 0.506259 0.164388
vt 0.264533 0.535385
vt 0.292300 0.535385
vt 0.020293 0.345702
vt 0.036587 0.345702
vt 0.036588 0.480411
vt 0.878234 0.954283
vt 0.983967 0.954283
vt 0.983967 0.956838
vt 0.217420 0.345701
vt 0.233715 0.345701
vt 0.233715 0.480411
vt 0.233714 0.164388
vt 0.020292 0.164389
vt 0.036587 0.164389
vt 0.187888 0.453478
vt 0.195191 0.453478
vt 0.217421 0.480411
vt 0.730989 0.954283
vt 0.836721 0.954283
vt 0.836721 0.956838
vt 0.217420 0.164388
vt 0.179311 0.056570
vt 0.179311 0.041841
vt 0.195087 0.041841
vt 0.141198 0.041841
vt 0.141198 0.056570
vt 0.125422 0.056570
vt 0.125422 0.041841
vt 0.118245 0.056570
vt 0.094487 0.056570
vt 0.094487 0.041841
vt 0.118245 0.041841
vt 0.195087 0.056570
vt 0.202265 0.041841
vt 0.202265 0.056570
vt 0.172134 0.056570
vt 0.148376 0.056570
vt 0.148376 0.041841
vt 0.172134 0.041841
vt 0.744194 0.799081
vt 0.740543 0.792875
vt 0.742368 0.787397
vt 0.785252 0.017486
vt 0.886347 0.017484
vt 0.886348 0.100079
vt 0.182324 0.508993
vt 0.223837 0.508993
vt 0.223837 0.784045
vt 0.444236 0.123219
vt 0.444236 0.017486
vt 0.459690 0.017486
vt 0.717868 0.778296
vt 0.717866 0.525101
vt 0.728793 0.514174
vt 0.712888 0.123220
vt 0.712887 0.017487
vt 0.728340 0.017487
vt 0.901801 0.017484
vt 0.901802 0.100079
vt 0.728342 0.123220
vt 0.728342 0.142141
vt 0.712888 0.142141
vt 0.246512 0.519920
vt 0.246512 0.773118
vt 0.901803 0.142139
vt 0.886349 0.142139
vt 0.182324 0.784045
vt 0.066651 0.773118
vt 0.066651 0.519920
vt 0.432488 0.123218
vt 0.432488 0.142140
vt 0.390976 0.142140
vt 0.459689 0.123219
vt 0.459689 0.142140
vt 0.444236 0.142140
vt 0.390976 0.123218
vt 0.390976 0.017486
vt 0.886798 0.789221
vt 0.897725 0.750730
vt 0.897725 0.778294
vt 0.045144 0.017484
vt 0.045144 0.100078
vt 0.017579 0.100078
vt 0.017579 0.142138
vt 0.245841 0.100079
vt 0.270777 0.142139
vt 0.286230 0.100079
vt 0.286230 0.142139
vt 0.886796 0.514173
vt 0.897724 0.550035
vt 0.782052 0.514173
vt 0.984801 0.562656
vt 0.286231 0.017485
vt 0.016417 0.888934
vt 0.090876 0.888934
vt 0.090876 0.971529
vt 0.756401 0.815155
vt 0.957098 0.815155
vt 0.944478 0.902234
vt 0.270777 0.100079
vt 0.897723 0.525100
vt 0.376486 0.971529
vt 0.302028 0.971529
vt 0.302029 0.888934
vt 0.284180 0.971529
vt 0.284180 0.888934
vt 0.271234 0.934144
vt 0.121166 0.934144
vt 0.108725 0.888934
vt 0.271234 0.965952
vt 0.108724 0.971529
vt 0.270777 0.017485
vt 0.518048 0.848250
vt 0.518049 0.841109
vt 0.668118 0.841109
vt 0.675295 0.841109
vt 0.675295 0.848250
vt 0.668117 0.848250
vt 0.510871 0.848250
vt 0.510871 0.841109
vt 0.699162 0.841109
vt 0.487004 0.848250
vt 0.699162 0.848250
vt 0.706339 0.841109
vt 0.487004 0.841109
vt 0.479826 0.848250
vt 0.329755 0.848250
vt 0.329755 0.841109
vt 0.479826 0.841109
vt 0.475886 0.420375
vt 0.452128 0.420375
vt 0.583586 0.783084
vt 0.598242 0.801944
vt 0.506259 0.480411
vt 0.420202 0.444092
vt 0.452128 0.444092
vt 0.420202 0.420375
vt 0.481865 0.424345
vt 0.340761 0.444092
vt 0.364519 0.444092
vt 0.421559 0.759217
vt 0.421559 0.783084
vt 0.475886 0.444092
vt 0.481865 0.440122
vt 0.396445 0.444092
vt 0.340761 0.420375
vt 0.364519 0.420375
vt 0.334781 0.440121
vt 0.334782 0.424345
vt 0.396445 0.420375
vt 0.446149 0.424345
vt 0.426182 0.440121
vt 0.446149 0.440121
vt 0.426182 0.424345
vt 0.390465 0.424345
vt 0.370498 0.424345
vt 0.370498 0.440121
vt 0.390465 0.440121
vt 0.583586 0.759217
vt 0.277214 0.938114
vt 0.115187 0.938114
vt 0.115187 0.961981
vt 0.277214 0.961981
vt 0.121166 0.965952
vt 0.529683 0.096130
vt 0.509716 0.096130
vt 0.503737 0.092160
vt 0.509716 0.111906
vt 0.529683 0.111906
vt 0.535662 0.115877
vt 0.559420 0.092160
vt 0.591346 0.092160
vt 0.585367 0.096131
vt 0.565399 0.111907
vt 0.565399 0.096131
vt 0.559420 0.115877
vt 0.585367 0.111907
vt 0.474000 0.096130
vt 0.474000 0.111906
vt 0.621083 0.096131
vt 0.535662 0.092160
vt 0.479979 0.092160
vt 0.615104 0.092160
vt 0.479979 0.115877
vt 0.503736 0.115877
vt 0.591346 0.115877
vt 0.621083 0.111907
vt 0.615104 0.115877
vt 0.115865 0.561050
vt 0.119360 0.559602
vt 0.125815 0.561050
vt 0.178450 0.559602
vt 0.181945 0.561050
vt 0.172059 0.561050
vt 0.739473 0.798011
vt 0.740543 0.795429
vt 0.783125 0.790292
vt 0.782055 0.792874
vt 0.780229 0.787397
vt 0.984240 0.959420
vt 0.878234 0.959420
vt 0.148957 0.451707
vt 0.146375 0.452367
vt 0.146375 0.345701
vt 0.836721 0.959420
vt 0.729791 0.959420
vt 0.192608 0.345701
vt 0.195190 0.345701
vt 0.195191 0.455522
vt 0.785254 0.122412
vt 0.782672 0.122983
vt 0.782670 0.017486
vt 0.983731 0.951701
vt 0.836721 0.951701
vt 0.146375 0.453478
vt 0.728796 0.789223
vt 0.740540 0.514174
vt 0.736891 0.789223
vt 0.782055 0.795429
vt 0.783125 0.798011
vt 0.778404 0.799080
vt 0.191538 0.164388
vt 0.153678 0.345701
vt 0.150026 0.164388
vt 0.187887 0.345701
vt 0.743741 0.123220
vt 0.777951 0.123219
vt 0.781603 0.142140
vt 0.740089 0.128992
vt 0.740089 0.142141
vt 0.781602 0.128992
vt 0.736436 0.017487
vt 0.785707 0.789222
vt 0.785707 0.799080
vt 0.119360 0.549154
vt 0.115865 0.547706
vt 0.125751 0.547706
vt 0.739473 0.790292
vt 0.736438 0.123220
vt 0.739018 0.017487
vt 0.736891 0.799081
vt 0.181945 0.547706
vt 0.178450 0.549154
vt 0.172059 0.547706
vt 0.153726 0.453478
vt 0.177002 0.556107
vt 0.177002 0.552649
vt 0.120808 0.552649
vt 0.120808 0.556107
vt 0.317688 0.801944
vt 0.047522 0.716699
vt 0.424590 0.958973
vt 0.424590 0.887528
vt 0.641600 0.958973
vt 0.719682 0.345701
vt 0.688761 0.710037
vt 0.760289 0.190932
vt 0.964166 0.190932
vt 0.771811 0.179410
vt 0.952644 0.179410
vt 0.952644 0.474998
vt 0.020294 0.480411
vt 0.878234 0.956838
vt 0.730989 0.956838
vt 0.235584 0.784045
vt 0.235584 0.508993
vt 0.077578 0.508993
vt 0.077578 0.784045
vt 0.432489 0.017486
vt 0.017580 0.017484
vt 0.984802 0.738110
vt 0.972181 0.750730
vt 0.972181 0.550035
vt 0.016417 0.971529
vt 0.769021 0.902234
vt 0.756400 0.889613
vt 0.957098 0.889613
vt 0.376486 0.888935
vt 0.245841 0.017485
vt 0.706339 0.848250
vt 0.148957 0.345701
vt 0.192609 0.452631
vt 0.878234 0.951701
vt 0.730989 0.951701
vt 0.739020 0.123220
vn -1.000000 0.000000 0.000000
vn -0.707100 0.000000 0.707100
vn 0.000000 0.000000 1.000000
vn 0.000000 1.000000 0.000000
vn 0.707100 0.000000 0.707100
vn 1.000000 0.000000 0.000000
vn -0.707100 0.000000 -0.707100
vn 0.000000 0.000000 -1.000000
vn 0.707100 0.000000 -0.707100
vn -0.387300 -0.922000 0.000000
vn 0.000000 -1.000000 0.000000
vn 0.387300 -0.922000 0.000000
vn 0.387300 0.922000 0.000000
vn -0.387300 0.922000 0.000000
vn 0.382700 0.000000 -0.923900
vn 0.923900 0.000000 -0.382700
vn 0.382700 -0.000000 0.923900
vn 0.923900 -0.000000 0.382700
vn -0.923900 0.000000 -0.382700
vn -0.382700 0.000000 -0.923900
vn -0.382700 -0.000000 0.923900
vn -0.923900 0.000000 0.382700
usemtl SideLab
s off
f 2/1/1 3/2/1 4/3/1
f 1/4/2 4/3/2 6/5/2
f 2/1/1 1/4/1 8/6/1
f 9/7/3 10/8/3 3/9/3
f 5/10/3 6/5/3 12/11/3
f 13/12/2 8/6/2 1/4/2
f 15/13/4 7/14/4 13/15/4
f 7/16/3 17/17/3 9/7/3
f 18/18/2 19/19/2 10/20/2
f 11/21/5 12/11/5 21/22/5
f 13/12/3 24/23/3 25/24/3
f 5/10/3 28/25/3 29/26/3
f 14/27/6 16/28/6 20/29/6
f 7/16/3 14/30/3 31/31/3
f 11/21/5 20/29/5 16/28/5
f 17/32/2 32/33/2 18/18/2
f 33/34/1 34/35/1 19/19/1
f 20/29/6 21/22/6 35/36/6
f 14/30/3 30/37/3 36/38/3
f 31/39/4 38/40/4 39/41/4
f 41/42/1 33/34/1 18/18/1
f 42/43/7 43/44/7 34/35/7
f 30/37/3 35/45/3 44/46/3
f 36/47/5 45/48/5 37/49/5
f 178/50/8 165/51/8 154/52/8
f 46/53/9 47/54/9 39/55/9
f 42/43/7 33/34/7 41/42/7
f 47/54/8 59/56/8 43/44/8
f 36/47/5 44/57/5 60/58/5
f 159/59/6 158/60/6 38/61/6
f 169/62/3 181/63/3 174/64/3
f 46/53/9 61/65/9 59/56/9
f 71/66/6 48/67/6 58/68/6
f 49/69/1 72/70/1 73/71/1
f 50/72/10 73/71/10 74/73/10
f 75/74/11 52/75/11 51/76/11
f 76/77/12 53/68/12 52/78/12
f 77/66/6 54/67/6 53/68/6
f 56/76/10 55/72/10 83/71/10
f 85/74/11 57/75/11 56/76/11
f 85/79/12 70/77/12 58/68/12
f 46/53/6 38/61/6 158/60/6
f 48/67/13 71/66/13 90/80/13
f 91/81/4 63/82/4 62/83/4
f 92/70/14 64/69/14 63/82/14
f 65/67/13 93/66/13 94/80/13
f 95/81/4 67/82/4 66/83/4
f 96/70/14 68/69/14 67/82/14
f 68/69/1 96/70/1 97/71/1
f 72/70/14 49/69/14 79/82/14
f 54/67/13 77/66/13 103/80/13
f 102/81/4 79/82/4 78/83/4
f 69/72/10 97/71/10 104/73/10
f 105/74/11 81/75/11 80/76/11
f 106/77/12 82/68/12 81/78/12
f 93/66/6 65/67/6 82/68/6
f 64/69/1 92/70/1 83/71/1
f 175/84/4 181/85/4 183/86/4
f 177/87/1 107/88/1 108/89/1
f 112/90/11 113/91/11 88/92/11
f 115/93/5 116/94/5 99/95/5
f 100/96/4 99/97/4 116/98/4
f 101/99/2 100/100/2 114/101/2
f 122/102/7 123/103/7 108/89/7
f 109/104/2 110/105/2 117/106/2
f 88/92/11 118/107/11 117/108/11
f 123/103/7 125/109/7 111/110/7
f 87/111/11 125/112/11 126/113/11
f 129/114/6 113/115/6 112/116/6
f 98/117/5 118/118/5 124/119/5
f 116/94/6 115/93/6 129/114/6
f 129/114/6 128/120/6 120/121/6
f 107/122/4 121/123/4 122/124/4
f 121/125/8 131/126/8 123/127/8
f 115/93/6 124/119/6 113/115/6
f 123/127/8 131/126/8 125/128/8
f 131/126/8 132/129/8 126/130/8
f 134/131/9 127/132/9 126/130/9
f 128/120/6 112/116/6 127/132/6
f 135/133/4 130/134/4 120/135/4
f 121/123/4 130/134/4 137/136/4
f 134/131/6 135/137/6 120/121/6
f 121/138/1 139/139/1 140/140/1
f 132/141/11 131/142/11 141/143/11
f 132/129/8 133/144/8 126/130/8
f 135/137/9 134/131/9 133/144/9
f 135/133/4 144/145/4 130/134/4
f 132/146/6 143/147/6 136/148/6
f 143/147/9 142/149/9 137/150/9
f 146/151/8 147/152/8 138/153/8
f 151/154/8 142/149/8 141/155/8
f 141/155/7 140/140/7 139/139/7
f 144/156/8 133/144/8 132/129/8
f 28/157/4 147/158/4 146/159/4
f 145/160/13 22/161/13 29/162/13
f 27/163/14 148/164/14 147/158/14
f 22/161/6 145/160/6 152/165/6
f 148/164/1 27/163/1 26/166/1
f 23/167/12 152/165/12 151/168/12
f 149/169/10 26/166/10 25/170/10
f 24/171/11 151/172/11 150/173/11
f 42/43/8 78/174/8 79/175/8
f 25/24/3 26/176/3 15/177/3
f 40/178/8 57/179/8 51/180/8
f 62/181/8 42/43/8 79/175/8
f 26/176/3 11/21/3 15/177/3
f 42/43/8 54/182/8 78/174/8
f 39/55/8 80/183/8 81/184/8
f 13/12/3 22/185/3 23/186/3
f 52/187/8 40/178/8 51/180/8
f 52/187/8 53/188/8 40/178/8
f 56/189/8 39/55/8 81/184/8
f 67/190/8 47/54/8 66/191/8
f 39/55/8 69/192/8 80/183/8
f 15/177/3 13/12/3 25/24/3
f 67/190/8 68/193/8 47/54/8
f 47/54/8 63/194/8 66/191/8
f 39/55/8 47/54/8 68/193/8
f 54/182/8 42/43/8 40/178/8
f 42/43/8 62/181/8 63/194/8
f 40/178/8 39/55/8 56/189/8
f 62/181/8 79/175/8 49/195/8
f 51/180/8 57/179/8 58/196/8
f 50/197/8 58/196/8 48/198/8
f 63/194/8 64/199/8 65/200/8
f 13/12/3 23/186/3 24/23/3
f 56/189/8 81/184/8 82/201/8
f 65/200/8 64/199/8 55/202/8
f 22/185/3 13/12/3 5/10/3
f 11/21/3 26/176/3 27/203/3
f 11/21/3 27/203/3 28/25/3
f 29/26/3 22/185/3 5/10/3
f 5/10/3 11/21/3 28/25/3
f 137/150/8 142/149/8 145/204/8
f 148/205/8 141/155/8 138/153/8
f 137/150/8 145/204/8 146/151/8
f 147/152/8 148/205/8 138/153/8
f 138/153/8 137/150/8 146/151/8
f 141/155/8 148/205/8 149/206/8
f 152/207/8 145/204/8 142/149/8
f 141/155/8 149/206/8 150/208/8
f 151/154/8 152/207/8 142/149/8
f 150/208/8 151/154/8 141/155/8
f 71/209/3 72/210/3 102/211/3
f 73/212/3 70/213/3 85/214/3
f 73/212/3 72/210/3 71/209/3
f 91/215/3 94/216/3 93/217/3
f 83/218/3 92/219/3 93/217/3
f 84/220/3 83/218/3 106/221/3
f 77/222/3 76/223/3 98/117/3
f 96/224/3 100/100/3 101/99/3
f 91/215/3 90/225/3 99/95/3
f 103/226/3 77/222/3 99/95/3
f 103/226/3 99/95/3 102/211/3
f 100/100/3 96/224/3 95/227/3
f 91/215/3 100/100/3 94/216/3
f 99/95/3 90/225/3 102/211/3
f 84/220/3 117/106/3 118/118/3
f 98/117/3 76/223/3 75/228/3
f 100/100/3 95/227/3 94/216/3
f 85/214/3 118/118/3 74/229/3
f 98/117/3 75/228/3 118/118/3
f 117/106/3 84/220/3 105/230/3
f 118/118/3 75/228/3 74/229/3
f 101/99/3 117/106/3 97/231/3
f 117/106/3 104/232/3 97/231/3
f 104/232/3 117/106/3 105/230/3
f 153/233/11 156/234/11 155/235/11
f 160/236/11 158/237/11 159/238/11
f 176/239/4 174/240/4 175/84/4
f 180/241/4 178/242/4 179/243/4
f 154/52/15 156/244/15 164/245/15
f 156/246/16 153/247/16 162/248/16
f 174/64/17 176/249/17 160/250/17
f 176/251/18 173/252/18 158/253/18
f 166/254/19 168/255/19 180/256/19
f 168/257/20 165/51/20 178/50/20
f 184/258/21 181/63/21 169/62/21
f 45/48/6 162/248/6 153/259/6
f 114/260/4 116/98/4 119/261/4
f 182/262/4 114/260/4 119/261/4
f 161/263/4 164/264/4 163/265/4
f 89/266/6 163/267/6 86/268/6
f 89/266/6 175/269/6 163/267/6
f 170/270/1 167/271/1 87/272/1
f 171/273/1 170/270/1 88/274/1
f 162/248/6 45/48/6 60/58/6
f 89/266/6 173/252/6 175/269/6
f 166/254/1 108/89/1 111/110/1
f 183/86/4 119/261/4 120/135/4
f 87/272/1 167/271/1 166/275/1
f 109/104/1 114/101/1 182/276/1
f 171/273/1 88/274/1 110/105/1
f 173/252/6 89/266/6 61/65/6
f 121/123/4 177/277/4 179/243/4
f 182/262/4 119/261/4 183/86/4
f 121/123/4 107/122/4 177/277/4
f 164/264/4 162/278/4 163/265/4
f 168/279/11 166/280/11 167/281/11
f 184/282/4 182/262/4 183/86/4
f 171/283/22 182/276/22 184/284/22
f 181/85/4 184/282/4 183/86/4
f 177/277/4 180/241/4 179/243/4
f 121/123/4 179/243/4 120/135/4
f 173/285/4 176/239/4 175/84/4
f 163/267/6 162/248/6 86/268/6
f 171/286/11 172/287/11 170/288/11
f 38/61/6 37/49/6 153/259/6
f 159/59/6 38/61/6 155/289/6
f 38/61/6 153/259/6 155/289/6
f 160/236/11 159/238/11 157/290/11
f 169/291/11 170/288/11 172/287/11
f 157/290/11 159/238/11 170/288/11
f 155/235/11 167/281/11 170/288/11
f 165/292/11 167/281/11 155/235/11
f 168/279/11 167/281/11 165/292/11
f 156/234/11 154/293/11 155/235/11
f 1/4/1 2/1/1 4/3/1
f 5/10/2 1/4/2 6/5/2
f 7/294/1 2/1/1 8/6/1
f 2/295/3 9/7/3 3/9/3
f 11/21/3 5/10/3 12/11/3
f 5/10/2 13/12/2 1/4/2
f 15/13/4 16/296/4 14/297/4
f 14/297/4 7/14/4 15/13/4
f 13/15/4 7/14/4 8/298/4
f 2/295/3 7/16/3 9/7/3
f 9/299/2 18/18/2 10/20/2
f 20/29/5 11/21/5 21/22/5
f 30/300/6 14/27/6 20/29/6
f 17/17/3 7/16/3 31/31/3
f 15/177/5 11/21/5 16/28/5
f 9/299/2 17/32/2 18/18/2
f 18/18/1 33/34/1 19/19/1
f 30/300/6 20/29/6 35/36/6
f 31/31/3 14/30/3 36/38/3
f 40/301/4 17/302/4 31/39/4
f 40/301/4 41/303/4 32/304/4
f 31/39/4 39/41/4 40/301/4
f 31/39/4 37/305/4 38/40/4
f 40/301/4 32/304/4 17/302/4
f 32/33/1 41/42/1 18/18/1
f 33/34/7 42/43/7 34/35/7
f 36/38/3 30/37/3 44/46/3
f 31/306/5 36/47/5 37/49/5
f 161/307/8 178/50/8 154/52/8
f 38/61/9 46/53/9 39/55/9
f 40/178/7 42/43/7 41/42/7
f 42/43/8 47/54/8 43/44/8
f 45/48/5 36/47/5 60/58/5
f 157/308/3 169/62/3 174/64/3
f 47/54/9 46/53/9 59/56/9
f 70/77/6 71/66/6 58/68/6
f 50/72/1 49/69/1 73/71/1
f 51/76/10 50/72/10 74/73/10
f 74/73/11 75/74/11 51/76/11
f 75/79/12 76/77/12 52/78/12
f 76/77/6 77/66/6 53/68/6
f 84/73/10 56/76/10 83/71/10
f 84/73/11 85/74/11 56/76/11
f 57/78/12 85/79/12 58/68/12
f 173/252/6 46/53/6 158/60/6
f 62/83/13 48/67/13 90/80/13
f 90/80/4 91/81/4 62/83/4
f 91/81/14 92/70/14 63/82/14
f 66/83/13 65/67/13 94/80/13
f 94/80/4 95/81/4 66/83/4
f 95/81/14 96/70/14 67/82/14
f 69/72/1 68/69/1 97/71/1
f 102/81/14 72/70/14 79/82/14
f 78/83/13 54/67/13 103/80/13
f 103/80/4 102/81/4 78/83/4
f 80/76/10 69/72/10 104/73/10
f 104/73/11 105/74/11 80/76/11
f 105/79/12 106/77/12 81/78/12
f 106/77/6 93/66/6 82/68/6
f 55/72/1 64/69/1 83/71/1
f 179/243/4 163/265/4 175/84/4
f 163/265/4 178/242/4 161/263/4
f 175/84/4 183/86/4 179/243/4
f 175/84/4 174/240/4 181/85/4
f 179/243/4 178/242/4 163/265/4
f 166/254/1 177/87/1 108/89/1
f 87/111/11 112/90/11 88/92/11
f 98/117/5 115/93/5 99/95/5
f 114/260/4 100/96/4 116/98/4
f 109/104/2 101/99/2 114/101/2
f 107/88/7 122/102/7 108/89/7
f 101/99/2 109/104/2 117/106/2
f 118/107/11 88/92/11 113/91/11
f 88/92/11 117/108/11 110/309/11
f 113/91/11 124/310/11 118/107/11
f 108/89/7 123/103/7 111/110/7
f 126/113/11 112/90/11 87/111/11
f 112/90/11 126/113/11 127/311/11
f 87/111/11 111/312/11 125/112/11
f 128/120/6 129/114/6 112/116/6
f 115/93/5 98/117/5 124/119/5
f 119/313/6 116/94/6 129/114/6
f 119/313/6 129/114/6 120/121/6
f 122/314/8 121/125/8 123/127/8
f 129/114/6 115/93/6 113/115/6
f 125/128/8 131/126/8 126/130/8
f 133/144/9 134/131/9 126/130/9
f 134/131/6 128/120/6 127/132/6
f 138/315/4 139/316/4 121/123/4
f 121/123/4 137/136/4 138/315/4
f 137/136/4 130/134/4 136/317/4
f 128/120/6 134/131/6 120/121/6
f 131/318/1 121/138/1 140/140/1
f 142/319/11 143/320/11 132/141/11
f 132/141/11 141/143/11 142/319/11
f 141/143/11 131/142/11 140/321/11
f 144/156/9 135/137/9 133/144/9
f 130/322/6 132/146/6 136/148/6
f 136/148/9 143/147/9 137/150/9
f 138/153/7 141/155/7 139/139/7
f 130/323/8 144/156/8 132/129/8
f 29/162/4 28/157/4 146/159/4
f 146/159/13 145/160/13 29/162/13
f 28/157/14 27/163/14 147/158/14
f 23/167/6 22/161/6 152/165/6
f 149/169/1 148/164/1 26/166/1
f 24/324/12 23/167/12 151/168/12
f 150/173/10 149/169/10 25/170/10
f 25/170/11 24/171/11 150/173/11
f 69/192/8 39/55/8 68/193/8
f 53/188/8 54/182/8 40/178/8
f 47/54/8 42/43/8 63/194/8
f 57/179/8 40/178/8 56/189/8
f 48/198/8 62/181/8 49/195/8
f 50/197/8 51/180/8 58/196/8
f 49/195/8 50/197/8 48/198/8
f 66/191/8 63/194/8 65/200/8
f 55/202/8 56/189/8 82/201/8
f 82/201/8 65/200/8 55/202/8
f 90/225/3 71/209/3 102/211/3
f 74/229/3 73/212/3 85/214/3
f 70/213/3 73/212/3 71/209/3
f 92/219/3 91/215/3 93/217/3
f 106/221/3 83/218/3 93/217/3
f 105/230/3 84/220/3 106/221/3
f 99/95/3 77/222/3 98/117/3
f 97/231/3 96/224/3 101/99/3
f 100/100/3 91/215/3 99/95/3
f 85/214/3 84/220/3 118/118/3
f 161/307/15 154/52/15 164/245/15
f 164/325/16 156/246/16 162/248/16
f 157/308/17 174/64/17 160/250/17
f 160/326/18 176/251/18 158/253/18
f 177/87/19 166/254/19 180/256/19
f 180/327/20 168/257/20 178/50/20
f 172/328/21 184/258/21 169/62/21
f 37/49/6 45/48/6 153/259/6
f 88/274/1 170/270/1 87/272/1
f 86/268/6 162/248/6 60/58/6
f 87/272/1 166/254/1 111/110/1
f 179/243/4 183/86/4 120/135/4
f 171/283/1 109/104/1 182/276/1
f 109/104/1 171/273/1 110/105/1
f 46/53/6 173/252/6 61/65/6
f 172/329/22 171/283/22 184/284/22
f 130/134/4 121/123/4 120/135/4
f 169/291/11 157/290/11 170/288/11
f 159/238/11 155/235/11 170/288/11
f 154/293/11 165/292/11 155/235/11
