# Blender v2.73 (sub 0) OBJ File: 'Map.blend'
# www.blender.org
mtllib SidePlatformRamp.mtl
o SidePlatformRamp
v -0.972145 2.597877 -4.855870
v -0.972150 -2.324251 2.911577
v 1.241807 -2.324251 2.911577
v 1.241812 2.597877 -4.855870
v -0.877026 2.548526 -5.125534
v 1.146693 2.548526 -5.125534
v 1.241812 2.488839 -4.390374
v 1.241811 -2.324251 5.125534
v -0.972148 -2.324251 5.125534
v -0.972145 2.488839 -4.390374
v -1.241811 -2.373602 5.030415
v -1.241812 -2.373602 3.006696
v -0.972145 2.276114 -4.481932
v -0.972145 2.365044 -4.861586
v 1.241812 2.365044 -4.861586
v 1.241812 2.276114 -4.481932
v -0.877026 2.324251 -5.084489
v 1.146693 2.324251 -5.084489
v -0.953123 -2.552924 2.845941
v 1.241807 -2.552251 2.843194
v -0.951457 -2.552251 5.125534
v 1.241811 -2.552251 5.125534
v -1.200767 -2.597877 5.030415
v -1.200768 -2.597877 3.006696
vt 0.685911 0.132723
vt 0.716031 0.132723
vt 0.716031 0.345600
vt 0.730633 0.141869
vt 0.730633 0.336454
vt 0.134937 0.132723
vt 0.685911 0.345600
vt 0.004801 0.345600
vt 0.004801 0.132723
vt 0.128098 0.371529
vt 0.009144 0.371529
vt 0.398849 0.167249
vt 0.603788 0.167243
vt 0.603789 0.190893
vt 0.407654 0.155628
vt 0.594983 0.155623
vt 0.400663 0.723179
vt 0.398850 0.190899
vt 0.603840 0.723001
vt 0.603840 0.852156
vt 0.400817 0.852162
vt 0.377739 0.847891
vt 0.377739 0.733372
vt 0.739578 0.272025
vt 0.717903 0.269183
vt 0.723239 0.258268
vt 0.741995 0.264489
vt 0.808320 0.147838
vt 0.831336 0.147838
vt 0.852162 0.150112
vt 0.848211 0.166290
vt 0.831065 0.299620
vt 0.827077 0.165255
vt 0.625507 0.724057
vt 0.717903 0.845182
vt 0.699090 0.851548
vt 0.603840 0.726682
vt 0.696530 0.191108
vt 0.827077 0.807076
vt 0.805792 0.806035
vt 0.691733 0.147838
vt 0.707473 0.161665
vt 0.688023 0.167854
vt 0.594981 0.147838
vt 0.800192 0.849219
vt 0.783536 0.840614
vt 0.797120 0.829275
vt 0.717903 0.190177
vt 0.816443 0.835572
vt 0.134937 0.345601
vt 0.827077 0.154059
vt 0.852162 0.299399
vt 0.674941 0.156346
vt 0.407652 0.147844
vn 0.000000 0.973600 0.228100
vn 0.000000 0.983700 -0.180000
vn 0.000000 0.834900 0.550300
vn 0.000000 1.000000 0.000000
vn -0.180000 0.983700 0.000000
vn 0.000000 -0.973600 -0.228100
vn 0.000000 -0.983700 0.180000
vn 0.000000 -0.835000 -0.550300
vn 0.000300 -1.000000 0.000000
vn 0.180000 -0.983700 -0.000000
vn -0.558500 0.185600 -0.808500
vn -0.983700 -0.180000 0.000000
vn -0.345600 -0.063300 0.936200
vn 0.000000 0.000000 1.000000
vn 1.000000 0.000000 -0.000000
vn -1.000000 0.000000 -0.000000
vn 0.942500 0.008200 -0.334000
vn 0.000000 -0.180000 -0.983700
vn -0.922100 -0.069700 -0.380700
vn -0.000400 -0.834900 -0.550300
vn 0.000000 -1.000000 0.000300
vn 0.178700 -0.983900 0.000200
vn -0.322400 -0.059000 -0.944700
vn -0.327700 -0.029700 0.944300
vn -0.996600 -0.070400 -0.043800
vn 0.922100 -0.069700 -0.380700
vn -0.942500 0.008200 -0.334000
usemtl Bridge
s off
f 7/1/1 4/2/1 1/3/1
f 6/4/2 5/5/2 1/3/2
f 3/6/3 7/1/3 10/7/3
f 9/8/4 8/9/4 3/6/4
f 12/10/5 11/11/5 9/8/5
f 14/12/6 15/13/6 16/14/6
f 14/12/7 17/15/7 18/16/7
f 19/17/8 13/18/8 16/14/8
f 19/17/9 20/19/9 22/20/9
f 21/21/10 23/22/10 24/23/10
f 2/24/11 19/25/11 24/26/11
f 12/27/12 24/26/12 23/28/12
f 11/29/13 23/30/13 21/31/13
f 8/32/14 9/33/14 21/31/14
f 3/34/15 8/35/15 22/36/15
f 3/34/15 20/37/15 16/38/15
f 2/24/16 10/39/16 13/40/16
f 6/41/17 4/42/17 15/43/17
f 6/44/18 18/16/18 17/15/18
f 5/45/19 17/46/19 14/47/19
f 7/48/15 16/38/15 15/43/15
f 10/39/16 1/49/16 14/47/16
f 10/7/1 7/1/1 1/3/1
f 4/2/2 6/4/2 1/3/2
f 2/50/3 3/6/3 10/7/3
f 2/50/4 9/8/4 3/6/4
f 2/50/5 12/10/5 9/8/5
f 13/18/6 14/12/6 16/14/6
f 15/13/7 14/12/7 18/16/7
f 20/19/20 19/17/20 16/14/20
f 21/21/21 19/17/21 22/20/21
f 19/17/22 21/21/22 24/23/22
f 12/27/23 2/24/23 24/26/23
f 11/51/12 12/27/12 23/28/12
f 9/33/24 11/29/24 21/31/24
f 22/52/14 8/32/14 21/31/14
f 20/37/15 3/34/15 22/36/15
f 7/48/15 3/34/15 16/38/15
f 19/25/25 2/24/25 13/40/25
f 18/53/26 6/41/26 15/43/26
f 5/54/18 6/44/18 17/15/18
f 1/49/27 5/45/27 14/47/27
f 4/42/15 7/48/15 15/43/15
f 13/40/16 10/39/16 14/47/16
