# Blender v2.73 (sub 0) OBJ File: 'Map.blend'
# www.blender.org
mtllib Tank.mtl
o Tank
v 2.868413 -2.970419 -1.188135
v 2.868413 -2.970419 1.188135
v 1.188136 -2.970419 2.868413
v -1.188135 -2.970419 2.868413
v -2.868413 -2.970419 1.188136
v -2.868413 -2.970419 -1.188135
v -1.188136 -2.970419 -2.868413
v 1.188135 -2.970419 -2.868413
v -2.457557 -5.950706 3.267205
v -3.267205 -5.950706 2.457557
v -3.267205 -5.950706 -2.457557
v -2.457557 -5.950706 -3.267205
v 2.457557 -5.950706 -3.267205
v 3.267205 -5.950706 -2.457557
v 3.267205 -5.950706 2.457557
v 2.457557 -5.950706 3.267205
v -3.267205 -0.470300 2.457557
v -2.457557 -0.470300 3.267205
v 2.457557 -0.470300 3.267205
v 3.267205 -0.470300 2.457557
v -2.457556 -0.470300 -3.267205
v -3.267204 -0.470300 -2.457557
v 3.267205 -0.470300 -2.457556
v 2.457557 -0.470300 -3.267204
v 1.987282 1.933164 -4.797723
v -1.987282 1.933164 -4.797723
v -4.797723 1.933164 -1.987282
v -4.797723 1.933164 1.987282
v -1.987281 1.933164 4.797724
v 1.987283 1.933164 4.797723
v 4.797723 1.933164 1.987282
v 4.797723 1.933164 -1.987282
v 1.629902 1.933164 -3.934932
v -1.629903 1.933164 -3.934932
v -3.934932 1.933164 -1.629902
v -3.934932 1.933164 1.629903
v -1.629902 1.933164 3.934932
v 1.629903 1.933164 3.934932
v 3.934932 1.933164 1.629902
v 3.934932 1.933164 -1.629902
v 1.491662 3.839085 -3.601191
v -1.491662 3.839085 -3.601191
v -3.601191 3.839085 -1.491662
v -3.601191 3.839085 1.491663
v -1.491662 3.839085 3.601191
v 1.491663 3.839085 3.601191
v 3.601191 3.839085 1.491662
v 3.601191 3.839085 -1.491662
v 1.098661 5.294900 -2.652404
v -1.098662 5.294900 -2.652403
v -2.652404 5.294900 -1.098661
v -2.652403 5.294900 1.098662
v -1.098661 5.294900 2.652404
v 1.098662 5.294900 2.652403
v 2.652404 5.294900 1.098662
v 2.652404 5.294900 -1.098662
v 0.622626 5.760728 -1.503152
v -0.622626 5.760728 -1.503152
v -1.503152 5.760728 -0.622626
v -1.503152 5.760728 0.622626
v -0.622626 5.760728 1.503152
v 0.622626 5.760728 1.503152
v 1.503152 5.760728 0.622626
v 1.503152 5.760728 -0.622626
v 0.000000 5.950706 0.000000
v 2.082003 1.641184 -5.026402
v -2.082004 1.641184 -5.026402
v -5.026402 1.641184 -2.082003
v -5.026401 1.641184 2.082004
v -2.082003 1.641184 5.026402
v 2.082005 1.641184 5.026401
v 5.026402 1.641184 2.082003
v 5.026402 1.641184 -2.082003
v 2.082003 1.275591 -5.026402
v -2.082004 1.275591 -5.026402
v -5.026402 1.275591 -2.082003
v -5.026401 1.275591 2.082004
v -2.082003 1.275591 5.026402
v 2.082005 1.275591 5.026401
v 5.026402 1.275591 2.082003
v 5.026402 1.275591 -2.082003
v -1.974681 1.751699 -4.767301
v 1.974681 1.751699 -4.767302
v -4.767302 1.751699 -1.974681
v -4.767301 1.751699 1.974681
v -1.974680 1.751699 4.767302
v 1.974682 1.751699 4.767301
v 4.767302 1.751699 1.974681
v 4.767302 1.751699 -1.974681
v -1.974681 1.165076 -4.767301
v 1.974681 1.165076 -4.767302
v -4.767302 1.165076 -1.974681
v -4.767301 1.165076 1.974681
v -1.974680 1.165076 4.767302
v 1.974682 1.165076 4.767301
v 4.767302 1.165076 1.974681
v 4.767302 1.165076 -1.974681
v 2.082003 0.987444 -5.026402
v -2.082004 0.987444 -5.026402
v -5.026402 0.987444 -2.082003
v -5.026401 0.987444 2.082004
v -2.082003 0.987444 5.026402
v 2.082005 0.987444 5.026401
v 5.026402 0.987444 2.082003
v 5.026402 0.987444 -2.082003
v 2.082003 0.621851 -5.026402
v -2.082004 0.621851 -5.026402
v -5.026402 0.621851 -2.082003
v -5.026401 0.621851 2.082004
v -2.082003 0.621851 5.026402
v 2.082005 0.621851 5.026401
v 5.026402 0.621851 2.082003
v 5.026402 0.621851 -2.082003
v -1.974681 1.097959 -4.767301
v 1.974681 1.097959 -4.767302
v -4.767302 1.097959 -1.974681
v -4.767301 1.097959 1.974681
v -1.974680 1.097959 4.767302
v 1.974682 1.097959 4.767301
v 4.767302 1.097959 1.974681
v 4.767302 1.097959 -1.974681
v -1.974681 0.511336 -4.767301
v 1.974681 0.511336 -4.767302
v -4.767302 0.511336 -1.974681
v -4.767301 0.511336 1.974681
v -1.974680 0.511336 4.767302
v 1.974682 0.511336 4.767301
v 4.767302 0.511336 1.974681
v 4.767302 0.511336 -1.974681
v 1.942275 -2.406133 -4.689067
v 1.987282 -2.295918 -4.797723
v -1.987282 -2.295918 -4.797723
v -1.942276 -2.406133 -4.689067
v -4.797723 -2.295918 -1.987282
v -4.689067 -2.406133 -1.942275
v -4.797723 -2.295918 1.987282
v -4.689067 -2.406133 1.942276
v -1.987281 -2.295918 4.797724
v -1.942274 -2.406133 4.689067
v 1.987283 -2.295918 4.797723
v 1.942276 -2.406133 4.689067
v 4.797723 -2.295918 1.987282
v 4.689067 -2.406133 1.942275
v 4.797723 -2.295918 -1.987282
v 4.689067 -2.406133 -1.942275
vt 0.976221 0.583755
vt 0.715147 0.583665
vt 0.715198 0.435553
vt 0.976158 0.766372
vt 0.715084 0.766281
vt 0.715135 0.618169
vt 0.976095 0.948988
vt 0.715021 0.948898
vt 0.715072 0.800785
vt 0.502384 0.027332
vt 0.502384 0.228796
vt 0.382614 0.228796
vt 0.976083 0.983492
vt 0.715009 0.983402
vt 0.715210 0.401049
vt 0.976284 0.401139
vt 0.715261 0.252937
vt 0.382614 0.027332
vt 0.262844 0.228796
vt 0.262844 0.027332
vt 0.143075 0.228796
vt 0.307772 0.895789
vt 0.223326 0.980331
vt 0.197153 0.920394
vt 0.143075 0.027332
vt 0.023305 0.228796
vt 0.981463 0.027332
vt 0.981462 0.228796
vt 0.861693 0.228796
vt 0.861693 0.027332
vt 0.741923 0.228796
vt 0.622153 0.027332
vt 0.622153 0.228796
vt 0.741923 0.027332
vt 0.307842 0.776267
vt 0.246887 0.871797
vt 0.103999 0.980484
vt 0.127851 0.919750
vt 0.019687 0.895975
vt 0.079665 0.870041
vt 0.019874 0.776467
vt 0.080825 0.800493
vt 0.104064 0.691889
vt 0.130270 0.751674
vt 0.247838 0.802287
vt 0.199503 0.752529
vt 0.308076 0.895835
vt 0.223569 0.980425
vt 0.212805 0.954474
vt 0.282115 0.885096
vt 0.282067 0.787029
vt 0.223428 0.691758
vt 0.308018 0.776265
vt 0.212689 0.717719
vt 0.114622 0.717767
vt 0.103858 0.691817
vt 0.045312 0.787145
vt 0.019409 0.895977
vt 0.019350 0.776407
vt 0.045360 0.885212
vt 0.114738 0.954522
vt 0.689277 0.521221
vt 0.594649 0.533893
vt 0.570921 0.462785
vt 0.647572 0.411379
vt 0.517711 0.409337
vt 0.566074 0.333222
vt 0.443910 0.380314
vt 0.465561 0.292685
vt 0.354150 0.375696
vt 0.358094 0.850660
vt 0.342848 0.722038
vt 0.453480 0.714527
vt 0.607503 0.749882
vt 0.494836 0.821158
vt 0.676427 0.642757
vt 0.533724 0.674531
vt 0.582400 0.609703
vt 0.536316 0.540222
vt 0.522604 0.495493
vt 0.487854 0.461901
vt 0.436306 0.447011
vt 0.368624 0.460150
vt 0.366503 0.624083
vt 0.437920 0.640592
vt 0.492087 0.623699
vt 0.526033 0.586556
vt 0.503615 0.541249
vt 0.494606 0.513048
vt 0.471412 0.492957
vt 0.437756 0.487567
vt 0.400560 0.581765
vt 0.439266 0.599310
vt 0.473876 0.592388
vt 0.496499 0.570317
vt 0.184371 0.878703
vt 0.146478 0.878703
vt 0.165424 0.832962
vt 0.211166 0.851908
vt 0.211166 0.814015
vt 0.184371 0.787220
vt 0.146478 0.787220
vt 0.119683 0.814015
vt 0.119683 0.851908
vt 0.231479 0.365035
vt 0.238585 0.346710
vt 0.328074 0.435357
vt 0.120320 0.364586
vt 0.112471 0.346566
vt 0.041427 0.442496
vt 0.023145 0.435321
vt 0.041098 0.553106
vt 0.023143 0.561072
vt 0.119884 0.631107
vt 0.112808 0.649438
vt 0.231119 0.631545
vt 0.238940 0.649568
vt 0.310119 0.553896
vt 0.328400 0.561060
vt 0.310124 0.443325
vt 0.301387 0.550135
vt 0.227621 0.622688
vt 0.123601 0.622337
vt 0.049914 0.549534
vt 0.050159 0.446262
vt 0.123832 0.373441
vt 0.227746 0.373801
vt 0.301310 0.446899
vt 0.338697 0.430710
vt 0.339182 0.565345
vt 0.243505 0.660222
vt 0.108578 0.660222
vt 0.012511 0.565724
vt 0.012368 0.431033
vt 0.107890 0.335909
vt 0.242832 0.335924
vt 0.226035 0.685203
vt 0.013325 0.773864
vt 0.101265 0.685418
vt 0.013203 0.898754
vt 0.101391 0.987036
vt 0.226122 0.986803
vt 0.314328 0.898399
vt 0.314326 0.773481
vt 0.976272 0.435643
vt 0.976209 0.618259
vt 0.976146 0.800876
vt 0.976335 0.253027
vt 0.023305 0.027332
vt 0.362360 0.279151
vt 0.398691 0.505174
vn 0.000000 0.000000 -1.000000
vn 1.000000 0.000000 0.000000
vn 0.000000 0.000000 1.000000
vn 0.707100 0.000000 -0.707100
vn -0.707100 0.000000 0.707100
vn 0.707100 0.000000 0.707100
vn -0.707100 0.000000 -0.707100
vn -1.000000 0.000000 0.000000
vn 0.209300 -0.955200 0.209300
vn 0.296000 -0.955200 0.000000
vn 0.000000 -0.955200 0.296000
vn -0.209300 -0.955200 0.209300
vn -0.296000 -0.955200 0.000000
vn -0.209300 -0.955200 -0.209300
vn 0.209300 -0.955200 -0.209300
vn 0.000000 1.000000 -0.000000
vn 0.696500 0.172500 -0.696500
vn 0.985000 0.172500 0.000000
vn 0.696500 0.172500 0.696500
vn 0.000000 0.172500 0.985000
vn -0.696500 0.172500 0.696500
vn -0.985000 0.172500 0.000000
vn -0.696500 0.172500 -0.696500
vn -0.000000 0.172500 -0.985000
vn 0.592400 0.546000 -0.592400
vn 0.837800 0.546000 0.000000
vn 0.592400 0.546000 0.592400
vn 0.000000 0.546000 0.837800
vn -0.592400 0.546000 0.592400
vn -0.837800 0.546000 0.000000
vn -0.592400 0.546000 -0.592400
vn 0.000000 0.546000 -0.837800
vn 0.265600 0.926800 -0.265600
vn 0.375600 0.926800 0.000000
vn 0.265600 0.926800 0.265600
vn 0.000000 0.926800 0.375600
vn -0.265600 0.926800 0.265600
vn -0.375600 0.926800 0.000000
vn -0.265600 0.926800 -0.265600
vn -0.000000 0.926800 -0.375600
vn 0.088700 0.992100 -0.088700
vn 0.125400 0.992100 0.000000
vn 0.088700 0.992100 0.088700
vn 0.000000 0.992100 0.125400
vn -0.088700 0.992100 0.088700
vn -0.125400 0.992100 0.000000
vn -0.088700 0.992100 -0.088700
vn -0.000000 0.992100 -0.125400
vn 0.000000 0.919800 -0.392300
vn -0.277400 0.919800 -0.277400
vn -0.392300 0.919800 0.000000
vn -0.277400 0.919800 0.277400
vn 0.000000 0.919800 0.392300
vn 0.277400 0.919800 0.277400
vn 0.392300 0.919800 0.000000
vn 0.277400 0.919800 -0.277400
vn 0.000000 -0.919800 -0.392300
vn -0.277400 -0.919800 -0.277400
vn -0.392300 -0.919800 0.000000
vn -0.277400 -0.919800 0.277400
vn 0.000000 -0.919800 0.392300
vn 0.277400 -0.919800 0.277400
vn 0.392300 -0.919800 0.000000
vn 0.277400 -0.919800 -0.277400
vn -0.000000 -0.702000 -0.712100
vn -0.503600 -0.702100 -0.503500
vn -0.712100 -0.702100 0.000000
vn -0.503500 -0.702100 0.503500
vn 0.000000 -0.702100 0.712100
vn 0.503500 -0.702100 0.503600
vn 0.712100 -0.702000 0.000000
vn 0.503500 -0.702100 -0.503600
vn 0.000000 -0.955200 -0.296000
vn 0.000000 -0.702100 -0.712100
vn -0.503500 -0.702100 -0.503600
vn 0.503600 -0.702100 0.503500
vn 0.712100 -0.702100 0.000000
vn 0.503500 -0.702100 -0.503500
usemtl Tank
s off
f 24/1/1 13/2/1 12/3/1
f 20/4/2 15/5/2 14/6/2
f 18/7/3 9/8/3 16/9/3
f 131/10/4 25/11/4 32/12/4
f 18/7/5 17/13/5 10/14/5
f 16/9/6 15/5/6 20/4/6
f 14/6/4 13/2/4 24/1/4
f 12/3/7 11/15/7 22/16/7
f 22/16/8 11/15/8 10/17/8
f 144/18/2 32/12/2 31/19/2
f 142/20/6 31/19/6 30/21/6
f 143/22/9 141/23/9 3/24/9
f 140/25/3 30/21/3 29/26/3
f 138/27/5 29/28/5 28/29/5
f 136/30/8 28/29/8 27/31/8
f 132/32/1 26/33/1 25/11/1
f 134/34/7 27/31/7 26/33/7
f 145/35/10 143/22/10 2/36/10
f 139/37/11 4/38/11 3/24/11
f 139/37/12 137/39/12 5/40/12
f 135/41/13 6/42/13 5/40/13
f 133/43/14 7/44/14 6/42/14
f 145/35/15 1/45/15 8/46/15
f 32/47/16 25/48/16 33/49/16
f 32/47/16 40/50/16 39/51/16
f 30/52/16 31/53/16 39/51/16
f 30/52/16 38/54/16 37/55/16
f 29/56/16 37/55/16 36/57/16
f 27/58/16 28/59/16 36/57/16
f 27/58/16 35/60/16 34/61/16
f 25/48/16 26/37/16 34/61/16
f 33/62/17 41/63/17 48/64/17
f 40/65/18 48/64/18 47/66/18
f 39/67/19 47/66/19 46/68/19
f 38/69/20 46/68/20 45/70/20
f 37/71/21 45/72/21 44/73/21
f 35/74/22 36/75/22 44/73/22
f 34/76/23 35/74/23 43/77/23
f 34/76/24 42/78/24 41/63/24
f 41/63/25 49/79/25 56/80/25
f 48/64/26 56/80/26 55/81/26
f 46/68/27 47/66/27 55/81/27
f 46/68/28 54/82/28 53/83/28
f 45/72/29 53/84/29 52/85/29
f 44/73/30 52/85/30 51/86/30
f 42/78/31 43/77/31 51/86/31
f 42/78/32 50/87/32 49/79/32
f 56/80/33 49/79/33 57/88/33
f 56/80/34 64/89/34 63/90/34
f 54/82/35 55/81/35 63/90/35
f 53/83/36 54/82/36 62/91/36
f 52/85/37 53/84/37 61/92/37
f 52/85/38 60/93/38 59/94/38
f 51/86/39 59/94/39 58/95/39
f 50/87/40 58/95/40 57/88/40
f 64/96/41 57/97/41 65/98/41
f 63/99/42 64/96/42 65/98/42
f 62/100/43 63/99/43 65/98/43
f 61/101/44 62/100/44 65/98/44
f 60/102/45 61/101/45 65/98/45
f 59/103/46 60/102/46 65/98/46
f 58/104/47 59/103/47 65/98/47
f 57/97/48 58/104/48 65/98/48
f 73/105/4 81/106/4 74/107/4
f 72/108/2 80/109/2 81/106/2
f 71/110/6 79/111/6 80/109/6
f 70/112/3 78/113/3 79/111/3
f 69/114/5 77/115/5 78/113/5
f 68/116/8 76/117/8 77/115/8
f 67/118/7 75/119/7 76/117/7
f 66/120/1 74/107/1 75/119/1
f 66/120/49 67/118/49 82/121/49
f 67/118/50 68/116/50 84/122/50
f 68/116/51 69/114/51 85/123/51
f 69/114/52 70/112/52 86/124/52
f 70/112/53 71/110/53 87/125/53
f 72/108/54 88/126/54 87/125/54
f 73/105/55 89/127/55 88/126/55
f 73/105/56 66/120/56 83/128/56
f 74/107/57 91/129/57 90/130/57
f 76/117/58 75/119/58 90/130/58
f 76/117/59 92/131/59 93/132/59
f 77/115/60 93/132/60 94/133/60
f 78/113/61 94/133/61 95/134/61
f 79/111/62 95/134/62 96/135/62
f 80/109/63 96/135/63 97/136/63
f 81/106/64 97/136/64 91/129/64
f 105/105/4 113/106/4 106/107/4
f 104/108/2 112/109/2 113/106/2
f 103/110/6 111/111/6 112/109/6
f 102/112/3 110/113/3 111/111/3
f 101/114/5 109/115/5 110/113/5
f 100/116/8 108/117/8 109/115/8
f 99/118/7 107/119/7 108/117/7
f 98/120/1 106/107/1 107/119/1
f 99/118/49 114/121/49 115/128/49
f 100/116/50 116/122/50 114/121/50
f 100/116/51 101/114/51 117/123/51
f 101/114/52 102/112/52 118/124/52
f 103/110/53 119/125/53 118/124/53
f 104/108/54 120/126/54 119/125/54
f 105/105/55 121/127/55 120/126/55
f 105/105/56 98/120/56 115/128/56
f 106/107/57 123/129/57 122/130/57
f 108/117/58 107/119/58 122/130/58
f 108/117/59 124/131/59 125/132/59
f 109/115/60 125/132/60 126/133/60
f 110/113/61 126/133/61 127/134/61
f 112/109/62 111/111/62 127/134/62
f 112/109/63 128/135/63 129/136/63
f 113/106/64 129/136/64 123/129/64
f 131/137/65 130/52/65 133/43/65
f 134/138/66 132/139/66 133/43/66
f 134/138/67 135/41/67 137/39/67
f 136/140/68 137/39/68 139/37/68
f 138/141/69 139/37/69 141/23/69
f 140/142/70 141/23/70 143/22/70
f 142/143/71 143/22/71 145/35/71
f 144/144/72 145/35/72 130/52/72
f 130/52/73 8/46/73 7/44/73
f 21/145/1 24/1/1 12/3/1
f 23/146/2 20/4/2 14/6/2
f 19/147/3 18/7/3 16/9/3
f 144/18/4 131/10/4 32/12/4
f 9/8/5 18/7/5 10/14/5
f 19/147/6 16/9/6 20/4/6
f 23/146/4 14/6/4 24/1/4
f 21/145/7 12/3/7 22/16/7
f 17/148/8 22/16/8 10/17/8
f 142/20/2 144/18/2 31/19/2
f 140/25/6 142/20/6 30/21/6
f 2/36/9 143/22/9 3/24/9
f 138/149/3 140/25/3 29/26/3
f 136/30/5 138/27/5 28/29/5
f 134/34/8 136/30/8 27/31/8
f 131/10/1 132/32/1 25/11/1
f 132/32/7 134/34/7 26/33/7
f 1/45/10 145/35/10 2/36/10
f 141/23/11 139/37/11 3/24/11
f 4/38/12 139/37/12 5/40/12
f 137/39/13 135/41/13 5/40/13
f 135/41/14 133/43/14 6/42/14
f 130/52/15 145/35/15 8/46/15
f 40/50/16 32/47/16 33/49/16
f 31/53/16 32/47/16 39/51/16
f 38/54/16 30/52/16 39/51/16
f 29/56/16 30/52/16 37/55/16
f 28/59/16 29/56/16 36/57/16
f 35/60/16 27/58/16 36/57/16
f 26/37/16 27/58/16 34/61/16
f 33/49/16 25/48/16 34/61/16
f 40/65/17 33/62/17 48/64/17
f 39/67/18 40/65/18 47/66/18
f 38/69/19 39/67/19 46/68/19
f 37/150/20 38/69/20 45/70/20
f 36/75/21 37/71/21 44/73/21
f 43/77/22 35/74/22 44/73/22
f 42/78/23 34/76/23 43/77/23
f 33/62/24 34/76/24 41/63/24
f 48/64/25 41/63/25 56/80/25
f 47/66/26 48/64/26 55/81/26
f 54/82/27 46/68/27 55/81/27
f 45/70/28 46/68/28 53/83/28
f 44/73/29 45/72/29 52/85/29
f 43/77/30 44/73/30 51/86/30
f 50/87/31 42/78/31 51/86/31
f 41/63/32 42/78/32 49/79/32
f 64/89/33 56/80/33 57/88/33
f 55/81/34 56/80/34 63/90/34
f 62/91/35 54/82/35 63/90/35
f 61/151/36 53/83/36 62/91/36
f 60/93/37 52/85/37 61/92/37
f 51/86/38 52/85/38 59/94/38
f 50/87/39 51/86/39 58/95/39
f 49/79/40 50/87/40 57/88/40
f 66/120/4 73/105/4 74/107/4
f 73/105/2 72/108/2 81/106/2
f 72/108/6 71/110/6 80/109/6
f 71/110/3 70/112/3 79/111/3
f 70/112/5 69/114/5 78/113/5
f 69/114/8 68/116/8 77/115/8
f 68/116/7 67/118/7 76/117/7
f 67/118/1 66/120/1 75/119/1
f 83/128/49 66/120/49 82/121/49
f 82/121/50 67/118/50 84/122/50
f 84/122/51 68/116/51 85/123/51
f 85/123/52 69/114/52 86/124/52
f 86/124/53 70/112/53 87/125/53
f 71/110/54 72/108/54 87/125/54
f 72/108/55 73/105/55 88/126/55
f 89/127/56 73/105/56 83/128/56
f 75/119/57 74/107/57 90/130/57
f 92/131/58 76/117/58 90/130/58
f 77/115/59 76/117/59 93/132/59
f 78/113/60 77/115/60 94/133/60
f 79/111/61 78/113/61 95/134/61
f 80/109/62 79/111/62 96/135/62
f 81/106/63 80/109/63 97/136/63
f 74/107/64 81/106/64 91/129/64
f 98/120/4 105/105/4 106/107/4
f 105/105/2 104/108/2 113/106/2
f 104/108/6 103/110/6 112/109/6
f 103/110/3 102/112/3 111/111/3
f 102/112/5 101/114/5 110/113/5
f 101/114/8 100/116/8 109/115/8
f 100/116/7 99/118/7 108/117/7
f 99/118/1 98/120/1 107/119/1
f 98/120/49 99/118/49 115/128/49
f 99/118/50 100/116/50 114/121/50
f 116/122/51 100/116/51 117/123/51
f 117/123/52 101/114/52 118/124/52
f 102/112/53 103/110/53 118/124/53
f 103/110/54 104/108/54 119/125/54
f 104/108/55 105/105/55 120/126/55
f 121/127/56 105/105/56 115/128/56
f 107/119/57 106/107/57 122/130/57
f 124/131/58 108/117/58 122/130/58
f 109/115/59 108/117/59 125/132/59
f 110/113/60 109/115/60 126/133/60
f 111/111/61 110/113/61 127/134/61
f 128/135/62 112/109/62 127/134/62
f 113/106/63 112/109/63 129/136/63
f 106/107/64 113/106/64 123/129/64
f 132/139/74 131/137/74 133/43/74
f 135/41/75 134/138/75 133/43/75
f 136/140/67 134/138/67 137/39/67
f 138/141/68 136/140/68 139/37/68
f 140/142/69 138/141/69 141/23/69
f 142/143/76 140/142/76 143/22/76
f 144/144/77 142/143/77 145/35/77
f 131/137/78 144/144/78 130/52/78
f 133/43/73 130/52/73 7/44/73
