# Blender v2.73 (sub 0) OBJ File: 'Map.blend'
# www.blender.org
mtllib TransportBottom.mtl
o TransportBottom
v 1.245553 -4.580161 2.340294
v 1.094739 -4.580161 2.340294
v 1.245553 -4.580161 2.491108
v 1.094739 -4.580161 2.491108
v 1.245553 -0.371497 2.340294
v 1.094739 -0.371497 2.340294
v 1.245553 -0.371497 2.491108
v 1.094739 -0.371497 2.491108
v 2.491105 -4.580161 1.094741
v 2.340290 -4.580161 1.094741
v 2.491105 -4.580161 1.245555
v 2.340291 -4.580161 1.245556
v 2.491105 -0.371497 1.094741
v 2.340290 -0.371497 1.094741
v 2.491105 -0.371497 1.245555
v 2.340291 -0.371497 1.245556
v 2.491105 -4.580161 2.340293
v 2.340292 -4.580161 2.340293
v 2.491104 -4.580161 2.491108
v 2.340292 -4.580161 2.491108
v 2.491105 -0.371497 2.340293
v 2.340292 -0.371497 2.340293
v 2.491104 -0.371497 2.491108
v 2.340292 -0.371497 2.491108
v 2.468664 -0.421361 1.200331
v 2.362731 -0.421361 1.200331
v 2.468665 -1.014709 2.385518
v 2.362732 -1.014709 2.385518
v 2.468664 -0.525605 1.200331
v 2.362731 -0.525605 1.200331
v 2.468665 -1.118953 2.385518
v 2.362732 -1.118953 2.385518
v 2.468664 -1.265447 1.200331
v 2.362731 -1.265447 1.200331
v 2.468665 -1.858795 2.385518
v 2.362732 -1.858795 2.385518
v 2.468664 -1.369691 1.200331
v 2.362731 -1.369691 1.200331
v 2.468665 -1.963038 2.385518
v 2.362732 -1.963038 2.385518
v 2.468664 -2.109533 1.200331
v 2.362731 -2.109533 1.200331
v 2.468665 -2.702880 2.385518
v 2.362732 -2.702880 2.385518
v 2.468664 -2.213777 1.200331
v 2.362731 -2.213777 1.200331
v 2.468665 -2.807124 2.385518
v 2.362732 -2.807124 2.385518
v 2.468664 -2.953619 1.200331
v 2.362731 -2.953619 1.200331
v 2.468665 -3.546967 2.385518
v 2.362732 -3.546967 2.385518
v 2.468664 -3.057863 1.200331
v 2.362731 -3.057863 1.200331
v 2.468665 -3.651210 2.385518
v 2.362732 -3.651210 2.385518
v 1.200329 -0.421361 2.362735
v 1.200329 -0.421361 2.468668
v 2.385516 -1.014709 2.362734
v 2.385516 -1.014709 2.468667
v 1.200329 -0.525605 2.362735
v 1.200329 -0.525605 2.468668
v 2.385516 -1.118953 2.362734
v 2.385516 -1.118953 2.468667
v 1.200329 -1.265447 2.362735
v 1.200329 -1.265447 2.468668
v 2.385516 -1.858795 2.362734
v 2.385516 -1.858795 2.468667
v 1.200329 -1.369691 2.362735
v 1.200329 -1.369691 2.468668
v 2.385516 -1.963038 2.362734
v 2.385516 -1.963038 2.468667
v 1.200329 -2.109533 2.362735
v 1.200329 -2.109533 2.468668
v 2.385516 -2.702880 2.362734
v 2.385516 -2.702880 2.468667
v 1.200329 -2.213777 2.362735
v 1.200329 -2.213777 2.468668
v 2.385516 -2.807124 2.362734
v 2.385516 -2.807124 2.468667
v 1.200329 -2.953619 2.362735
v 1.200329 -2.953619 2.468668
v 2.385516 -3.546967 2.362734
v 2.385516 -3.546967 2.468667
v 1.200329 -3.057863 2.362735
v 1.200329 -3.057863 2.468668
v 2.385516 -3.651210 2.362734
v 2.385516 -3.651210 2.468667
v 2.468662 -3.651210 -2.385516
v 2.362729 -3.651210 -2.385516
v 2.468663 -3.057863 -1.200330
v 2.362730 -3.057863 -1.200330
v 2.468662 -3.546967 -2.385516
v 2.362729 -3.546967 -2.385516
v 2.468663 -2.953619 -1.200330
v 2.362730 -2.953619 -1.200330
v 2.468662 -2.807124 -2.385516
v 2.362729 -2.807124 -2.385516
v 2.468663 -2.213777 -1.200330
v 2.362730 -2.213777 -1.200330
v 2.468662 -2.702880 -2.385516
v 2.362729 -2.702880 -2.385516
v 2.468663 -2.109533 -1.200330
v 2.362730 -2.109533 -1.200330
v 2.468662 -1.963038 -2.385516
v 2.362729 -1.963038 -2.385516
v 2.468663 -1.369691 -1.200330
v 2.362730 -1.369691 -1.200330
v 2.468662 -1.858795 -2.385516
v 2.362729 -1.858795 -2.385516
v 2.468663 -1.265447 -1.200330
v 2.362730 -1.265447 -1.200330
v 2.468662 -1.118953 -2.385516
v 2.362729 -1.118953 -2.385516
v 2.468663 -0.525605 -1.200330
v 2.362730 -0.525605 -1.200330
v 2.468662 -1.014709 -2.385516
v 2.362729 -1.014709 -2.385516
v 2.468663 -0.421361 -1.200330
v 2.362730 -0.421361 -1.200330
v 2.385513 -3.651210 -2.362732
v 2.385512 -3.651210 -2.468666
v 1.200326 -3.057863 -2.362731
v 1.200326 -3.057863 -2.468665
v 2.385513 -3.546967 -2.362732
v 2.385512 -3.546967 -2.468666
v 1.200326 -2.953619 -2.362731
v 1.200326 -2.953619 -2.468665
v 2.385513 -2.807124 -2.362732
v 2.385512 -2.807124 -2.468666
v 1.200326 -2.213777 -2.362731
v 1.200326 -2.213777 -2.468665
v 2.385513 -2.702880 -2.362732
v 2.385512 -2.702880 -2.468666
v 1.200326 -2.109533 -2.362731
v 1.200326 -2.109533 -2.468665
v 2.385513 -1.963038 -2.362732
v 2.385512 -1.963038 -2.468666
v 1.200326 -1.369691 -2.362731
v 1.200326 -1.369691 -2.468665
v 2.385513 -1.858795 -2.362732
v 2.385512 -1.858795 -2.468666
v 1.200326 -1.265447 -2.362731
v 1.200326 -1.265447 -2.468665
v 2.385513 -1.118953 -2.362732
v 2.385512 -1.118953 -2.468666
v 1.200326 -0.525605 -2.362731
v 1.200326 -0.525605 -2.468665
v 2.385513 -1.014709 -2.362732
v 2.385512 -1.014709 -2.468666
v 1.200326 -0.421361 -2.362731
v 1.200326 -0.421361 -2.468665
v 2.491102 -0.371497 -2.340292
v 2.491102 -0.371497 -2.491106
v 2.340288 -0.371497 -2.340292
v 2.340288 -0.371497 -2.491106
v 2.491102 -4.580161 -2.340292
v 2.491102 -4.580161 -2.491106
v 2.340288 -4.580161 -2.340292
v 2.340288 -4.580161 -2.491106
v 1.245550 -0.371497 -2.340291
v 1.245550 -0.371497 -2.491105
v 1.094736 -0.371497 -2.340291
v 1.094736 -0.371497 -2.491105
v 1.245550 -4.580161 -2.340291
v 1.245550 -4.580161 -2.491105
v 1.094736 -4.580161 -2.340291
v 1.094736 -4.580161 -2.491105
v 2.491104 -0.371497 -1.094740
v 2.491103 -0.371497 -1.245554
v 2.340289 -0.371497 -1.094740
v 2.340289 -0.371497 -1.245554
v 2.491104 -4.580161 -1.094740
v 2.491103 -4.580161 -1.245554
v 2.340289 -4.580161 -1.094740
v 2.340289 -4.580161 -1.245554
v -2.468667 -3.651210 2.385521
v -2.362733 -3.651210 2.385521
v -2.468668 -3.057863 1.200334
v -2.362735 -3.057863 1.200334
v -2.468667 -3.546967 2.385521
v -2.362733 -3.546967 2.385521
v -2.468668 -2.953619 1.200334
v -2.362735 -2.953619 1.200334
v -2.468667 -2.807124 2.385521
v -2.362733 -2.807124 2.385521
v -2.468668 -2.213777 1.200334
v -2.362735 -2.213777 1.200334
v -2.468667 -2.702880 2.385521
v -2.362733 -2.702880 2.385521
v -2.468668 -2.109533 1.200334
v -2.362735 -2.109533 1.200334
v -2.468667 -1.963038 2.385521
v -2.362733 -1.963038 2.385521
v -2.468668 -1.369691 1.200334
v -2.362735 -1.369691 1.200334
v -2.468667 -1.858795 2.385521
v -2.362733 -1.858795 2.385521
v -2.468668 -1.265447 1.200334
v -2.362735 -1.265447 1.200334
v -2.468667 -1.118953 2.385521
v -2.362733 -1.118953 2.385521
v -2.468668 -0.525605 1.200334
v -2.362735 -0.525605 1.200334
v -2.468667 -1.014709 2.385521
v -2.362733 -1.014709 2.385521
v -2.468668 -0.421361 1.200334
v -2.362735 -0.421361 1.200334
v -2.385518 -3.651210 2.362737
v -2.385518 -3.651210 2.468670
v -1.200331 -3.057863 2.362736
v -1.200331 -3.057863 2.468669
v -2.385518 -3.546967 2.362737
v -2.385518 -3.546967 2.468670
v -1.200331 -2.953619 2.362736
v -1.200331 -2.953619 2.468669
v -2.385518 -2.807124 2.362737
v -2.385518 -2.807124 2.468670
v -1.200331 -2.213777 2.362736
v -1.200331 -2.213777 2.468669
v -2.385518 -2.702880 2.362737
v -2.385518 -2.702880 2.468670
v -1.200331 -2.109533 2.362736
v -1.200331 -2.109533 2.468669
v -2.385518 -1.963038 2.362737
v -2.385518 -1.963038 2.468670
v -1.200331 -1.369691 2.362736
v -1.200331 -1.369691 2.468669
v -2.385518 -1.858795 2.362737
v -2.385518 -1.858795 2.468670
v -1.200331 -1.265447 2.362736
v -1.200331 -1.265447 2.468669
v -2.385518 -1.118953 2.362737
v -2.385518 -1.118953 2.468670
v -1.200331 -0.525605 2.362736
v -1.200331 -0.525605 2.468669
v -2.385518 -1.014709 2.362737
v -2.385518 -1.014709 2.468670
v -1.200331 -0.421361 2.362736
v -1.200331 -0.421361 2.468669
v -2.491108 -0.371497 2.340297
v -2.491108 -0.371497 2.491109
v -2.340293 -0.371497 2.340297
v -2.340293 -0.371497 2.491110
v -2.491108 -4.580161 2.340297
v -2.491108 -4.580161 2.491109
v -2.340293 -4.580161 2.340297
v -2.340293 -4.580161 2.491110
v -1.245555 -0.371497 2.340296
v -1.245555 -0.371497 2.491110
v -1.094741 -0.371497 2.340295
v -1.094741 -0.371497 2.491110
v -1.245555 -4.580161 2.340296
v -1.245555 -4.580161 2.491110
v -1.094741 -4.580161 2.340295
v -1.094741 -4.580161 2.491110
v -2.491108 -0.371497 1.094744
v -2.491108 -0.371497 1.245558
v -2.340294 -0.371497 1.094744
v -2.340294 -0.371497 1.245558
v -2.491108 -4.580161 1.094744
v -2.491108 -4.580161 1.245558
v -2.340294 -4.580161 1.094744
v -2.340294 -4.580161 1.245558
v -1.245558 -4.580161 -2.340289
v -1.094745 -4.580161 -2.340289
v -1.245559 -4.580161 -2.491104
v -1.094745 -4.580161 -2.491104
v -1.245558 -0.371497 -2.340289
v -1.094745 -0.371497 -2.340289
v -1.245559 -0.371497 -2.491104
v -1.094745 -0.371497 -2.491104
v -2.491109 -4.580161 -1.094736
v -2.340295 -4.580161 -1.094736
v -2.491110 -4.580161 -1.245550
v -2.340296 -4.580161 -1.245551
v -2.491109 -0.371497 -1.094736
v -2.340295 -0.371497 -1.094736
v -2.491110 -0.371497 -1.245550
v -2.340296 -0.371497 -1.245551
v -2.491110 -4.580161 -2.340288
v -2.340297 -4.580161 -2.340288
v -2.491110 -4.580161 -2.491103
v -2.340297 -4.580161 -2.491103
v -2.491110 -0.371497 -2.340288
v -2.340297 -0.371497 -2.340288
v -2.491110 -0.371497 -2.491103
v -2.340297 -0.371497 -2.491103
v -2.468669 -0.421361 -1.200326
v -2.362736 -0.421361 -1.200326
v -2.468670 -1.014709 -2.385513
v -2.362737 -1.014709 -2.385513
v -2.468669 -0.525605 -1.200326
v -2.362736 -0.525605 -1.200326
v -2.468670 -1.118953 -2.385513
v -2.362737 -1.118953 -2.385513
v -2.468669 -1.265447 -1.200326
v -2.362736 -1.265447 -1.200326
v -2.468670 -1.858795 -2.385513
v -2.362737 -1.858795 -2.385513
v -2.468669 -1.369691 -1.200326
v -2.362736 -1.369691 -1.200326
v -2.468670 -1.963038 -2.385513
v -2.362737 -1.963038 -2.385513
v -2.468669 -2.109533 -1.200326
v -2.362736 -2.109533 -1.200326
v -2.468670 -2.702880 -2.385513
v -2.362737 -2.702880 -2.385513
v -2.468669 -2.213777 -1.200326
v -2.362736 -2.213777 -1.200326
v -2.468670 -2.807124 -2.385513
v -2.362737 -2.807124 -2.385513
v -2.468669 -2.953619 -1.200326
v -2.362736 -2.953619 -1.200326
v -2.468670 -3.546967 -2.385513
v -2.362737 -3.546967 -2.385513
v -2.468669 -3.057863 -1.200326
v -2.362736 -3.057863 -1.200326
v -2.468670 -3.651210 -2.385513
v -2.362737 -3.651210 -2.385513
v -1.200334 -0.421361 -2.362730
v -1.200334 -0.421361 -2.468663
v -2.385521 -1.014709 -2.362729
v -2.385521 -1.014709 -2.468662
v -1.200334 -0.525605 -2.362730
v -1.200334 -0.525605 -2.468663
v -2.385521 -1.118953 -2.362729
v -2.385521 -1.118953 -2.468662
v -1.200334 -1.265447 -2.362730
v -1.200334 -1.265447 -2.468663
v -2.385521 -1.858795 -2.362729
v -2.385521 -1.858795 -2.468662
v -1.200334 -1.369691 -2.362730
v -1.200334 -1.369691 -2.468663
v -2.385521 -1.963038 -2.362729
v -2.385521 -1.963038 -2.468662
v -1.200334 -2.109533 -2.362730
v -1.200334 -2.109533 -2.468663
v -2.385521 -2.702880 -2.362729
v -2.385521 -2.702880 -2.468662
v -1.200334 -2.213777 -2.362730
v -1.200334 -2.213777 -2.468663
v -2.385521 -2.807124 -2.362729
v -2.385521 -2.807124 -2.468662
v -1.200334 -2.953619 -2.362730
v -1.200334 -2.953619 -2.468663
v -2.385521 -3.546967 -2.362729
v -2.385521 -3.546967 -2.468662
v -1.200334 -3.057863 -2.362730
v -1.200334 -3.057863 -2.468663
v -2.385521 -3.651210 -2.362729
v -2.385521 -3.651210 -2.468662
vt 0.425785 0.969885
vt 0.425785 0.960034
vt 0.860381 0.960035
vt 0.425785 0.950183
vt 0.860381 0.950183
vt 0.425785 0.940332
vt 0.860381 0.940332
vt 0.425785 0.979736
vt 0.860381 0.969887
vt 0.346368 0.533469
vt 0.346368 0.422222
vt 0.355879 0.429749
vt 0.373186 0.533469
vt 0.363675 0.540997
vt 0.363676 0.429749
vt 0.355879 0.540997
vt 0.380984 0.533469
vt 0.373187 0.422222
vt 0.380984 0.422221
vt 0.860380 0.979737
vn -1.000000 0.000000 -0.000000
vn 0.000000 0.000000 1.000000
vn 1.000000 0.000000 -0.000000
vn 0.000000 0.000000 -1.000000
vn 0.000000 0.894200 0.447700
vn -0.000000 -0.894200 -0.447700
vn 0.447700 0.894200 0.000000
vn -0.447700 -0.894200 0.000000
vn 0.000000 -0.894200 0.447700
vn 0.000000 0.894200 -0.447700
vn 0.447700 -0.894200 -0.000000
vn -0.447700 0.894200 0.000000
usemtl Transport
s off
f 2/1/1 4/2/1 8/3/1
f 4/2/2 3/4/2 7/5/2
f 3/4/3 1/6/3 5/7/3
f 1/8/4 2/1/4 6/9/4
f 10/4/1 12/6/1 16/7/1
f 12/8/2 11/1/2 15/9/2
f 11/1/3 9/2/3 13/3/3
f 9/2/4 10/4/4 14/5/4
f 18/8/1 20/1/1 24/9/1
f 20/1/2 19/2/2 23/3/2
f 19/2/3 17/4/3 21/5/3
f 17/4/4 18/6/4 22/7/4
f 30/10/1 32/11/1 28/12/1
f 29/13/3 25/14/3 27/15/3
f 27/15/5 25/14/5 26/16/5
f 30/17/6 29/13/6 31/18/6
f 38/10/1 40/11/1 36/12/1
f 37/13/3 33/14/3 35/15/3
f 35/15/5 33/14/5 34/16/5
f 40/19/6 38/17/6 37/13/6
f 46/10/1 48/11/1 44/12/1
f 45/13/3 41/14/3 43/15/3
f 43/15/5 41/14/5 42/16/5
f 46/17/6 45/13/6 47/18/6
f 54/10/1 56/11/1 52/12/1
f 53/13/3 49/14/3 51/15/3
f 51/15/5 49/14/5 50/16/5
f 56/19/6 54/17/6 53/13/6
f 62/13/2 64/18/2 60/15/2
f 61/10/4 57/16/4 59/12/4
f 60/15/7 59/12/7 57/16/7
f 62/13/8 61/17/8 63/19/8
f 70/13/2 72/18/2 68/15/2
f 69/10/4 65/16/4 67/12/4
f 67/12/7 65/16/7 66/14/7
f 72/18/8 70/13/8 69/17/8
f 78/13/2 80/18/2 76/15/2
f 77/10/4 73/16/4 75/12/4
f 75/12/7 73/16/7 74/14/7
f 80/18/8 78/13/8 77/17/8
f 86/13/2 88/18/2 84/15/2
f 85/10/4 81/16/4 83/12/4
f 83/12/7 81/16/7 82/14/7
f 88/18/8 86/13/8 85/17/8
f 91/13/9 92/17/9 90/19/9
f 94/12/10 96/16/10 95/14/10
f 92/10/1 96/16/1 94/12/1
f 91/13/3 89/18/3 93/15/3
f 99/13/9 100/17/9 98/19/9
f 102/12/10 104/16/10 103/14/10
f 100/10/1 104/16/1 102/12/1
f 99/13/3 97/18/3 101/15/3
f 105/18/9 107/13/9 108/17/9
f 110/12/10 112/16/10 111/14/10
f 108/10/1 112/16/1 110/12/1
f 107/13/3 105/18/3 109/15/3
f 113/18/9 115/13/9 116/17/9
f 118/12/10 120/16/10 119/14/10
f 116/10/1 120/16/1 118/12/1
f 115/13/3 113/18/3 117/15/3
f 121/19/8 123/17/8 124/13/8
f 126/15/7 128/14/7 127/16/7
f 124/13/4 128/14/4 126/15/4
f 123/10/2 121/11/2 125/12/2
f 129/19/8 131/17/8 132/13/8
f 134/15/7 136/14/7 135/16/7
f 132/13/4 136/14/4 134/15/4
f 131/10/2 129/11/2 133/12/2
f 139/17/8 140/13/8 138/18/8
f 142/15/7 144/14/7 143/16/7
f 140/13/4 144/14/4 142/15/4
f 139/10/2 137/11/2 141/12/2
f 145/19/8 147/17/8 148/13/8
f 149/12/7 150/15/7 152/14/7
f 148/13/4 152/14/4 150/15/4
f 147/10/2 145/11/2 149/12/2
f 160/4/1 159/6/1 155/7/1
f 158/2/4 160/4/4 156/5/4
f 157/1/3 158/2/3 154/3/3
f 159/8/2 157/1/2 153/9/2
f 168/2/1 167/4/1 163/5/1
f 166/1/4 168/2/4 164/3/4
f 165/8/3 166/1/3 162/9/3
f 167/4/2 165/6/2 161/7/2
f 176/8/1 175/1/1 171/9/1
f 174/4/4 176/6/4 172/7/4
f 173/2/3 174/4/3 170/5/3
f 175/1/2 173/2/2 169/3/2
f 179/13/6 180/17/6 178/19/6
f 181/15/5 182/12/5 184/16/5
f 180/10/3 184/16/3 182/12/3
f 179/13/1 177/18/1 181/15/1
f 185/18/6 187/13/6 188/17/6
f 189/15/5 190/12/5 192/16/5
f 188/10/3 192/16/3 190/12/3
f 187/13/1 185/18/1 189/15/1
f 193/18/6 195/13/6 196/17/6
f 197/15/5 198/12/5 200/16/5
f 196/10/3 200/16/3 198/12/3
f 195/13/1 193/18/1 197/15/1
f 203/13/6 204/17/6 202/19/6
f 205/15/5 206/12/5 208/16/5
f 204/10/3 208/16/3 206/12/3
f 203/13/1 201/18/1 205/15/1
f 209/19/11 211/17/11 212/13/11
f 214/15/12 216/14/12 215/16/12
f 212/13/2 216/14/2 214/15/2
f 211/10/4 209/11/4 213/12/4
f 217/19/11 219/17/11 220/13/11
f 222/15/12 224/14/12 223/16/12
f 220/13/2 224/14/2 222/15/2
f 219/10/4 217/11/4 221/12/4
f 225/19/11 227/17/11 228/13/11
f 230/15/12 232/14/12 231/16/12
f 228/13/2 232/14/2 230/15/2
f 227/10/4 225/11/4 229/12/4
f 235/17/11 236/13/11 234/18/11
f 237/12/12 238/15/12 240/14/12
f 236/13/2 240/14/2 238/15/2
f 235/10/4 233/11/4 237/12/4
f 248/4/3 247/6/3 243/7/3
f 246/2/2 248/4/2 244/5/2
f 245/1/1 246/2/1 242/3/1
f 247/8/4 245/1/4 241/9/4
f 256/3/3 255/9/3 251/1/3
f 254/5/2 256/3/2 252/2/2
f 253/7/1 254/5/1 250/4/1
f 255/9/4 253/20/4 249/8/4
f 264/8/3 263/1/3 259/9/3
f 262/4/2 264/6/2 260/7/2
f 261/2/1 262/4/1 258/5/1
f 263/1/4 261/2/4 257/3/4
f 266/1/3 268/2/3 272/3/3
f 268/2/4 267/4/4 271/5/4
f 267/4/1 265/6/1 269/7/1
f 265/8/2 266/1/2 270/9/2
f 274/4/3 276/6/3 280/7/3
f 276/8/4 275/1/4 279/9/4
f 275/1/1 273/2/1 277/3/1
f 273/2/2 274/4/2 278/5/2
f 282/8/3 284/1/3 288/9/3
f 284/1/4 283/2/4 287/3/4
f 283/2/1 281/4/1 285/5/1
f 281/4/2 282/6/2 286/7/2
f 294/10/3 296/11/3 292/12/3
f 293/13/1 289/14/1 291/15/1
f 292/12/10 291/15/10 289/14/10
f 296/19/9 294/17/9 293/13/9
f 302/10/3 304/11/3 300/12/3
f 301/13/1 297/14/1 299/15/1
f 300/12/10 299/15/10 297/14/10
f 304/19/9 302/17/9 301/13/9
f 310/10/3 312/11/3 308/12/3
f 309/13/1 305/14/1 307/15/1
f 308/12/10 307/15/10 305/14/10
f 310/17/9 309/13/9 311/18/9
f 318/10/3 320/11/3 316/12/3
f 317/13/1 313/14/1 315/15/1
f 316/12/10 315/15/10 313/14/10
f 320/19/9 318/17/9 317/13/9
f 326/13/4 328/18/4 324/15/4
f 325/10/2 321/16/2 323/12/2
f 323/12/12 321/16/12 322/14/12
f 328/18/11 326/13/11 325/17/11
f 334/13/4 336/18/4 332/15/4
f 333/10/2 329/16/2 331/12/2
f 331/12/12 329/16/12 330/14/12
f 336/18/11 334/13/11 333/17/11
f 342/13/4 344/18/4 340/15/4
f 341/10/2 337/16/2 339/12/2
f 340/15/12 339/12/12 337/16/12
f 344/18/11 342/13/11 341/17/11
f 350/13/4 352/18/4 348/15/4
f 349/10/2 345/16/2 347/12/2
f 347/12/12 345/16/12 346/14/12
f 352/18/11 350/13/11 349/17/11
f 6/9/1 2/1/1 8/3/1
f 8/3/2 4/2/2 7/5/2
f 7/5/3 3/4/3 5/7/3
f 5/20/4 1/8/4 6/9/4
f 14/5/1 10/4/1 16/7/1
f 16/20/2 12/8/2 15/9/2
f 15/9/3 11/1/3 13/3/3
f 13/3/4 9/2/4 14/5/4
f 22/20/1 18/8/1 24/9/1
f 24/9/2 20/1/2 23/3/2
f 23/3/3 19/2/3 21/5/3
f 21/5/4 17/4/4 22/7/4
f 26/16/1 30/10/1 28/12/1
f 31/18/3 29/13/3 27/15/3
f 28/12/5 27/15/5 26/16/5
f 32/19/6 30/17/6 31/18/6
f 34/16/1 38/10/1 36/12/1
f 39/18/3 37/13/3 35/15/3
f 36/12/5 35/15/5 34/16/5
f 39/18/6 40/19/6 37/13/6
f 42/16/1 46/10/1 44/12/1
f 47/18/3 45/13/3 43/15/3
f 44/12/5 43/15/5 42/16/5
f 48/19/6 46/17/6 47/18/6
f 50/16/1 54/10/1 52/12/1
f 55/18/3 53/13/3 51/15/3
f 52/12/5 51/15/5 50/16/5
f 55/18/6 56/19/6 53/13/6
f 58/14/2 62/13/2 60/15/2
f 63/11/4 61/10/4 59/12/4
f 58/14/7 60/15/7 57/16/7
f 64/18/8 62/13/8 63/19/8
f 66/14/2 70/13/2 68/15/2
f 71/11/4 69/10/4 67/12/4
f 68/15/7 67/12/7 66/14/7
f 71/19/8 72/18/8 69/17/8
f 74/14/2 78/13/2 76/15/2
f 79/11/4 77/10/4 75/12/4
f 76/15/7 75/12/7 74/14/7
f 79/19/8 80/18/8 77/17/8
f 82/14/2 86/13/2 84/15/2
f 87/11/4 85/10/4 83/12/4
f 84/15/7 83/12/7 82/14/7
f 87/19/8 88/18/8 85/17/8
f 89/18/9 91/13/9 90/19/9
f 93/15/10 94/12/10 95/14/10
f 90/11/1 92/10/1 94/12/1
f 95/14/3 91/13/3 93/15/3
f 97/18/9 99/13/9 98/19/9
f 101/15/10 102/12/10 103/14/10
f 98/11/1 100/10/1 102/12/1
f 103/14/3 99/13/3 101/15/3
f 106/19/9 105/18/9 108/17/9
f 109/15/10 110/12/10 111/14/10
f 106/11/1 108/10/1 110/12/1
f 111/14/3 107/13/3 109/15/3
f 114/19/9 113/18/9 116/17/9
f 117/15/10 118/12/10 119/14/10
f 114/11/1 116/10/1 118/12/1
f 119/14/3 115/13/3 117/15/3
f 122/18/8 121/19/8 124/13/8
f 125/12/7 126/15/7 127/16/7
f 122/18/4 124/13/4 126/15/4
f 127/16/2 123/10/2 125/12/2
f 130/18/8 129/19/8 132/13/8
f 133/12/7 134/15/7 135/16/7
f 130/18/4 132/13/4 134/15/4
f 135/16/2 131/10/2 133/12/2
f 137/19/8 139/17/8 138/18/8
f 141/12/7 142/15/7 143/16/7
f 138/18/4 140/13/4 142/15/4
f 143/16/2 139/10/2 141/12/2
f 146/18/8 145/19/8 148/13/8
f 151/16/7 149/12/7 152/14/7
f 146/18/4 148/13/4 150/15/4
f 151/16/2 147/10/2 149/12/2
f 156/5/1 160/4/1 155/7/1
f 154/3/4 158/2/4 156/5/4
f 153/9/3 157/1/3 154/3/3
f 155/20/2 159/8/2 153/9/2
f 164/3/1 168/2/1 163/5/1
f 162/9/4 166/1/4 164/3/4
f 161/20/3 165/8/3 162/9/3
f 163/5/2 167/4/2 161/7/2
f 172/20/1 176/8/1 171/9/1
f 170/5/4 174/4/4 172/7/4
f 169/3/3 173/2/3 170/5/3
f 171/9/2 175/1/2 169/3/2
f 177/18/6 179/13/6 178/19/6
f 183/14/5 181/15/5 184/16/5
f 178/11/3 180/10/3 182/12/3
f 183/14/1 179/13/1 181/15/1
f 186/19/6 185/18/6 188/17/6
f 191/14/5 189/15/5 192/16/5
f 186/11/3 188/10/3 190/12/3
f 191/14/1 187/13/1 189/15/1
f 194/19/6 193/18/6 196/17/6
f 199/14/5 197/15/5 200/16/5
f 194/11/3 196/10/3 198/12/3
f 199/14/1 195/13/1 197/15/1
f 201/18/6 203/13/6 202/19/6
f 207/14/5 205/15/5 208/16/5
f 202/11/3 204/10/3 206/12/3
f 207/14/1 203/13/1 205/15/1
f 210/18/11 209/19/11 212/13/11
f 213/12/12 214/15/12 215/16/12
f 210/18/2 212/13/2 214/15/2
f 215/16/4 211/10/4 213/12/4
f 218/18/11 217/19/11 220/13/11
f 221/12/12 222/15/12 223/16/12
f 218/18/2 220/13/2 222/15/2
f 223/16/4 219/10/4 221/12/4
f 226/18/11 225/19/11 228/13/11
f 229/12/12 230/15/12 231/16/12
f 226/18/2 228/13/2 230/15/2
f 231/16/4 227/10/4 229/12/4
f 233/19/11 235/17/11 234/18/11
f 239/16/12 237/12/12 240/14/12
f 234/18/2 236/13/2 238/15/2
f 239/16/4 235/10/4 237/12/4
f 244/5/3 248/4/3 243/7/3
f 242/3/2 246/2/2 244/5/2
f 241/9/1 245/1/1 242/3/1
f 243/20/4 247/8/4 241/9/4
f 252/2/3 256/3/3 251/1/3
f 250/4/2 254/5/2 252/2/2
f 249/6/1 253/7/1 250/4/1
f 251/1/4 255/9/4 249/8/4
f 260/20/3 264/8/3 259/9/3
f 258/5/2 262/4/2 260/7/2
f 257/3/1 261/2/1 258/5/1
f 259/9/4 263/1/4 257/3/4
f 270/9/3 266/1/3 272/3/3
f 272/3/4 268/2/4 271/5/4
f 271/5/1 267/4/1 269/7/1
f 269/20/2 265/8/2 270/9/2
f 278/5/3 274/4/3 280/7/3
f 280/20/4 276/8/4 279/9/4
f 279/9/1 275/1/1 277/3/1
f 277/3/2 273/2/2 278/5/2
f 286/20/3 282/8/3 288/9/3
f 288/9/4 284/1/4 287/3/4
f 287/3/1 283/2/1 285/5/1
f 285/5/2 281/4/2 286/7/2
f 290/16/3 294/10/3 292/12/3
f 295/18/1 293/13/1 291/15/1
f 290/16/10 292/12/10 289/14/10
f 295/18/9 296/19/9 293/13/9
f 298/16/3 302/10/3 300/12/3
f 303/18/1 301/13/1 299/15/1
f 298/16/10 300/12/10 297/14/10
f 303/18/9 304/19/9 301/13/9
f 306/16/3 310/10/3 308/12/3
f 311/18/1 309/13/1 307/15/1
f 306/16/10 308/12/10 305/14/10
f 312/19/9 310/17/9 311/18/9
f 314/16/3 318/10/3 316/12/3
f 319/18/1 317/13/1 315/15/1
f 314/16/10 316/12/10 313/14/10
f 319/18/9 320/19/9 317/13/9
f 322/14/4 326/13/4 324/15/4
f 327/11/2 325/10/2 323/12/2
f 324/15/12 323/12/12 322/14/12
f 327/19/11 328/18/11 325/17/11
f 330/14/4 334/13/4 332/15/4
f 335/11/2 333/10/2 331/12/2
f 332/15/12 331/12/12 330/14/12
f 335/19/11 336/18/11 333/17/11
f 338/14/4 342/13/4 340/15/4
f 343/11/2 341/10/2 339/12/2
f 338/14/12 340/15/12 337/16/12
f 343/19/11 344/18/11 341/17/11
f 346/14/4 350/13/4 348/15/4
f 351/11/2 349/10/2 347/12/2
f 348/15/12 347/12/12 346/14/12
f 351/19/11 352/18/11 349/17/11
