# Blender v2.73 (sub 0) OBJ File: 'Map.blend'
# www.blender.org
mtllib Transport.mtl
o Transport
v -1.260607 3.104182 -2.491104
v -1.009395 2.998661 -2.491104
v -0.011249 2.998661 -2.491104
v 0.239963 3.104182 -2.491104
v 0.239963 3.523454 -2.491104
v -0.011249 3.628975 -2.491104
v -1.009395 3.628975 -2.491104
v -1.260607 3.523454 -2.491104
v -1.260607 3.104182 -2.078082
v -1.009395 2.998661 -2.078082
v -0.011249 2.998661 -2.078082
v 0.239963 3.104182 -2.078082
v 0.239963 3.523454 -2.078082
v -0.011249 3.628975 -2.078082
v -1.009395 3.628975 -2.078082
v -1.260607 3.523454 -2.078082
v -2.491104 0.022285 2.491104
v -2.491104 0.022285 -2.491104
v 2.491104 0.022285 -2.491104
v 2.491104 0.022285 2.491104
v -2.491104 -0.403684 2.491104
v -2.491104 -0.403684 -2.491104
v 2.491104 -0.403684 -2.491104
v 2.491104 -0.403684 2.491104
v -2.626464 -0.033872 -2.626464
v -2.626464 -0.033872 2.626464
v 2.626464 -0.033872 -2.626464
v 2.626464 -0.033872 2.626464
v -2.626464 -0.347527 -2.626464
v -2.626464 -0.347527 2.626464
v 2.626464 -0.347527 -2.626464
v 2.626464 -0.347527 2.626464
v -2.491104 4.580161 2.491104
v -2.491104 4.580161 -2.491104
v 2.491104 4.580161 -2.491104
v 2.491104 4.580161 2.491104
v -2.078082 1.005179 2.078082
v -2.078082 1.005179 -2.078082
v 2.078082 1.005179 -2.078082
v 2.078082 1.005179 2.078082
v -2.078082 4.308366 2.078082
v -2.078082 4.308366 -2.078082
v 2.078082 4.308366 -2.078082
v 2.078082 4.308366 2.078082
v -2.077023 3.832857 0.154572
v -2.229588 3.832857 0.001923
v -2.076939 3.832857 -0.154813
v -2.121673 3.832857 0.046633
v -2.229588 3.832857 -1.742176
v -2.077458 3.832857 -1.894824
v -2.076939 3.832857 -1.589527
v -2.121801 3.832857 -1.786886
v -2.338455 3.832857 0.001923
v -2.491104 3.832857 0.154572
v -2.491104 3.832857 -0.150726
v -2.446394 3.832857 0.046633
v -2.491104 3.832857 -1.894825
v -2.338455 3.832857 -1.742176
v -2.491104 3.832857 -1.525361
v -2.446394 3.832857 -1.786886
v -2.491104 1.017895 0.154572
v -2.338455 1.017895 0.001923
v -2.491104 1.017895 -0.162412
v -2.446394 1.017895 0.046633
v -2.338455 1.017895 -1.742176
v -2.491104 1.017895 -1.894825
v -2.491104 1.017895 -1.589527
v -2.446394 1.017895 -1.786886
v -2.077459 1.017895 -1.894824
v -2.229588 1.017895 -1.742176
v -2.121801 1.017895 -1.786885
v -2.229588 1.017895 0.001923
v -2.077024 1.017895 0.154572
v -2.121674 1.017895 0.046633
v 2.492945 3.796983 1.888622
v 2.346946 3.796983 1.742176
v 2.493392 3.796983 1.534172
v 2.450368 3.796983 1.785069
v 2.346946 3.796983 -0.001923
v 2.493258 3.796983 -0.148369
v 2.493392 3.796983 0.144524
v 2.450460 3.796983 -0.044816
v 2.079146 3.796983 -0.148369
v 2.225673 3.796983 -0.001923
v 2.079227 3.796983 0.148444
v 2.122096 3.796983 -0.044816
v 2.225673 1.017895 -0.001923
v 2.079146 1.017895 -0.148369
v 1.442869 1.017895 0.178377
v 2.122096 1.017895 -0.044816
v 2.493257 1.017895 -0.148369
v 2.346945 1.017895 -0.001923
v 2.493392 1.017895 0.155735
v 2.450459 1.017895 -0.044816
v 2.346945 1.017895 1.742176
v 2.492944 1.017895 1.888622
v 2.493392 1.017895 1.595730
v 2.450367 1.017895 1.785069
v 2.225672 3.796983 1.742176
v 2.078727 3.796983 1.888622
v 2.079226 3.796983 1.595730
v 2.121973 3.796983 1.785069
v 2.078727 1.017895 1.888622
v 2.225672 1.017895 1.742176
v 1.442869 1.017895 1.415233
v 2.121973 1.017895 1.785069
vt 0.906800 0.522097
vt 0.885250 0.522097
vt 0.885250 0.506362
vt 0.885250 0.454282
vt 0.906800 0.454282
vt 0.906800 0.506362
vt 0.885250 0.438548
vt 0.906800 0.438548
vt 0.885250 0.403964
vt 0.906800 0.403964
vt 0.885250 0.388230
vt 0.885250 0.572415
vt 0.906800 0.572415
vt 0.906800 0.624495
vt 0.885250 0.556681
vt 0.906800 0.556681
vt 0.972062 0.724509
vt 0.972064 0.889444
vt 0.964866 0.889445
vt 0.982002 0.363703
vt 0.740587 0.363703
vt 0.740587 0.014564
vt 0.049131 0.977630
vt 0.049131 0.953604
vt 0.303664 0.953603
vt 0.055690 0.704345
vt 0.297105 0.704345
vt 0.297105 0.945760
vt 0.328975 0.952319
vt 0.304949 0.952319
vt 0.304948 0.697787
vt 0.303664 0.672475
vt 0.303664 0.696502
vt 0.049132 0.696502
vt 0.023820 0.697786
vt 0.047847 0.697786
vt 0.047847 0.952319
vt 0.023821 0.952319
vt 0.015977 0.945760
vt 0.015977 0.704345
vt 0.049132 0.672476
vt 0.055690 0.664632
vt 0.297105 0.664632
vt 0.328975 0.697787
vt 0.336819 0.704346
vt 0.336818 0.945760
vt 0.303664 0.977630
vt 0.297105 0.985474
vt 0.055690 0.985474
vt 0.055690 0.945760
vt 0.521356 0.825208
vt 0.531922 0.832647
vt 0.531922 0.837952
vt 0.627370 0.305837
vt 0.627370 0.090588
vt 0.971409 0.404716
vt 0.971410 0.571782
vt 0.964948 0.571782
vt 0.612577 0.305837
vt 0.528066 0.090588
vt 0.528066 0.305837
vt 0.499173 0.363703
vt 0.542859 0.090588
vt 0.499173 0.014565
vt 0.454566 0.845391
vt 0.446928 0.837952
vt 0.446928 0.832647
vt 0.623266 0.386819
vt 0.623265 0.639114
vt 0.421877 0.639113
vt 0.672859 0.894870
vt 0.672859 0.693482
vt 0.874247 0.693482
vt 0.572578 0.729359
vt 0.401477 0.790645
vt 0.401418 0.697151
vt 0.328376 0.602068
vt 0.398505 0.602068
vt 0.964965 0.571782
vt 0.964966 0.404716
vt 0.815773 0.618904
vt 0.815775 0.386818
vt 0.824655 0.386818
vt 0.610634 0.713476
vt 0.616528 0.713478
vt 0.623645 0.720597
vt 0.257760 0.363703
vt 0.144242 0.305838
vt 0.144241 0.090589
vt 0.603450 0.899170
vt 0.401456 0.890260
vt 0.572574 0.789485
vt 0.016345 0.363704
vt 0.016344 0.014566
vt 0.045538 0.090589
vt 0.524292 0.846880
vt 0.531619 0.854016
vt 0.531619 0.859926
vt 0.220489 0.386818
vt 0.313994 0.386818
vt 0.313994 0.602068
vt 0.412697 0.602068
vt 0.412698 0.386818
vt 0.421878 0.386818
vt 0.964883 0.724510
vt 0.019101 0.386818
vt 0.119250 0.538788
vt 0.119250 0.587071
vt 0.220489 0.639113
vt 0.019101 0.639113
vt 0.058712 0.546871
vt 0.131423 0.546871
vt 0.131423 0.578988
vt 0.058712 0.578988
vt 0.070885 0.587071
vt 0.070885 0.538788
vt 0.379012 0.290841
vt 0.427377 0.290841
vt 0.439549 0.250642
vt 0.257759 0.014565
vt 0.366839 0.250642
vt 0.379012 0.242559
vt 0.427377 0.242559
vt 0.439549 0.282758
vt 0.366839 0.282759
vt 0.439489 0.845387
vt 0.444749 0.843211
vt 0.534100 0.843205
vt 0.524483 0.845391
vt 0.539360 0.845366
vt 0.444749 0.827387
vt 0.454367 0.825208
vt 0.439489 0.821660
vt 0.539360 0.813414
vt 0.534100 0.827387
vt 0.381349 0.795308
vt 0.383522 0.795893
vt 0.381349 0.806054
vt 0.388769 0.798066
vt 0.388770 0.882841
vt 0.383524 0.885015
vt 0.381350 0.875422
vt 0.381351 0.905757
vt 0.985277 0.568234
vt 0.978343 0.571782
vt 0.978343 0.404716
vt 0.951098 0.420211
vt 0.958032 0.404716
vt 0.958031 0.571782
vt 0.964948 0.404716
vt 0.731461 0.602069
vt 0.824653 0.639115
vt 0.716470 0.604793
vt 0.716470 0.386820
vt 0.059730 0.090589
vt 0.951083 0.571782
vt 0.951083 0.404716
vt 0.978352 0.404716
vt 0.978352 0.571782
vt 0.985278 0.404716
vt 0.985277 0.571782
vt 0.394062 0.882841
vt 0.394061 0.798066
vt 0.399306 0.795892
vt 0.612010 0.090588
vt 0.439489 0.855726
vt 0.444536 0.864966
vt 0.456762 0.867063
vt 0.446626 0.859926
vt 0.533710 0.864971
vt 0.524483 0.867063
vt 0.538756 0.863652
vt 0.538756 0.844263
vt 0.533710 0.848969
vt 0.623628 0.809842
vt 0.621548 0.800336
vt 0.623636 0.790588
vt 0.616517 0.798251
vt 0.621556 0.711394
vt 0.623626 0.721227
vt 0.446626 0.854016
vt 0.444536 0.848963
vt 0.453763 0.846880
vt 0.439489 0.830705
vt 0.951576 0.724510
vt 0.958229 0.724510
vt 0.958229 0.889445
vt 0.951576 0.878130
vt 0.951574 0.739375
vt 0.978730 0.724510
vt 0.978731 0.889445
vt 0.985380 0.728982
vt 0.985381 0.886040
vt 0.985382 0.724509
vt 0.985384 0.873294
vt 0.045539 0.305838
vt 0.062714 0.305838
vt 0.545968 0.305837
vt 0.130049 0.305838
vt 0.605588 0.800335
vt 0.603500 0.805368
vt 0.129505 0.090589
vt 0.603493 0.706356
vt 0.605594 0.711390
vt 0.610623 0.798250
vt 0.399301 0.885014
vt 0.603449 0.697127
vt 0.906800 0.388230
vt 0.885250 0.624495
vt 0.982002 0.014564
vt 0.874247 0.894870
vt 0.401427 0.899190
vt 0.985277 0.409378
vt 0.951097 0.559988
vt 0.800980 0.602069
vt 0.951576 0.886832
vn 0.387300 0.922000 0.000000
vn 0.000000 1.000000 0.000000
vn -0.387300 0.922000 0.000000
vn -1.000000 0.000000 0.000000
vn -0.387300 -0.922000 0.000000
vn 0.000000 -1.000000 0.000000
vn 0.387300 -0.922000 0.000000
vn 1.000000 0.000000 0.000000
vn 0.000000 -0.000000 -1.000000
vn 0.000000 0.000000 1.000000
vn -0.383200 0.923700 0.000000
vn 0.000000 0.923700 -0.383200
vn 0.383200 0.923700 0.000000
vn 0.000000 0.923700 0.383200
vn -0.383200 -0.923700 0.000000
vn 0.000000 -0.923700 -0.383200
vn 0.383200 -0.923700 0.000000
vn 0.000000 -0.923700 0.383200
vn -0.002400 1.000000 0.006600
vn -1.000000 -0.002200 -0.000000
vn 1.000000 0.000000 -0.003400
vn 1.000000 -0.000000 -0.000900
vn 0.002800 1.000000 -0.004800
vn 1.000000 0.000000 0.003100
vn -1.000000 0.000000 0.000600
vn -1.000000 0.000000 -0.003400
vn -0.923900 0.000000 -0.382700
vn -0.382700 0.000000 -0.923900
vn -0.923900 0.000000 0.382700
vn -0.382700 0.000000 0.923900
vn 0.382800 -0.000000 -0.923800
vn 1.000000 0.003500 0.000300
vn 1.000000 -0.000000 0.000600
vn 1.000000 -0.000900 0.001500
vn 0.924100 -0.000000 -0.382200
vn 0.383100 -0.000000 0.923700
vn 0.925000 0.000000 0.380000
vn -0.923700 -0.000000 0.383100
vn -0.382600 0.000000 0.923900
vn 0.383100 -0.000000 -0.923700
vn 0.924900 -0.000000 -0.380300
vn 0.382800 -0.000000 0.923800
vn 0.924200 -0.000000 0.382000
vn -0.382200 0.000000 -0.924100
vn -0.922800 0.000000 -0.385400
vn 1.000000 0.001400 0.001300
vn 1.000000 0.002900 0.000000
vn 1.000000 -0.003300 -0.000400
vn 1.000000 0.001400 -0.000500
vn 1.000000 -0.002300 0.000000
vn 1.000000 -0.002200 0.000000
vn 0.000000 0.999800 0.019200
vn -1.000000 -0.002100 0.000000
vn -1.000000 -0.000600 -0.001700
vn -1.000000 -0.003300 0.000300
vn -0.003400 1.000000 -0.006600
vn 0.000000 0.997600 -0.069200
vn 1.000000 0.002400 0.000000
vn 1.000000 0.002200 0.000000
vn 1.000000 0.000700 -0.001700
vn -0.049700 0.996500 0.066700
usemtl Transport
s off
f 1/1/1 9/2/1 10/3/1
f 11/4/2 3/5/2 2/6/2
f 12/7/3 4/8/3 3/5/3
f 4/8/4 12/7/4 13/9/4
f 5/10/5 13/9/5 14/11/5
f 15/12/6 7/13/6 6/14/6
f 16/15/7 8/16/7 7/13/7
f 9/2/8 1/1/8 8/16/8
f 104/17/9 99/18/9 76/19/9
f 36/20/10 33/21/10 17/22/10
f 26/23/10 30/24/10 32/25/10
f 22/26/6 23/27/6 24/28/6
f 28/29/8 32/30/8 31/31/8
f 27/32/9 31/33/9 29/34/9
f 25/35/4 29/36/4 30/37/4
f 26/38/11 17/39/11 18/40/11
f 25/41/12 18/42/12 19/43/12
f 27/44/13 19/45/13 20/46/13
f 28/47/14 20/48/14 17/49/14
f 29/36/15 22/26/15 21/50/15
f 31/33/16 23/27/16 22/26/16
f 32/30/17 24/28/17 23/27/17
f 30/24/18 21/50/18 24/28/18
f 35/28/2 34/50/2 33/26/2
f 59/51/6 58/52/6 49/53/6
f 33/21/4 54/54/4 61/55/4
f 62/56/9 53/57/9 46/58/9
f 55/59/4 54/54/4 33/21/4
f 66/60/4 57/61/4 34/62/4
f 67/63/4 66/60/4 18/64/4
f 47/65/6 46/66/6 53/67/6
f 37/68/9 41/69/9 44/70/9
f 41/71/6 42/72/6 43/73/6
f 105/74/19 73/75/19 37/76/19
f 44/70/20 85/77/20 101/78/20
f 58/79/10 65/80/10 70/56/10
f 50/81/21 69/82/21 38/83/21
f 104/84/2 95/85/2 97/86/2
f 35/87/22 80/88/22 91/89/22
f 39/90/23 69/91/23 89/92/23
f 36/93/24 20/94/24 96/95/24
f 85/96/6 84/97/6 79/98/6
f 39/99/25 88/100/25 83/101/25
f 100/102/26 103/103/26 40/104/26
f 84/19/10 87/105/10 92/17/10
f 38/106/10 39/99/10 11/107/10
f 14/108/10 43/109/10 42/110/10
f 42/110/10 38/106/10 9/111/10
f 12/112/10 39/99/10 43/109/10
f 14/108/10 13/113/10 43/109/10
f 16/114/10 15/115/10 42/110/10
f 10/116/10 9/111/10 38/106/10
f 12/112/10 11/107/10 39/99/10
f 6/117/9 7/118/9 34/62/9
f 1/119/9 18/64/9 34/62/9
f 35/87/9 19/120/9 4/121/9
f 3/122/9 19/120/9 18/64/9
f 4/121/9 19/120/9 3/122/9
f 2/123/9 18/64/9 1/119/9
f 8/124/9 34/62/9 7/118/9
f 6/117/9 35/87/9 5/125/9
f 45/126/6 48/127/6 47/65/6
f 48/127/6 46/66/6 47/65/6
f 49/53/6 52/128/6 51/129/6
f 52/128/6 50/130/6 51/129/6
f 53/67/6 56/131/6 55/132/6
f 56/131/6 54/133/6 55/132/6
f 57/134/6 60/135/6 59/51/6
f 60/135/6 58/52/6 59/51/6
f 61/136/2 64/137/2 63/138/2
f 64/137/2 62/139/2 63/138/2
f 65/140/2 68/141/2 67/142/2
f 68/141/2 66/143/2 67/142/2
f 54/144/27 56/145/27 64/146/27
f 56/145/28 53/57/28 62/56/28
f 66/147/29 68/148/29 60/149/29
f 68/148/30 65/80/30 58/79/30
f 72/150/31 46/58/31 48/149/31
f 47/151/32 42/152/32 45/153/32
f 47/65/6 55/132/6 59/51/6
f 37/68/33 73/154/33 45/153/33
f 65/140/2 67/142/2 63/138/2
f 96/95/34 20/94/34 97/155/34
f 48/149/35 45/156/35 73/157/35
f 70/56/36 71/158/36 52/159/36
f 71/158/37 69/160/37 50/161/37
f 70/162/2 72/163/2 74/164/2
f 65/140/2 62/139/2 72/163/2
f 18/64/4 17/22/4 61/55/4
f 67/63/4 18/64/4 63/165/4
f 18/64/4 61/55/4 63/165/4
f 75/166/6 78/167/6 77/168/6
f 78/167/6 76/169/6 77/168/6
f 79/98/6 82/170/6 81/171/6
f 82/170/6 80/172/6 81/171/6
f 83/173/6 86/174/6 85/96/6
f 86/174/6 84/97/6 85/96/6
f 91/175/2 94/176/2 93/177/2
f 94/176/2 92/178/2 93/177/2
f 95/85/2 98/179/2 97/86/2
f 98/179/2 96/180/2 97/86/2
f 99/181/6 102/182/6 101/183/6
f 102/182/6 100/184/6 101/183/6
f 88/185/38 90/186/38 86/187/38
f 90/186/39 87/105/39 84/19/39
f 76/19/40 78/187/40 98/186/40
f 78/187/41 75/188/41 96/189/41
f 92/17/42 94/190/42 82/191/42
f 94/190/43 91/192/43 80/193/43
f 104/17/44 106/190/44 102/191/44
f 106/190/45 103/194/45 100/195/45
f 36/93/46 75/196/46 77/197/46
f 55/59/4 34/62/4 59/198/4
f 34/62/4 57/61/4 59/198/4
f 55/59/4 33/21/4 34/62/4
f 36/93/47 81/199/47 35/87/47
f 90/200/2 88/201/2 89/92/2
f 93/202/48 20/94/48 91/89/48
f 81/199/49 80/88/49 35/87/49
f 36/93/47 77/197/47 81/199/47
f 89/92/2 105/74/2 93/177/2
f 20/94/50 93/202/50 97/155/50
f 20/94/51 19/120/51 91/89/51
f 105/74/2 103/203/2 106/204/2
f 105/74/2 89/92/2 73/75/2
f 101/183/6 77/168/6 99/181/6
f 105/74/2 97/86/2 93/177/2
f 104/84/2 97/86/2 105/74/2
f 93/177/2 92/178/2 87/205/2
f 106/204/2 104/84/2 105/74/2
f 81/171/6 85/96/6 79/98/6
f 77/168/6 76/169/6 99/181/6
f 85/96/6 81/171/6 77/168/6
f 101/183/6 85/96/6 77/168/6
f 89/92/2 71/206/2 74/164/2
f 73/75/2 89/92/2 74/164/2
f 89/92/2 87/205/2 90/200/2
f 89/92/2 93/177/2 87/205/2
f 105/74/52 37/76/52 40/207/52
f 83/101/53 44/70/53 43/109/53
f 44/70/54 101/78/54 100/102/54
f 44/70/55 83/101/55 85/77/55
f 2/6/1 1/1/1 10/3/1
f 10/3/2 11/4/2 2/6/2
f 11/4/3 12/7/3 3/5/3
f 5/10/4 4/8/4 13/9/4
f 6/208/5 5/10/5 14/11/5
f 14/209/6 15/12/6 6/14/6
f 15/12/7 16/15/7 7/13/7
f 16/15/8 9/2/8 8/16/8
f 95/105/9 104/17/9 76/19/9
f 20/210/10 36/20/10 17/22/10
f 28/47/10 26/23/10 32/25/10
f 21/50/6 22/26/6 24/28/6
f 27/44/8 28/29/8 31/31/8
f 25/41/9 27/32/9 29/34/9
f 26/38/4 25/35/4 30/37/4
f 25/35/11 26/38/11 18/40/11
f 27/32/12 25/41/12 19/43/12
f 28/29/13 27/44/13 20/46/13
f 26/23/14 28/47/14 17/49/14
f 30/37/15 29/36/15 21/50/15
f 29/34/16 31/33/16 22/26/16
f 31/31/17 32/30/17 23/27/17
f 32/25/18 30/24/18 24/28/18
f 36/27/2 35/28/2 33/26/2
f 51/129/6 59/51/6 49/53/6
f 17/22/4 33/21/4 61/55/4
f 72/150/9 62/56/9 46/58/9
f 18/64/4 66/60/4 34/62/4
f 55/132/6 47/65/6 53/67/6
f 40/104/9 37/68/9 44/70/9
f 44/211/6 41/71/6 43/73/6
f 49/57/10 58/79/10 70/56/10
f 42/152/21 50/81/21 38/83/21
f 19/120/22 35/87/22 91/89/22
f 89/92/56 88/201/56 39/90/56
f 69/91/2 71/206/2 89/92/2
f 39/90/57 38/212/57 69/91/57
f 75/196/24 36/93/24 96/95/24
f 43/109/25 39/99/25 83/101/25
f 44/70/26 100/102/26 40/104/26
f 79/18/10 84/19/10 92/17/10
f 10/116/10 38/106/10 11/107/10
f 15/115/10 14/108/10 42/110/10
f 16/114/10 42/110/10 9/111/10
f 13/113/10 12/112/10 43/109/10
f 35/87/9 6/117/9 34/62/9
f 8/124/9 1/119/9 34/62/9
f 5/125/9 35/87/9 4/121/9
f 2/123/9 3/122/9 18/64/9
f 61/213/27 54/144/27 64/146/27
f 64/146/28 56/145/28 62/56/28
f 57/214/29 66/147/29 60/149/29
f 60/149/30 68/148/30 58/79/30
f 74/148/31 72/150/31 48/149/31
f 42/152/58 47/151/58 51/215/58
f 42/152/59 41/69/59 45/153/59
f 51/215/60 50/81/60 42/152/60
f 51/129/6 47/65/6 59/51/6
f 41/69/33 37/68/33 45/153/33
f 62/139/2 65/140/2 63/138/2
f 74/148/35 48/149/35 73/157/35
f 49/57/36 70/56/36 52/159/36
f 52/159/37 71/158/37 50/161/37
f 71/206/2 70/162/2 74/164/2
f 70/162/2 65/140/2 72/163/2
f 83/216/38 88/185/38 86/187/38
f 86/187/39 90/186/39 84/19/39
f 95/105/40 76/19/40 98/186/40
f 98/186/41 78/187/41 96/189/41
f 79/18/42 92/17/42 82/191/42
f 82/191/43 94/190/43 80/193/43
f 99/18/44 104/17/44 102/191/44
f 102/191/45 106/190/45 100/195/45
f 103/203/61 105/74/61 40/207/61
