o mana-relay
v -0.471656 0.009847 -0.501737
v 0.471656 0.009847 -0.501737
v 0.471656 0.009847 0.501783
v -0.471656 0.009847 0.501783
v 0.471656 0.210563 0.501783
v -0.471656 0.210563 0.501783
v 0.501760 0.009847 0.471678
v 0.501760 0.009847 -0.471633
v 0.501760 0.210563 -0.471633
v 0.501760 0.210563 0.471678
v -0.471656 0.210563 -0.501737
v 0.471656 0.210563 -0.501737
v -0.501760 0.009847 -0.471633
v -0.501760 0.009847 0.471678
v -0.501760 0.210563 0.471678
v -0.501760 0.210563 -0.471633
v 0.170598 0.511607 0.200726
v -0.170598 0.511607 0.200726
v 0.200705 0.511607 -0.170576
v 0.200705 0.511607 0.170621
v -0.170598 0.511607 -0.200682
v 0.170598 0.511607 -0.200682
v -0.200705 0.511607 0.170621
v -0.200705 0.511607 -0.170576
v 0.340615 0.812666 0.370742
v -0.340615 0.812666 0.370742
v 0.370719 0.812666 -0.340592
v 0.370719 0.812666 0.340638
v -0.340615 0.812666 -0.370697
v 0.340615 0.812666 -0.370697
v -0.370719 0.812666 0.340638
v -0.370719 0.812666 -0.340592
v 0.169253 2.992282 0.199383
v -0.169253 2.992282 0.199383
v 0.199359 2.992282 -0.169231
v 0.199359 2.992282 0.169276
v -0.169253 2.992282 -0.199336
v 0.169253 2.992282 -0.199336
v -0.199359 2.992282 0.169276
v -0.199359 2.992282 -0.169231
v 0.000000 3.413284 0.000023
v -0.471656 0.009847 -0.501737
v -0.471656 0.009847 -0.501737
v -0.471656 0.009847 -0.501737
v 0.471656 0.009847 -0.501737
v 0.471656 0.009847 -0.501737
v 0.471656 0.009847 -0.501737
v 0.471656 0.009847 0.501783
v 0.471656 0.009847 0.501783
v 0.471656 0.009847 0.501783
v -0.471656 0.009847 0.501783
v -0.471656 0.009847 0.501783
v -0.471656 0.009847 0.501783
v 0.471656 0.210563 0.501783
v 0.471656 0.210563 0.501783
v 0.471656 0.210563 0.501783
v -0.471656 0.210563 0.501783
v -0.471656 0.210563 0.501783
v -0.471656 0.210563 0.501783
v 0.501760 0.009847 0.471678
v 0.501760 0.009847 0.471678
v 0.501760 0.009847 -0.471633
v 0.501760 0.009847 -0.471633
v 0.501760 0.210563 -0.471633
v 0.501760 0.210563 -0.471633
v 0.501760 0.210563 -0.471633
v 0.501760 0.210563 0.471678
v 0.501760 0.210563 0.471678
v 0.501760 0.210563 0.471678
v -0.471656 0.210563 -0.501737
v -0.471656 0.210563 -0.501737
v -0.471656 0.210563 -0.501737
v 0.471656 0.210563 -0.501737
v 0.471656 0.210563 -0.501737
v 0.471656 0.210563 -0.501737
v -0.501760 0.009847 -0.471633
v -0.501760 0.009847 -0.471633
v -0.501760 0.009847 0.471678
v -0.501760 0.009847 0.471678
v -0.501760 0.210563 0.471678
v -0.501760 0.210563 0.471678
v -0.501760 0.210563 0.471678
v -0.501760 0.210563 -0.471633
v -0.501760 0.210563 -0.471633
v -0.501760 0.210563 -0.471633
v 0.170598 0.511607 0.200726
v 0.170598 0.511607 0.200726
v 0.170598 0.511607 0.200726
v -0.170598 0.511607 0.200726
v -0.170598 0.511607 0.200726
v -0.170598 0.511607 0.200726
v 0.200705 0.511607 -0.170576
v 0.200705 0.511607 -0.170576
v 0.200705 0.511607 -0.170576
v 0.200705 0.511607 0.170621
v 0.200705 0.511607 0.170621
v 0.200705 0.511607 0.170621
v -0.170598 0.511607 -0.200682
v -0.170598 0.511607 -0.200682
v -0.170598 0.511607 -0.200682
v 0.170598 0.511607 -0.200682
v 0.170598 0.511607 -0.200682
v 0.170598 0.511607 -0.200682
v -0.200705 0.511607 0.170621
v -0.200705 0.511607 0.170621
v -0.200705 0.511607 0.170621
v -0.200705 0.511607 -0.170576
v -0.200705 0.511607 -0.170576
v -0.200705 0.511607 -0.170576
v 0.340615 0.812666 0.370742
v 0.340615 0.812666 0.370742
v 0.340615 0.812666 0.370742
v -0.340615 0.812666 0.370742
v -0.340615 0.812666 0.370742
v -0.340615 0.812666 0.370742
v 0.370719 0.812666 -0.340592
v 0.370719 0.812666 -0.340592
v 0.370719 0.812666 -0.340592
v 0.370719 0.812666 0.340638
v 0.370719 0.812666 0.340638
v 0.370719 0.812666 0.340638
v -0.340615 0.812666 -0.370697
v -0.340615 0.812666 -0.370697
v -0.340615 0.812666 -0.370697
v 0.340615 0.812666 -0.370697
v 0.340615 0.812666 -0.370697
v 0.340615 0.812666 -0.370697
v -0.370719 0.812666 0.340638
v -0.370719 0.812666 0.340638
v -0.370719 0.812666 0.340638
v -0.370719 0.812666 -0.340592
v -0.370719 0.812666 -0.340592
v -0.370719 0.812666 -0.340592
v -0.169253 2.992282 0.199383
v -0.169253 2.992282 0.199383
v -0.169253 2.992282 0.199383
v 0.199359 2.992282 -0.169231
v 0.199359 2.992282 -0.169231
v 0.199359 2.992282 -0.169231
v 0.199359 2.992282 0.169276
v 0.199359 2.992282 0.169276
v 0.199359 2.992282 0.169276
v 0.169253 2.992282 -0.199336
v 0.169253 2.992282 -0.199336
v 0.169253 2.992282 -0.199336
v -0.199359 2.992282 0.169276
v -0.199359 2.992282 0.169276
v -0.199359 2.992282 0.169276
v -0.199359 2.992282 -0.169231
v -0.199359 2.992282 -0.169231
v -0.199359 2.992282 -0.169231
v 0.000000 3.413284 0.000023
v 0.000000 3.413284 0.000023
v 0.000000 3.413284 0.000023
v 0.000000 3.413284 0.000023
v 0.000000 3.413284 0.000023
v 0.000000 3.413284 0.000023
v 0.000000 3.413284 0.000023
v 0.169253 2.992282 0.199383
v 0.169253 2.992282 0.199383
v 0.169253 2.992282 0.199383
v -0.169253 2.992282 -0.199336
v -0.169253 2.992282 -0.199336
v -0.169253 2.992282 -0.199336
vt 0.786000 0.000000
vt 0.950700 0.000700
vt 0.950000 0.175900
vt 0.785300 0.175200
vt 0.827900 0.773600
vt 0.663100 0.773600
vt 0.663100 0.738500
vt 0.827900 0.738500
vt 0.655700 0.773600
vt 0.491000 0.773500
vt 0.491000 0.738500
vt 0.655700 0.738500
vt 0.483600 0.773500
vt 0.318900 0.773500
vt 0.318900 0.738500
vt 0.483600 0.738500
vt 1.000000 0.773600
vt 0.835300 0.773600
vt 0.835300 0.738500
vt 1.000000 0.738500
vt 0.002200 0.634100
vt 0.133000 0.533900
vt 0.136400 0.624900
vt 0.089100 0.661200
vt 0.140400 0.533700
vt 0.278400 0.623600
vt 0.193800 0.657200
vt 0.143900 0.624600
vt 0.281200 0.630500
vt 0.242400 0.790600
vt 0.182500 0.722000
vt 0.196500 0.664100
vt 0.050800 0.797900
vt 0.000000 0.641200
vt 0.086900 0.668300
vt 0.105300 0.724900
vt 0.511100 0.630300
vt 0.459100 0.601200
vt 0.462600 0.534000
vt 0.566500 0.592000
vt 0.451700 0.600800
vt 0.396900 0.624300
vt 0.345900 0.580600
vt 0.455200 0.533700
vt 0.392100 0.630000
vt 0.377300 0.687700
vt 0.311400 0.701400
vt 0.341000 0.586200
vt 0.524100 0.695300
vt 0.515400 0.636400
vt 0.570700 0.598100
vt 0.588200 0.715800
vt 0.003800 0.377800
vt 0.000000 0.258900
vt 0.737100 0.265500
vt 0.739000 0.324600
vt 0.000100 0.251500
vt 0.006000 0.132700
vt 0.740100 0.199100
vt 0.737200 0.258100
vt 0.006600 0.125300
vt 0.022200 0.007300
vt 0.748500 0.133100
vt 0.740800 0.191700
vt 0.017700 0.503400
vt 0.004300 0.385200
vt 0.739500 0.332000
vt 0.746200 0.390800
vt 0.149600 0.889900
vt 0.096800 0.916600
vt 0.086500 0.830700
vt 0.089400 0.917100
vt 0.033200 0.898800
vt 0.086500 0.830700
vt 0.027500 0.894000
vt 0.000600 0.841400
vt 0.086500 0.830700
vt 0.173000 0.828100
vt 0.154400 0.884300
vt 0.086500 0.830700
vt 0.663100 0.773600
vt 0.655700 0.773600
vt 0.655700 0.738500
vt 0.663100 0.738500
vt 0.827900 0.738500
vt 0.835300 0.738500
vt 0.835300 0.773600
vt 0.827900 0.773600
vt 0.491000 0.773500
vt 0.483600 0.773500
vt 0.483600 0.738500
vt 0.491000 0.738500
vt 0.318900 0.773500
vt 0.311400 0.773500
vt 0.311400 0.738500
vt 0.318900 0.738500
vt 0.000000 0.641200
vt 0.002200 0.634100
vt 0.089100 0.661200
vt 0.086900 0.668300
vt 0.133000 0.533900
vt 0.140400 0.533700
vt 0.143900 0.624600
vt 0.136400 0.624900
vt 0.278400 0.623600
vt 0.281200 0.630500
vt 0.196500 0.664100
vt 0.193800 0.657200
vt 0.242400 0.790600
vt 0.236800 0.795500
vt 0.176900 0.726900
vt 0.182500 0.722000
vt 0.515400 0.636400
vt 0.511100 0.630300
vt 0.566500 0.592000
vt 0.570700 0.598100
vt 0.459100 0.601200
vt 0.451700 0.600800
vt 0.455200 0.533700
vt 0.462600 0.534000
vt 0.396900 0.624300
vt 0.392100 0.630000
vt 0.341000 0.586200
vt 0.345900 0.580600
vt 0.377300 0.687700
vt 0.378800 0.695000
vt 0.312900 0.708700
vt 0.311400 0.701400
vt 0.004300 0.385200
vt 0.003800 0.377800
vt 0.739000 0.324600
vt 0.739500 0.332000
vt 0.000000 0.258900
vt 0.000100 0.251500
vt 0.737200 0.258100
vt 0.737100 0.265500
vt 0.006000 0.132700
vt 0.006600 0.125300
vt 0.740800 0.191700
vt 0.740100 0.199100
vt 0.022200 0.007300
vt 0.023400 0.000000
vt 0.749800 0.125700
vt 0.748500 0.133100
vt 0.154400 0.884300
vt 0.149600 0.889900
vt 0.086500 0.830700
vt 0.096800 0.916600
vt 0.089400 0.917100
vt 0.086500 0.830700
vt 0.033200 0.898800
vt 0.027500 0.894000
vt 0.086500 0.830700
vt 0.000600 0.841400
vt 0.000000 0.834000
vt 0.086500 0.830700
vt 0.780000 0.169900
vt 0.780700 0.005200
vt 0.786000 0.000000
vt 0.785300 0.175200
vt 0.955900 0.006000
vt 0.955300 0.170700
vt 0.950000 0.175900
vt 0.950700 0.000700
vn 0.0000 -1.0000 -0.0000
vn 0.0000 -0.0000 1.0000
vn 1.0000 0.0000 0.0000
vn 0.0000 0.0000 -1.0000
vn -1.0000 0.0000 0.0000
vn 0.0000 0.7071 0.7071
vn 0.7071 0.7071 0.0000
vn 0.0000 0.7071 -0.7071
vn -0.7071 0.7071 0.0000
vn 0.0000 -0.4917 0.8707
vn 0.8707 -0.4917 -0.0000
vn 0.0000 -0.4917 -0.8707
vn -0.8707 -0.4917 -0.0000
vn 0.0000 0.0784 0.9969
vn 0.9969 0.0784 0.0000
vn 0.0000 0.0784 -0.9969
vn -0.9969 0.0784 0.0000
vn 0.0000 0.4280 0.9038
vn 0.9038 0.4280 0.0000
vn 0.0000 0.4280 -0.9038
vn -0.9038 0.4280 0.0000
vn 0.7071 -0.0000 0.7071
vn -0.7071 -0.0000 0.7071
vn 0.7071 0.0000 -0.7071
vn -0.7071 0.0000 -0.7071
vn -0.4082 0.8165 0.4082
vn 0.4082 0.8165 0.4082
vn 0.4082 0.8165 -0.4082
vn -0.4082 0.8165 -0.4082
vn -0.5525 -0.6240 0.5525
vn 0.5525 -0.6240 0.5525
vn 0.5525 -0.6240 -0.5525
vn -0.5525 -0.6240 -0.5525
vn -0.7028 0.1105 0.7028
vn 0.7028 0.1105 0.7028
vn 0.7028 0.1105 -0.7028
vn -0.7028 0.1105 -0.7028
vn -0.6012 0.5264 0.6012
vn 0.6012 0.5264 0.6012
vn 0.6012 0.5264 -0.6012
vn -0.6012 0.5264 -0.6012
s 1
f 42/1/1 45/2/1 48/3/1 51/4/1
f 52/5/2 49/6/2 54/7/2 57/8/2
f 61/9/3 62/10/3 64/11/3 67/12/3
f 46/13/4 43/14/4 70/15/4 73/16/4
f 77/17/5 78/18/5 80/19/5 83/20/5
f 58/21/6 55/22/6 86/23/6 89/24/6
f 68/25/7 65/26/7 92/27/7 95/28/7
f 74/29/8 71/30/8 98/31/8 101/32/8
f 84/33/9 81/34/9 104/35/9 107/36/9
f 90/37/10 87/38/10 110/39/10 113/40/10
f 96/41/11 93/42/11 116/43/11 119/44/11
f 102/45/12 99/46/12 122/47/12 125/48/12
f 108/49/13 105/50/13 128/51/13 131/52/13
f 114/53/14 112/54/14 159/55/14 134/56/14
f 120/57/15 117/58/15 137/59/15 140/60/15
f 126/61/16 124/62/16 162/63/16 143/64/16
f 132/65/17 129/66/17 146/67/17 149/68/17
f 135/69/18 161/70/18 152/71/18
f 142/72/19 139/73/19 154/74/19
f 145/75/20 164/76/20 155/77/20
f 150/78/21 148/79/21 153/80/21
f 50/81/22 60/82/22 69/83/22 56/84/22
f 59/85/23 82/86/23 79/87/23 53/88/23
f 63/89/24 47/90/24 75/91/24 66/92/24
f 44/93/25 76/94/25 85/95/25 72/96/25
f 15/97/26 6/98/26 91/99/26 106/100/26
f 5/101/27 10/102/27 97/103/27 88/104/27
f 9/105/28 12/106/28 103/107/28 94/108/28
f 11/109/29 16/110/29 109/111/29 100/112/29
f 23/113/30 18/114/30 115/115/30 130/116/30
f 17/117/31 20/118/31 121/119/31 111/120/31
f 19/121/32 22/122/32 127/123/32 118/124/32
f 21/125/33 24/126/33 133/127/33 123/128/33
f 31/129/34 26/130/34 136/131/34 147/132/34
f 25/133/35 28/134/35 141/135/35 160/136/35
f 27/137/36 30/138/36 144/139/36 138/140/36
f 29/141/37 32/142/37 151/143/37 163/144/37
f 39/145/38 34/146/38 156/147/38
f 33/148/39 36/149/39 158/150/39
f 35/151/40 38/152/40 157/153/40
f 37/154/41 40/155/41 41/156/41
f 14/157/1 13/158/1 1/159/1 4/160/1
f 8/161/1 7/162/1 3/163/1 2/164/1
