v -0.348392 1.955474 0.319982
v -0.348392 1.955474 0.253881
v -0.348392 1.902773 0.253881
v -0.348392 1.902773 0.134420
v -0.348392 1.955474 0.134420
v -0.348392 1.955474 0.062129
v -0.348392 1.902773 0.062129
v -0.348392 1.902773 -0.057333
v -0.348392 1.955474 -0.057333
v -0.348392 1.955474 -0.129623
v -0.348392 1.902773 -0.129623
v -0.348392 1.902773 -0.249085
v -0.348392 1.955474 -0.249085
v -0.348392 1.955474 -0.321374
v -0.348392 1.902773 -0.321374
v -0.348392 1.902773 -0.380523
v -0.348392 1.758882 -0.380523
v -0.348392 1.902773 0.379229
v -0.348392 1.902773 0.319982
v -0.296958 1.955474 -0.249085
v -0.296958 1.955474 -0.129623
v -0.296958 1.955474 -0.057333
v -0.296958 1.955474 0.062129
v -0.296958 1.955474 0.134420
v -0.296958 1.955474 0.253881
v -0.296958 1.955474 0.319982
v -0.296958 1.955474 0.323404
v -0.221313 1.955474 0.241299
v -0.221313 1.955474 -0.242592
v -0.296958 1.955474 -0.324696
v -0.296958 1.955474 -0.321374
v -0.296958 1.955474 -0.380523
v -0.251089 1.955474 -0.380523
v -0.251089 1.902773 -0.380523
v -0.131627 1.902773 -0.380523
v -0.131627 1.955474 -0.380523
v -0.059337 1.955474 -0.380523
v -0.059337 1.902773 -0.380523
v 0.060125 1.902773 -0.380523
v 0.060125 1.955474 -0.380523
v 0.132414 1.955474 -0.380523
v 0.132414 1.902773 -0.380523
v 0.251876 1.902773 -0.380523
v 0.251876 1.955474 -0.380523
v 0.292675 1.955474 -0.380523
v 0.292675 1.902773 -0.380523
v 0.351591 1.902773 -0.380523
v -0.296958 1.902773 -0.380523
v 0.292675 1.955474 0.379229
v 0.251876 1.955474 0.379229
v 0.251876 1.902773 0.379229
v 0.132415 1.902773 0.379229
v 0.132415 1.955474 0.379229
v 0.060125 1.955474 0.379229
v 0.060125 1.902773 0.379229
v -0.059337 1.902773 0.379229
v -0.059337 1.955474 0.379229
v -0.131627 1.955474 0.379229
v -0.131627 1.902773 0.379229
v -0.251089 1.902773 0.379229
v -0.251089 1.955474 0.379229
v -0.296958 1.955474 0.379229
v -0.296958 1.902773 0.379229
v 0.351591 1.902773 0.379229
v 0.292675 1.902773 0.379229
v -0.251089 1.955474 0.319811
v -0.131627 1.955474 0.319811
v -0.059337 1.955474 0.319811
v 0.060125 1.955474 0.319811
v 0.132415 1.955474 0.319811
v 0.251876 1.955474 0.319811
v 0.292675 1.955474 0.319982
v 0.297005 1.955474 0.319982
v 0.224512 1.955474 0.241299
v -0.221313 1.881803 0.241299
v -0.221313 1.881804 -0.242592
v 0.251876 1.955474 -0.323039
v 0.132414 1.955474 -0.323039
v 0.060125 1.955474 -0.323039
v -0.059337 1.955474 -0.323039
v -0.131627 1.955474 -0.323039
v -0.251089 1.955474 -0.323039
v 0.224512 1.955474 -0.242592
v 0.297096 1.955474 -0.321374
v 0.292675 1.955474 -0.321374
v 0.351591 1.955474 -0.321374
v 0.351591 1.955474 -0.249085
v 0.351591 1.902773 -0.249085
v 0.351591 1.902773 -0.129623
v 0.351591 1.955474 -0.129623
v 0.351591 1.955474 -0.057333
v 0.351591 1.902773 -0.057333
v 0.351591 1.902773 0.062129
v 0.351591 1.955474 0.062129
v 0.351591 1.955474 0.134420
v 0.351591 1.902773 0.134420
v 0.351591 1.902773 0.253881
v 0.351591 1.955474 0.253881
v 0.351591 1.955474 0.319982
v 0.351591 1.902773 0.319982
v 0.351591 1.902773 -0.321374
v 0.351591 1.758882 -0.380523
v -0.348392 1.758882 0.379229
v 0.292675 1.955474 0.253881
v 0.292675 1.955474 0.134420
v 0.292675 1.955474 0.062129
v 0.292675 1.955474 -0.057333
v 0.292675 1.955474 -0.129623
v 0.292675 1.955474 -0.249085
v 0.224512 1.881803 0.241299
v 0.224512 1.881803 -0.242592
v 0.351591 1.758882 0.379229
v -0.260342 1.759145 -0.284953
v -0.260341 1.759145 0.283660
v 0.263540 1.759145 -0.284953
v 0.263540 1.759145 0.283660
v -0.260342 0.448709 -0.284953
v -0.260341 0.448709 0.283660
v 0.263540 0.448709 -0.284953
v 0.263540 0.448709 0.283660
v -0.296319 0.370966 -0.324003
v -0.296319 0.370966 0.322710
v 0.299518 0.370966 -0.324003
v 0.299518 0.370966 0.322710
v -0.296319 -0.001265 -0.324003
v -0.296319 -0.001265 0.322710
v 0.299518 -0.001265 -0.324003
v 0.299518 -0.001265 0.322710
v 0.412137 2.022235 0.253881
v 0.412137 2.022235 0.134420
v 0.292675 2.022235 0.134420
v 0.292675 2.022235 0.253881
v 0.412137 1.902773 0.253881
v 0.412137 1.902773 0.134420
v 0.412137 2.022235 0.062129
v 0.412137 2.022235 -0.057333
v 0.292675 2.022235 -0.057333
v 0.292675 2.022235 0.062129
v 0.412137 1.902773 0.062129
v 0.412137 1.902773 -0.057333
v 0.412137 2.022235 -0.129623
v 0.412137 2.022235 -0.249085
v 0.292675 2.022235 -0.249085
v 0.292675 2.022235 -0.129623
v 0.412137 1.902773 -0.129623
v 0.412137 1.902773 -0.249085
v 0.412137 2.022235 -0.321374
v 0.412137 2.022235 -0.440837
v 0.292675 2.022235 -0.440837
v 0.292675 2.022235 -0.321374
v 0.412137 1.902773 -0.321374
v 0.412137 1.902773 -0.440837
v 0.292675 1.902773 -0.440837
v -0.416420 2.022235 -0.321374
v -0.416420 2.022235 -0.440837
v -0.416420 1.902773 -0.440837
v -0.416420 1.902773 -0.321374
v -0.296958 2.022235 -0.321374
v -0.296958 2.022235 -0.440837
v -0.296958 1.902773 -0.440837
v -0.416420 2.022235 -0.129623
v -0.416420 2.022235 -0.249085
v -0.416420 1.902773 -0.249085
v -0.416420 1.902773 -0.129623
v -0.296958 2.022235 -0.129623
v -0.296958 2.022235 -0.249085
v -0.416420 2.022235 0.062129
v -0.416420 2.022235 -0.057333
v -0.416420 1.902773 -0.057333
v -0.416420 1.902773 0.062129
v -0.296958 2.022235 0.062129
v -0.296958 2.022235 -0.057333
v -0.416420 2.022235 0.253881
v -0.416420 2.022235 0.134420
v -0.416420 1.902773 0.134420
v -0.416420 1.902773 0.253881
v -0.296958 2.022235 0.253881
v -0.296958 2.022235 0.134420
v -0.416420 2.022235 0.439444
v -0.416420 2.022235 0.319982
v -0.416420 1.902773 0.319982
v -0.416420 1.902773 0.439444
v -0.296958 2.022235 0.439444
v -0.296958 1.902773 0.439444
v -0.296958 2.022235 0.319982
v 0.292675 2.022235 0.439444
v 0.292675 2.022235 0.319982
v 0.292675 1.902773 0.439444
v 0.412137 2.022235 0.439444
v 0.412137 1.902773 0.439444
v 0.412137 2.022235 0.319982
v 0.412137 1.902773 0.319982
v 0.132415 2.022235 0.319811
v 0.251876 2.022235 0.319811
v 0.132415 2.022235 0.439273
v 0.132415 1.902773 0.439273
v 0.251876 2.022235 0.439273
v 0.251876 1.902773 0.439273
v -0.059337 2.022235 0.319811
v 0.060125 2.022235 0.319811
v -0.059337 2.022235 0.439273
v -0.059337 1.902773 0.439273
v 0.060125 2.022235 0.439273
v 0.060125 1.902773 0.439273
v -0.251089 2.022235 0.319811
v -0.131627 2.022235 0.319811
v -0.251089 2.022235 0.439273
v -0.251089 1.902773 0.439273
v -0.131627 2.022235 0.439273
v -0.131627 1.902773 0.439273
v 0.132414 2.022235 -0.442501
v 0.251876 2.022235 -0.442501
v 0.251876 1.902773 -0.442501
v 0.132414 1.902773 -0.442501
v 0.132414 2.022235 -0.323039
v 0.251876 2.022235 -0.323039
v -0.059337 2.022235 -0.442501
v 0.060125 2.022235 -0.442501
v 0.060125 1.902773 -0.442501
v -0.059337 1.902773 -0.442501
v -0.059337 2.022235 -0.323039
v 0.060125 2.022235 -0.323039
v -0.251089 2.022235 -0.442501
v -0.131627 2.022235 -0.442501
v -0.131627 1.902773 -0.442501
v -0.251089 1.902773 -0.442501
v -0.251089 2.022235 -0.323039
v -0.131627 2.022235 -0.323039
v -0.050789 1.452688 0.283660
v 0.053988 1.452688 0.283660
v -0.050789 1.190601 0.283660
v 0.053988 1.190601 0.283660
v 0.263540 1.452688 0.056215
v 0.263540 1.452688 -0.057508
v 0.263540 1.190601 -0.057508
v 0.263540 1.190601 0.056215
v -0.260342 1.452688 -0.057508
v -0.260342 1.452688 0.056215
v -0.260342 1.190601 -0.057508
v -0.260342 1.190601 0.056215
v 0.053987 1.452688 -0.284953
v -0.050789 1.452688 -0.284953
v -0.050789 1.190601 -0.284953
v 0.053987 1.190601 -0.284953
v -0.041828 1.430273 0.235029
v 0.045026 1.430273 0.235029
v -0.041828 1.213016 0.235029
v 0.045026 1.213016 0.235029
v 0.218735 1.430273 0.046489
v 0.218735 1.430273 -0.047782
v 0.218735 1.213016 -0.047782
v 0.218735 1.213016 0.046489
v -0.215536 1.430273 -0.047782
v -0.215536 1.430273 0.046489
v -0.215536 1.213016 -0.047782
v -0.215536 1.213016 0.046489
v 0.045026 1.430273 -0.236322
v -0.041828 1.430273 -0.236322
v -0.041828 1.213016 -0.236322
v 0.045026 1.213016 -0.236322
vn -1.0000 -0.0000 0.0000
vn 0.0000 1.0000 0.0000
vn 0.0000 0.0000 -1.0000
vn 0.0000 0.0000 1.0000
vn 1.0000 0.0000 -0.0000
vn 0.0030 -1.0000 -0.0000
vn -0.0000 -1.0000 0.0028
vn -0.0030 -1.0000 0.0000
vn -0.0000 -1.0000 -0.0028
vn 0.0000 0.4489 -0.8936
vn 0.9075 0.4200 0.0000
vn 0.0000 0.4489 0.8936
vn 0.0000 -1.0000 -0.0000
vn 0.0000 -0.9082 0.4186
vn 0.0000 0.9082 -0.4186
vn -0.2121 0.0000 -0.9772
vn -0.9834 0.0000 -0.1812
vn 0.4474 -0.8943 0.0000
vn 0.9834 0.0000 0.1812
vn -0.4474 -0.8943 0.0000
vn 0.2121 0.0000 0.9772
vn 0.0000 -0.9082 -0.4186
vn -0.9834 0.0000 0.1812
vn -0.2121 0.0000 0.9772
vn 0.2121 0.0000 -0.9772
vn 0.9834 0.0000 -0.1812
vn 0.0000 0.9082 0.4186
vn -0.4474 0.8943 0.0000
vn 0.4474 0.8943 0.0000
vn -0.9075 0.4200 0.0000
usemtl lightRock
s off
f 1//1 2//1 3//1 4//1 5//1 6//1 7//1 8//1 9//1 10//1 11//1 12//1 13//1 14//1 15//1 16//1 17//1 103//1 18//1 19//1
f 14//2 13//2 20//2 21//2 10//2 9//2 22//2 23//2 6//2 5//2 24//2 25//2 2//2 1//2 26//2 27//2 28//2 29//2 30//2 31//2
f 32//3 33//3 34//3 35//3 36//3 37//3 38//3 39//3 40//3 41//3 42//3 43//3 44//3 45//3 46//3 47//3 102//3 17//3 16//3 48//3
f 49//4 50//4 51//4 52//4 53//4 54//4 55//4 56//4 57//4 58//4 59//4 60//4 61//4 62//4 63//4 18//4 103//4 112//4 64//4 65//4
f 62//2 61//2 66//2 67//2 58//2 57//2 68//2 69//2 54//2 53//2 70//2 71//2 50//2 49//2 72//2 73//2 74//2 28//2 27//2
f 29//5 28//5 75//5 76//5
f 45//2 44//2 77//2 78//2 41//2 40//2 79//2 80//2 37//2 36//2 81//2 82//2 33//2 32//2 30//2 29//2 83//2 84//2 85//2
f 86//5 87//5 88//5 89//5 90//5 91//5 92//5 93//5 94//5 95//5 96//5 97//5 98//5 99//5 100//5 64//5 112//5 102//5 47//5 101//5
f 99//2 98//2 104//2 105//2 95//2 94//2 106//2 107//2 91//2 90//2 108//2 109//2 87//2 86//2 84//2 83//2 74//2 73//2
f 28//3 74//3 110//3 75//3
f 83//4 29//4 76//4 111//4
f 110//2 111//2 76//2 75//2
f 103//6 17//6 113//6 114//6
f 17//7 102//7 115//7 113//7
f 74//1 83//1 111//1 110//1
f 102//8 112//8 116//8 115//8
f 112//9 103//9 114//9 116//9
f 117//1 118//1 240//1 239//1
f 119//3 117//3 243//3 244//3
f 120//5 119//5 235//5 236//5
f 116//4 114//4 229//4 230//4
f 119//10 123//10 121//10 117//10
f 120//11 124//11 123//11 119//11
f 118//12 122//12 124//12 120//12
f 122//1 121//1 125//1 126//1
f 121//3 123//3 127//3 125//3
f 123//5 124//5 128//5 127//5
f 124//4 122//4 126//4 128//4
f 126//13 125//13 127//13 128//13
f 129//2 130//2 131//2 132//2
f 129//4 132//4 104//4 98//4 97//4 133//4
f 130//5 129//5 133//5 134//5
f 131//3 130//3 134//3 96//3 95//3 105//3
f 104//1 132//1 131//1 105//1
f 96//13 134//13 133//13 97//13
f 135//2 136//2 137//2 138//2
f 135//4 138//4 106//4 94//4 93//4 139//4
f 136//5 135//5 139//5 140//5
f 137//3 136//3 140//3 92//3 91//3 107//3
f 106//1 138//1 137//1 107//1
f 92//13 140//13 139//13 93//13
f 141//2 142//2 143//2 144//2
f 141//4 144//4 108//4 90//4 89//4 145//4
f 142//5 141//5 145//5 146//5
f 143//3 142//3 146//3 88//3 87//3 109//3
f 108//1 144//1 143//1 109//1
f 88//13 146//13 145//13 89//13
f 147//2 148//2 149//2 150//2
f 147//4 150//4 85//4 84//4 86//4 101//4 151//4
f 148//5 147//5 151//5 152//5
f 149//3 148//3 152//3 153//3
f 150//1 149//1 153//1 46//1 45//1 85//1
f 46//13 153//13 152//13 151//13 101//13 47//13
f 154//1 155//1 156//1 157//1
f 158//4 154//4 157//4 15//4 14//4 31//4
f 158//2 159//2 155//2 154//2
f 155//3 159//3 160//3 156//3
f 157//13 156//13 160//13 48//13 16//13 15//13
f 159//5 158//5 31//5 30//5 32//5 48//5 160//5
f 161//1 162//1 163//1 164//1
f 165//4 161//4 164//4 11//4 10//4 21//4
f 165//2 166//2 162//2 161//2
f 162//3 166//3 20//3 13//3 12//3 163//3
f 11//13 164//13 163//13 12//13
f 20//5 166//5 165//5 21//5
f 167//1 168//1 169//1 170//1
f 171//4 167//4 170//4 7//4 6//4 23//4
f 171//2 172//2 168//2 167//2
f 168//3 172//3 22//3 9//3 8//3 169//3
f 7//13 170//13 169//13 8//13
f 22//5 172//5 171//5 23//5
f 173//1 174//1 175//1 176//1
f 177//4 173//4 176//4 3//4 2//4 25//4
f 177//2 178//2 174//2 173//2
f 174//3 178//3 24//3 5//3 4//3 175//3
f 3//13 176//13 175//13 4//13
f 24//5 178//5 177//5 25//5
f 179//1 180//1 181//1 182//1
f 183//4 179//4 182//4 184//4
f 183//2 185//2 180//2 179//2
f 180//3 185//3 26//3 1//3 19//3 181//3
f 182//13 181//13 19//13 18//13 63//13 184//13
f 185//5 183//5 184//5 63//5 62//5 27//5 26//5
f 186//1 187//1 72//1 49//1 65//1 188//1
f 189//4 186//4 188//4 190//4
f 189//2 191//2 187//2 186//2
f 187//3 191//3 192//3 100//3 99//3 73//3 72//3
f 188//13 65//13 64//13 100//13 192//13 190//13
f 191//5 189//5 190//5 192//5
f 70//3 193//3 194//3 71//3
f 195//1 193//1 70//1 53//1 52//1 196//1
f 195//2 197//2 194//2 193//2
f 194//5 197//5 198//5 51//5 50//5 71//5
f 197//4 195//4 196//4 198//4
f 51//13 198//13 196//13 52//13
f 68//3 199//3 200//3 69//3
f 201//1 199//1 68//1 57//1 56//1 202//1
f 201//2 203//2 200//2 199//2
f 200//5 203//5 204//5 55//5 54//5 69//5
f 203//4 201//4 202//4 204//4
f 55//13 204//13 202//13 56//13
f 66//3 205//3 206//3 67//3
f 207//1 205//1 66//1 61//1 60//1 208//1
f 207//2 209//2 206//2 205//2
f 206//5 209//5 210//5 59//5 58//5 67//5
f 209//4 207//4 208//4 210//4
f 59//13 210//13 208//13 60//13
f 211//3 212//3 213//3 214//3
f 215//1 211//1 214//1 42//1 41//1 78//1
f 215//2 216//2 212//2 211//2
f 212//5 216//5 77//5 44//5 43//5 213//5
f 42//13 214//13 213//13 43//13
f 77//4 216//4 215//4 78//4
f 217//3 218//3 219//3 220//3
f 221//1 217//1 220//1 38//1 37//1 80//1
f 221//2 222//2 218//2 217//2
f 218//5 222//5 79//5 40//5 39//5 219//5
f 38//13 220//13 219//13 39//13
f 79//4 222//4 221//4 80//4
f 223//3 224//3 225//3 226//3
f 227//1 223//1 226//1 34//1 33//1 82//1
f 227//2 228//2 224//2 223//2
f 224//5 228//5 81//5 36//5 35//5 225//5
f 34//13 226//13 225//13 35//13
f 81//4 228//4 227//4 82//4
f 230//14 229//14 245//14 246//14
f 114//4 118//4 231//4 229//4
f 118//4 120//4 232//4 231//4
f 120//4 116//4 230//4 232//4
f 244//15 243//15 259//15 260//15
f 115//5 116//5 233//5 234//5
f 116//5 120//5 236//5 233//5
f 119//5 115//5 234//5 235//5
f 240//16 238//16 254//16 256//16
f 114//1 113//1 237//1 238//1
f 118//1 114//1 238//1 240//1
f 113//1 117//1 239//1 237//1
f 241//17 244//17 260//17 257//17
f 117//3 113//3 242//3 243//3
f 113//3 115//3 241//3 242//3
f 115//3 119//3 244//3 241//3
f 234//18 233//18 249//18 250//18
f 229//19 231//19 247//19 245//19
f 238//20 237//20 253//20 254//20
f 235//21 234//21 250//21 251//21
f 242//22 241//22 257//22 258//22
f 232//23 230//23 246//23 248//23
f 237//24 239//24 255//24 253//24
f 233//25 236//25 252//25 249//25
f 243//26 242//26 258//26 259//26
f 231//27 232//27 248//27 247//27
f 239//28 240//28 256//28 255//28
f 236//29 235//29 251//29 252//29
f 117//30 121//30 122//30 118//30
usemtl black
f 246//4 245//4 247//4 248//4
f 250//5 249//5 252//5 251//5
f 254//1 253//1 255//1 256//1
f 258//3 257//3 260//3 259//3
