# Blender v2.78 (sub 0) OBJ File: 'other.blend'
# www.blender.org
mtllib other.mtl
o plane
v -1.000000 0.000000 1.000000
v 1.000000 0.000000 1.000000
v -1.000000 0.000000 -1.000000
v 1.000000 0.000000 -1.000000
vn 0.0000 1.0000 0.0000
usemtl Material
s off
f 1//1 2//1 4//1 3//1
o arrow
v 0.000000 -0.615891 2.000000
v 0.000000 -0.615891 -0.000000
v 0.120154 -0.604057 2.000000
v 0.120154 -0.604057 -0.000000
v 0.235691 -0.569009 2.000000
v 0.235691 -0.569009 -0.000000
v 0.342171 -0.512094 2.000000
v 0.342171 -0.512094 -0.000000
v 0.435501 -0.435501 2.000000
v 0.435501 -0.435501 -0.000000
v 0.512095 -0.342170 2.000000
v 0.512095 -0.342171 -0.000000
v 0.569009 -0.235691 2.000000
v 0.569009 -0.235691 -0.000000
v 0.604057 -0.120154 2.000000
v 0.604057 -0.120154 -0.000000
v 0.615891 0.000000 2.000000
v 0.615891 0.000000 -0.000000
v 0.604057 0.120155 2.000000
v 0.604057 0.120154 -0.000000
v 0.569009 0.235691 2.000000
v 0.569009 0.235691 -0.000000
v 0.512095 0.342171 2.000000
v 0.512095 0.342171 -0.000000
v 0.435501 0.435501 2.000000
v 0.435501 0.435501 -0.000000
v 0.342171 0.512095 2.000000
v 0.342171 0.512095 -0.000000
v 0.235691 0.569009 2.000000
v 0.235691 0.569009 -0.000000
v 0.120154 0.604057 2.000000
v 0.120154 0.604057 -0.000000
v -0.000000 0.615891 2.000000
v -0.000000 0.615891 -0.000000
v -0.120155 0.604057 2.000000
v -0.120155 0.604057 -0.000000
v -0.235692 0.569009 2.000000
v -0.235692 0.569009 -0.000000
v -0.342171 0.512095 2.000000
v -0.342171 0.512095 -0.000000
v -0.435501 0.435501 2.000000
v -0.435501 0.435501 -0.000000
v -0.512095 0.342171 2.000000
v -0.512095 0.342171 -0.000000
v -0.569009 0.235691 2.000000
v -0.569009 0.235691 -0.000000
v -0.604057 0.120154 2.000000
v -0.604057 0.120154 -0.000000
v -0.615891 -0.000000 2.000000
v -0.615891 -0.000000 -0.000000
v -0.604057 -0.120155 2.000000
v -0.604057 -0.120155 -0.000000
v -0.569009 -0.235692 2.000000
v -0.569009 -0.235692 -0.000000
v -0.512094 -0.342171 2.000000
v -0.512094 -0.342171 -0.000000
v -0.435500 -0.435501 2.000000
v -0.435500 -0.435501 -0.000000
v -0.342170 -0.512095 2.000000
v -0.342170 -0.512095 -0.000000
v -0.235690 -0.569009 2.000000
v -0.235690 -0.569009 -0.000000
v -0.120153 -0.604057 2.000000
v -0.120153 -0.604057 -0.000000
v 0.000000 -1.000000 0.000000
v 0.195090 -0.980785 0.000000
v 0.382683 -0.923879 0.000000
v 0.555570 -0.831470 -0.000000
v 0.707107 -0.707107 0.000000
v 0.831470 -0.555570 -0.000000
v 0.923879 -0.382683 0.000000
v 0.980785 -0.195090 -0.000000
v 1.000000 -0.000000 0.000000
v -0.000000 0.000000 -2.000000
v 0.980785 0.195090 0.000000
v 0.923880 0.382683 0.000000
v 0.831470 0.555570 0.000000
v 0.707107 0.707107 -0.000000
v 0.555570 0.831470 -0.000000
v 0.382683 0.923880 -0.000000
v 0.195090 0.980785 -0.000000
v -0.000000 1.000000 -0.000000
v -0.195091 0.980785 -0.000000
v -0.382684 0.923879 -0.000000
v -0.555571 0.831469 -0.000000
v -0.707107 0.707106 -0.000000
v -0.831470 0.555570 0.000000
v -0.923880 0.382683 0.000000
v -0.980785 0.195089 0.000000
v -1.000000 -0.000001 0.000000
v -0.980785 -0.195091 0.000000
v -0.923879 -0.382684 0.000000
v -0.831469 -0.555571 0.000000
v -0.707106 -0.707108 0.000000
v -0.555569 -0.831470 0.000000
v -0.382682 -0.923880 0.000000
v -0.195089 -0.980785 0.000000
v 0.000000 -0.615891 2.000000
v 0.120154 -0.604057 2.000000
v 0.120154 -0.604057 -0.000000
v 0.000000 -0.615891 -0.000000
v 0.235691 -0.569009 2.000000
v 0.235691 -0.569009 -0.000000
v 0.342171 -0.512094 2.000000
v 0.342171 -0.512094 -0.000000
v 0.435501 -0.435501 2.000000
v 0.435501 -0.435501 -0.000000
v 0.512095 -0.342170 2.000000
v 0.512095 -0.342171 -0.000000
v 0.569009 -0.235691 2.000000
v 0.569009 -0.235691 -0.000000
v 0.604057 -0.120154 2.000000
v 0.604057 -0.120154 -0.000000
v 0.615891 0.000000 2.000000
v 0.615891 0.000000 -0.000000
v 0.604057 0.120155 2.000000
v 0.604057 0.120154 -0.000000
v 0.569009 0.235691 2.000000
v 0.569009 0.235691 -0.000000
v 0.512095 0.342171 2.000000
v 0.512095 0.342171 -0.000000
v 0.435501 0.435501 2.000000
v 0.435501 0.435501 -0.000000
v 0.342171 0.512095 2.000000
v 0.342171 0.512095 -0.000000
v 0.235691 0.569009 2.000000
v 0.235691 0.569009 -0.000000
v 0.120154 0.604057 2.000000
v 0.120154 0.604057 -0.000000
v -0.000000 0.615891 2.000000
v -0.000000 0.615891 -0.000000
v -0.120155 0.604057 2.000000
v -0.120155 0.604057 -0.000000
v -0.235692 0.569009 2.000000
v -0.235692 0.569009 -0.000000
v -0.342171 0.512095 2.000000
v -0.342171 0.512095 -0.000000
v -0.435501 0.435501 2.000000
v -0.435501 0.435501 -0.000000
v -0.512095 0.342171 2.000000
v -0.512095 0.342171 -0.000000
v -0.569009 0.235691 2.000000
v -0.569009 0.235691 -0.000000
v -0.604057 0.120154 2.000000
v -0.604057 0.120154 -0.000000
v -0.615891 -0.000000 2.000000
v -0.615891 -0.000000 -0.000000
v -0.604057 -0.120155 2.000000
v -0.604057 -0.120155 -0.000000
v -0.569009 -0.235692 2.000000
v -0.569009 -0.235692 -0.000000
v -0.512094 -0.342171 2.000000
v -0.512094 -0.342171 -0.000000
v -0.435500 -0.435501 2.000000
v -0.435500 -0.435501 -0.000000
v -0.342170 -0.512095 2.000000
v -0.342170 -0.512095 -0.000000
v -0.235690 -0.569009 2.000000
v -0.235690 -0.569009 -0.000000
v -0.120153 -0.604057 2.000000
v -0.120153 -0.604057 -0.000000
v 0.000000 -1.000000 0.000000
v 0.195090 -0.980785 0.000000
v 0.382683 -0.923879 0.000000
v 0.555570 -0.831470 -0.000000
v 0.707107 -0.707107 0.000000
v 0.831470 -0.555570 -0.000000
v 0.923879 -0.382683 0.000000
v 0.980785 -0.195090 -0.000000
v 1.000000 -0.000000 0.000000
v 0.980785 0.195090 0.000000
v 0.923880 0.382683 0.000000
v 0.831470 0.555570 0.000000
v 0.707107 0.707107 -0.000000
v 0.555570 0.831470 -0.000000
v 0.382683 0.923880 -0.000000
v 0.195090 0.980785 -0.000000
v -0.000000 1.000000 -0.000000
v -0.195091 0.980785 -0.000000
v -0.382684 0.923879 -0.000000
v -0.555571 0.831469 -0.000000
v -0.707107 0.707106 -0.000000
v -0.831470 0.555570 0.000000
v -0.923880 0.382683 0.000000
v -0.980785 0.195089 0.000000
v -1.000000 -0.000001 0.000000
v -0.980785 -0.195091 0.000000
v -0.923879 -0.382684 0.000000
v -0.831469 -0.555571 0.000000
v -0.707106 -0.707108 0.000000
v -0.555569 -0.831470 0.000000
v -0.382682 -0.923880 0.000000
v -0.195089 -0.980785 0.000000
vn 0.0000 -1.0000 0.0000
vn 0.1951 -0.9808 0.0000
vn 0.3827 -0.9239 0.0000
vn 0.5556 -0.8314 0.0000
vn 0.7071 -0.7071 0.0000
vn 0.8314 -0.5556 0.0000
vn 0.9239 -0.3827 0.0000
vn 0.9808 -0.1951 0.0000
vn 1.0000 0.0000 0.0000
vn 0.9808 0.1951 0.0000
vn 0.9239 0.3827 0.0000
vn 0.8314 0.5556 0.0000
vn 0.7071 0.7071 0.0000
vn 0.5556 0.8314 0.0000
vn 0.3827 0.9239 0.0000
vn 0.1951 0.9808 0.0000
vn 0.0000 1.0000 0.0000
vn -0.1951 0.9808 0.0000
vn -0.3827 0.9239 0.0000
vn -0.5556 0.8314 0.0000
vn -0.7071 0.7071 0.0000
vn -0.8314 0.5556 0.0000
vn -0.9239 0.3827 0.0000
vn -0.9808 0.1951 0.0000
vn -1.0000 0.0000 0.0000
vn -0.9808 -0.1951 0.0000
vn -0.9239 -0.3827 0.0000
vn -0.8314 -0.5556 0.0000
vn -0.7071 -0.7071 0.0000
vn -0.5556 -0.8314 0.0000
vn -0.3827 -0.9239 0.0000
vn 0.0000 0.0000 -1.0000
vn -0.1951 -0.9808 0.0000
vn 0.0000 0.0000 1.0000
vn 0.0000 -0.8944 -0.4472
vn 0.1745 -0.8772 -0.4472
vn 0.3423 -0.8263 -0.4472
vn 0.4969 -0.7437 -0.4472
vn 0.6324 -0.6324 -0.4472
vn 0.7437 -0.4969 -0.4472
vn 0.8263 -0.3423 -0.4472
vn 0.8772 -0.1745 -0.4472
vn 0.8944 0.0000 -0.4472
vn 0.8772 0.1745 -0.4472
vn 0.8263 0.3423 -0.4472
vn 0.7437 0.4969 -0.4472
vn 0.6324 0.6324 -0.4472
vn 0.4969 0.7437 -0.4472
vn 0.3423 0.8263 -0.4472
vn 0.1745 0.8772 -0.4472
vn 0.0000 0.8944 -0.4472
vn -0.1745 0.8772 -0.4472
vn -0.3423 0.8263 -0.4472
vn -0.4969 0.7437 -0.4472
vn -0.6324 0.6324 -0.4472
vn -0.7437 0.4969 -0.4472
vn -0.8263 0.3423 -0.4472
vn -0.8772 0.1745 -0.4472
vn -0.8944 0.0000 -0.4472
vn -0.8772 -0.1745 -0.4472
vn -0.8263 -0.3423 -0.4472
vn -0.7437 -0.4969 -0.4472
vn -0.6324 -0.6324 -0.4472
vn -0.4969 -0.7437 -0.4472
vn -0.3423 -0.8263 -0.4472
vn -0.1745 -0.8772 -0.4472
usemtl None
s 1
f 102//2 105//2 104//3 103//3
f 103//3 104//3 107//4 106//4
f 106//4 107//4 109//5 108//5
f 108//5 109//5 111//6 110//6
f 110//6 111//6 113//7 112//7
f 112//7 113//7 115//8 114//8
f 114//8 115//8 117//9 116//9
f 116//9 117//9 119//10 118//10
f 118//10 119//10 121//11 120//11
f 120//11 121//11 123//12 122//12
f 122//12 123//12 125//13 124//13
f 124//13 125//13 127//14 126//14
f 126//14 127//14 129//15 128//15
f 128//15 129//15 131//16 130//16
f 130//16 131//16 133//17 132//17
f 132//17 133//17 135//18 134//18
f 134//18 135//18 137//19 136//19
f 136//19 137//19 139//20 138//20
f 138//20 139//20 141//21 140//21
f 140//21 141//21 143//22 142//22
f 142//22 143//22 145//23 144//23
f 144//23 145//23 147//24 146//24
f 146//24 147//24 149//25 148//25
f 148//25 149//25 151//26 150//26
f 150//26 151//26 153//27 152//27
f 152//27 153//27 155//28 154//28
f 154//28 155//28 157//29 156//29
f 156//29 157//29 159//30 158//30
f 158//30 159//30 161//31 160//31
f 160//31 161//31 163//32 162//32
f 8//33 6//33 165//33 66//33 64//33 62//33 60//33 58//33 56//33 54//33 52//33 50//33 48//33 46//33 44//33 42//33 40//33 38//33 36//33 34//33 32//33 30//33 28//33 26//33 24//33 22//33 20//33 18//33 16//33 14//33 12//33 10//33
f 162//32 163//32 68//34 164//34
f 164//34 68//34 105//2 102//2
f 5//35 7//35 9//35 11//35 13//35 15//35 17//35 19//35 21//35 23//35 25//35 27//35 29//35 31//35 33//35 35//35 37//35 39//35 41//35 43//35 45//35 47//35 49//35 51//35 53//35 55//35 57//35 59//35 61//35 63//35 65//35 67//35
f 166//36 78//33 167//37
f 167//37 78//33 168//38
f 168//38 78//33 169//39
f 169//39 78//33 170//40
f 170//40 78//33 171//41
f 171//41 78//33 172//42
f 172//42 78//33 173//43
f 173//43 78//33 174//44
f 174//44 78//33 175//45
f 175//45 78//33 176//46
f 176//46 78//33 177//47
f 177//47 78//33 178//48
f 178//48 78//33 179//49
f 179//49 78//33 180//50
f 180//50 78//33 181//51
f 181//51 78//33 182//52
f 182//52 78//33 183//53
f 183//53 78//33 184//54
f 184//54 78//33 185//55
f 185//55 78//33 186//56
f 186//56 78//33 187//57
f 187//57 78//33 188//58
f 188//58 78//33 189//59
f 189//59 78//33 190//60
f 190//60 78//33 191//61
f 191//61 78//33 192//62
f 192//62 78//33 193//63
f 193//63 78//33 194//64
f 194//64 78//33 195//65
f 195//65 78//33 196//66
f 196//66 78//33 197//67
f 197//67 78//33 166//36
f 69//35 70//35 71//35 72//35 73//35 74//35 75//35 76//35 77//35 79//35 80//35 81//35 82//35 83//35 84//35 85//35 86//35 87//35 88//35 89//35 90//35 91//35 92//35 93//35 94//35 95//35 96//35 97//35 98//35 99//35 100//35 101//35
