# Blender v2.76 (sub 0) OBJ File: 'lightWeapon.blend'
# www.blender.org
o Cube
v 0.176135 0.158023 0.134703
v 0.100219 0.027759 -0.116869
v 0.176135 0.083688 -0.038661
v 0.176135 0.158023 -0.038661
v 0.108011 0.208750 0.100102
v 0.066456 -0.022907 -0.041012
v 0.108011 0.213952 -0.019643
v -0.012057 0.232132 -0.103020
v -0.012057 -0.022907 -0.057044
v -0.012057 0.213838 0.183479
v -0.012057 -0.022907 0.083268
v 0.176135 0.083688 0.134703
v 0.100219 0.027759 0.143094
v -0.012057 0.161386 0.229621
v -0.012057 0.082925 0.229621
v -0.012057 0.027759 0.154156
v -0.012057 0.182188 -0.182926
v -0.012057 0.059523 -0.182926
v -0.012057 0.027759 -0.127931
v 0.066456 -0.022907 0.067237
v 0.056067 0.158023 0.215435
v 0.056067 0.083688 0.215435
v 0.056067 0.158023 -0.182926
v 0.056067 0.083688 -0.182926
v -0.012057 0.182188 -0.547114
v -0.012057 0.059523 -0.547114
v 0.056067 0.158023 -0.547114
v 0.056067 0.083688 -0.547114
v -0.176135 0.158023 0.134703
v -0.100219 0.027759 -0.116869
v -0.176135 0.083688 -0.038661
v -0.176135 0.158023 -0.038661
v -0.108011 0.208750 0.100102
v -0.066456 -0.022907 -0.041012
v -0.108011 0.213952 -0.019643
v 0.012057 0.232132 -0.103020
v 0.012057 -0.022907 -0.057044
v 0.012057 0.213838 0.183479
v 0.012057 -0.022907 0.083268
v -0.176135 0.083688 0.134703
v -0.100219 0.027759 0.143094
v 0.012057 0.161386 0.229621
v 0.012057 0.082925 0.229621
v 0.012057 0.027759 0.154156
v 0.012057 0.182188 -0.182926
v 0.012057 0.059523 -0.182926
v 0.012057 0.027759 -0.127931
v -0.066456 -0.022907 0.067237
v -0.056067 0.158023 0.215435
v -0.056067 0.083688 0.215435
v -0.056067 0.158023 -0.182926
v -0.056067 0.083688 -0.182926
v 0.012057 0.182188 -0.547114
v 0.012057 0.059523 -0.547114
v -0.056067 0.158023 -0.547114
v -0.056067 0.083688 -0.547114
vt 0.143858 0.660060
vt 0.145372 0.813431
vt 0.006856 0.864235
vt 0.000000 0.643623
vt 0.769360 0.654603
vt 0.769360 0.877799
vt 0.642333 0.877799
vt 0.642333 0.654602
vt 0.990053 0.184311
vt 0.993933 0.272288
vt 0.859874 0.270673
vt 0.863043 0.182781
vt 0.769360 0.506287
vt 0.769360 0.283091
vt 0.913420 0.272288
vt 0.913420 0.606974
vt 0.769359 0.468871
vt 0.642333 0.468871
vt 1.000000 0.272288
vt 1.000000 0.606974
vt 0.913420 0.509314
vt 0.913420 0.369949
vt 0.993933 0.001530
vt 0.866923 0.000000
vt 0.885774 0.764899
vt 0.769360 0.733787
vt 0.769360 0.638086
vt 0.885774 0.606974
vt 0.642334 0.000000
vt 0.769360 0.000000
vt 0.401134 0.531129
vt 0.522866 0.531129
vt 0.522866 1.000000
vt 0.401134 1.000000
vt 0.308896 0.463442
vt 0.185464 0.465150
vt 0.171060 0.001708
vt 0.294493 0.000000
vt 0.342989 0.555603
vt 0.342989 0.923670
vt 0.401134 0.018263
vt 0.516083 0.000000
vt 0.532073 0.097156
vt 0.342989 0.111399
vt 0.546758 0.188420
vt 0.414535 0.209060
vt 0.312328 0.992388
vt 0.201218 0.972078
vt 0.546758 0.553915
vt 0.342989 0.446085
vt 0.532073 0.460327
vt 0.769360 0.093104
vt 0.546758 0.369064
vt 0.414535 0.348424
vt 0.143858 0.339940
vt 0.000000 0.356377
vt 0.006856 0.135765
vt 0.145372 0.186569
vt 0.769360 0.345397
vt 0.642333 0.345398
vt 0.642333 0.122201
vt 0.769360 0.122201
vt 0.990053 0.815688
vt 0.863043 0.817219
vt 0.859874 0.729327
vt 0.993933 0.727712
vt 0.769360 0.493713
vt 0.913420 0.393026
vt 0.913420 0.727712
vt 0.769360 0.716909
vt 0.769359 0.531129
vt 0.642333 0.531129
vt 1.000000 0.727712
vt 0.913420 0.630051
vt 0.913420 0.490686
vt 1.000000 0.393026
vt 0.993933 0.998470
vt 0.866923 1.000000
vt 0.885774 0.235101
vt 0.885774 0.393026
vt 0.769360 0.361914
vt 0.769360 0.266213
vt 0.769360 1.000000
vt 0.642334 1.000000
vt 0.401134 0.468871
vt 0.401134 0.000000
vt 0.522866 0.000000
vt 0.522866 0.468871
vt 0.308896 0.536558
vt 0.294493 1.000000
vt 0.171060 0.998292
vt 0.185464 0.534850
vt 0.342989 0.076330
vt 0.342989 0.444397
vt 0.401134 0.981737
vt 0.342989 0.888601
vt 0.532073 0.902844
vt 0.516083 1.000000
vt 0.414535 0.790940
vt 0.546758 0.811580
vt 0.201218 0.027922
vt 0.312328 0.007612
vt 0.546758 0.446085
vt 0.532073 0.539673
vt 0.342989 0.553915
vt 0.769360 0.906896
vt 0.414535 0.651576
vt 0.546758 0.630936
vn 0.396500 0.908000 -0.134900
vn 0.361900 0.908600 0.208200
vn 0.802400 0.416500 0.427400
vn 0.860300 0.407900 -0.305700
vn 0.830700 -0.382900 0.404000
vn 0.889700 -0.375400 -0.259500
vn 0.398500 0.391400 0.829400
vn 0.296400 0.402800 0.865900
vn 0.166000 -0.413200 0.895400
vn 0.319300 -0.384400 0.866100
vn 0.433500 -0.779300 0.452400
vn 0.566700 -0.639800 -0.519100
vn 0.740200 0.576100 -0.346600
vn 0.719400 -0.531100 -0.447600
vn 0.422600 -0.886700 0.187700
vn 0.422600 -0.886700 -0.187700
vn 0.263200 0.742000 -0.616500
vn 0.655000 0.462600 -0.597400
vn 0.655000 -0.462600 -0.597400
vn 0.263200 -0.742000 -0.616500
vn 0.247100 -0.906600 -0.342000
vn 0.366500 0.900000 -0.236000
vn 0.297700 0.910400 -0.287300
vn 0.267000 0.864700 0.425500
vn 0.084400 -0.805400 0.586700
vn 0.045900 -0.945100 0.323600
vn 0.111900 -0.802200 -0.586400
vn 0.045900 -0.945100 -0.323600
vn -0.396500 0.908000 -0.134900
vn -0.860300 0.407900 -0.305700
vn -0.802400 0.416500 0.427400
vn -0.361900 0.908600 0.208200
vn -0.889700 -0.375400 -0.259500
vn -0.830700 -0.382900 0.404000
vn -0.398500 0.391400 0.829400
vn -0.319300 -0.384400 0.866100
vn -0.166000 -0.413200 0.895400
vn -0.296400 0.402800 0.865900
vn -0.566700 -0.639800 -0.519100
vn -0.433500 -0.779300 0.452400
vn -0.740200 0.576100 -0.346600
vn -0.719400 -0.531100 -0.447600
vn -0.422600 -0.886700 -0.187700
vn -0.422600 -0.886700 0.187700
vn -0.263200 0.742000 -0.616500
vn -0.263200 -0.742000 -0.616500
vn -0.655000 -0.462600 -0.597400
vn -0.655000 0.462600 -0.597400
vn -0.247100 -0.906600 -0.342000
vn -0.366500 0.900000 -0.236000
vn -0.267000 0.864700 0.425500
vn -0.297700 0.910400 -0.287300
vn -0.084400 -0.805400 0.586700
vn -0.045900 -0.945100 0.323600
vn -0.111900 -0.802200 -0.586400
vn -0.045900 -0.945100 -0.323600
s 1
f 7/1/1 5/2/2 1/3/3 4/4/4
f 4/5/4 1/6/3 12/7/5 3/8/6
f 21/9/7 14/10/8 15/11/9 22/12/10
f 3/13/6 12/14/5 13/15/11 2/16/12
f 23/17/13 4/5/4 3/8/6 24/18/14
f 2/19/12 13/20/11 20/21/15 6/22/16
f 1/23/3 21/9/7 22/12/10 12/24/5
f 25/25/17 27/26/18 28/27/19 26/28/20
f 23/17/13 24/18/14 28/29/19 27/30/18
f 24/31/14 18/32/21 26/33/20 28/34/19
f 17/35/22 23/36/13 27/37/18 25/38/17
f 5/2/2 7/1/1 8/39/23 10/40/24
f 22/41/10 15/42/9 16/43/25 13/44/11
f 13/44/11 16/43/25 11/45/26 20/46/15
f 5/2/2 10/40/24 14/47/8 21/48/7
f 7/1/1 4/4/4 23/36/13
f 24/18/14 3/8/6 2/49/12
f 18/32/21 24/31/14 2/50/12 19/51/27
f 8/39/23 7/1/1 23/36/13 17/35/22
f 5/2/2 21/48/7 1/3/3
f 12/24/5 22/12/10 13/52/11
f 11/45/26 9/53/28 6/54/16 20/46/15
f 19/51/27 2/50/12 6/54/16 9/53/28
f 35/55/29 32/56/30 29/57/31 33/58/32
f 32/59/30 31/60/33 40/61/34 29/62/31
f 49/63/35 50/64/36 43/65/37 42/66/38
f 31/67/33 30/68/39 41/69/40 40/70/34
f 51/71/41 52/72/42 31/60/33 32/59/30
f 30/73/39 34/74/43 48/75/44 41/76/40
f 29/77/31 40/78/34 50/64/36 49/63/35
f 53/79/45 54/80/46 56/81/47 55/82/48
f 51/71/41 55/83/48 56/84/47 52/72/42
f 52/85/42 56/86/47 54/87/46 46/88/49
f 45/89/50 53/90/45 55/91/48 51/92/41
f 33/58/32 38/93/51 36/94/52 35/55/29
f 50/95/36 41/96/40 44/97/53 43/98/37
f 41/96/40 48/99/44 39/100/54 44/97/53
f 33/58/32 49/101/35 42/102/38 38/93/51
f 35/55/29 51/92/41 32/56/30
f 52/72/42 30/103/39 31/60/33
f 46/88/49 47/104/55 30/105/39 52/85/42
f 36/94/52 45/89/50 51/92/41 35/55/29
f 33/58/32 29/57/31 49/101/35
f 40/78/34 41/106/40 50/64/36
f 39/100/54 48/99/44 34/107/43 37/108/56
f 47/104/55 37/108/56 34/107/43 30/105/39
